STARTFONT 2.1
COMMENT
COMMENT Converted from OpenType font "Arial_Bold.ttf" by "otf2bdf 3.0".
COMMENT
FONT -FreeType-Arial-Bold-R-Normal--40-290-100-100-P-201-ISO10646-1
SIZE 29 100 100
FONTBOUNDINGBOX 69 58 -25 -16
STARTPROPERTIES 19
FOUNDRY "FreeType"
FAMILY_NAME "Arial"
WEIGHT_NAME "Bold"
SLANT "R"
SETWIDTH_NAME "Normal"
ADD_STYLE_NAME ""
PIXEL_SIZE 40
POINT_SIZE 290
RESOLUTION_X 100
RESOLUTION_Y 100
SPACING "P"
AVERAGE_WIDTH 201
CHARSET_REGISTRY "ISO10646"
CHARSET_ENCODING "1"
FONT_ASCENT 36
FONT_DESCENT 8
COPYRIGHT "Typeface © The Monotype Corporation plc. Data © The Monotype Corporation plc/Type Solutions Inc. 1990-1992. All Rights Reserved"
_OTF_FONTFILE "Arial_Bold.ttf"
_OTF_PSNAME "Arial-BoldMT"
ENDPROPERTIES
CHARS 1186
STARTCHAR 0020
ENCODING 32
SWIDTH 273 0
DWIDTH 11 0
BBX 0 0 0 0
BITMAP
ENDCHAR
STARTCHAR 0021
ENCODING 33
SWIDTH 322 0
DWIDTH 13 0
BBX 6 29 4 0
BITMAP
FC
FC
FC
FC
FC
FC
FC
F8
F8
F8
F8
F8
F8
F8
F8
F8
78
70
70
70
70
00
00
F8
F8
F8
F8
F8
F8
ENDCHAR
STARTCHAR 0022
ENCODING 34
SWIDTH 471 0
DWIDTH 19 0
BBX 15 10 2 19
BITMAP
FC7E
FC7E
FC7E
FC7E
FC7E
FC7E
7C7E
7C3E
7C3C
783C
ENDCHAR
STARTCHAR 0023
ENCODING 35
SWIDTH 546 0
DWIDTH 22 0
BBX 22 29 0 0
BITMAP
01F0F8
01F0F0
01E0F0
01E1F0
01E1F0
03E1F0
03E1E0
FFFFFC
FFFFFC
FFFFFC
FFFFFC
0783C0
0783C0
0787C0
0F87C0
0F8780
0F0780
FFFFFC
FFFFFC
FFFFFC
FFFFFC
1E0F00
1E0F00
1E1F00
3E1F00
3E1E00
3C1E00
3C1E00
3C3E00
ENDCHAR
STARTCHAR 0024
ENCODING 36
SWIDTH 546 0
DWIDTH 22 0
BBX 19 35 1 -4
BITMAP
006000
006000
03F800
0FFE00
1FFF80
3FFF80
3FFFC0
7E6FC0
7E67E0
7C6300
7C6000
7C6000
3E6000
3FE000
3FF800
1FFE00
0FFF80
03FFC0
007FE0
006FE0
0063E0
0063E0
1C61E0
FC61E0
7E63E0
7F67E0
7FFFC0
3FFFC0
1FFF80
0FFE00
03F800
006000
006000
006000
006000
ENDCHAR
STARTCHAR 0025
ENCODING 37
SWIDTH 893 0
DWIDTH 36 0
BBX 32 30 2 -1
BITMAP
1F800780
3FC00780
7FE00F00
F9F00F00
F0F01E00
F0F01E00
F0F03C00
F0F03C00
F0F07800
F0F07800
F0F0F000
F9F0F000
7FE1E000
3FC3E000
1F83C000
0007C1F0
000787FC
000F8FFE
000F0F3E
001F1F1E
001E1E1F
003C1E1F
003C1E1F
00781E1F
00781E1F
00F01F1E
00F00F3E
01E00FFE
01E007FC
03C001F0
ENDCHAR
STARTCHAR 0026
ENCODING 38
SWIDTH 720 0
DWIDTH 29 0
BBX 26 29 2 0
BITMAP
00FE0000
03FF8000
07FFC000
0FFFC000
0FC7E000
1F83E000
1F83E000
1F83E000
0FC7E000
0FEFC000
07FFC000
07FF8000
03FE0000
07FC0000
1FFE0000
3FFF1000
7F3F1F00
7E3F9F00
FC1FFF00
FC0FFE00
F807FE00
F803FC00
FC03FC00
FC03FE00
7E0FFF80
7FFFFFC0
3FFFFF80
0FFF0F00
03FC0200
ENDCHAR
STARTCHAR 0027
ENCODING 39
SWIDTH 248 0
DWIDTH 10 0
BBX 6 10 2 19
BITMAP
FC
FC
FC
FC
FC
FC
F8
F8
78
78
ENDCHAR
STARTCHAR 0028
ENCODING 40
SWIDTH 322 0
DWIDTH 13 0
BBX 10 37 2 -8
BITMAP
03C0
0780
0780
0F00
0F00
1F00
1E00
3E00
3E00
7C00
7C00
7C00
7C00
FC00
FC00
F800
F800
F800
F800
F800
F800
F800
FC00
7C00
7C00
7C00
7C00
3C00
3E00
3E00
1E00
1F00
0F00
0F00
0780
0780
03C0
ENDCHAR
STARTCHAR 0029
ENCODING 41
SWIDTH 322 0
DWIDTH 13 0
BBX 9 37 2 -8
BITMAP
E000
F000
F800
7800
7C00
3C00
3E00
3E00
1F00
1F00
1F00
1F00
1F80
0F80
0F80
0F80
0F80
0F80
0F80
0F80
0F80
0F80
0F80
0F80
1F80
1F00
1F00
1F00
1E00
3E00
3E00
3C00
7C00
7800
F800
F000
E000
ENDCHAR
STARTCHAR 002A
ENCODING 42
SWIDTH 397 0
DWIDTH 16 0
BBX 14 13 1 16
BITMAP
0700
0700
0700
C718
FF78
FFFC
3FE0
0F80
1FC0
3DE0
78F0
38E0
1040
ENDCHAR
STARTCHAR 002B
ENCODING 43
SWIDTH 571 0
DWIDTH 23 0
BBX 20 19 2 4
BITMAP
01F000
01F000
01F000
01F000
01F000
01F000
01F000
FFFFF0
FFFFF0
FFFFF0
FFFFF0
FFFFF0
01F000
01F000
01F000
01F000
01F000
01F000
01F000
ENDCHAR
STARTCHAR 002C
ENCODING 44
SWIDTH 273 0
DWIDTH 11 0
BBX 5 13 3 -7
BITMAP
F8
F8
F8
F8
F8
F8
38
38
38
70
F0
E0
80
ENDCHAR
STARTCHAR 002D
ENCODING 45
SWIDTH 322 0
DWIDTH 13 0
BBX 11 5 2 8
BITMAP
FFE0
FFE0
FFE0
FFE0
FFE0
ENDCHAR
STARTCHAR 002E
ENCODING 46
SWIDTH 273 0
DWIDTH 11 0
BBX 5 6 3 0
BITMAP
F8
F8
F8
F8
F8
F8
ENDCHAR
STARTCHAR 002F
ENCODING 47
SWIDTH 273 0
DWIDTH 11 0
BBX 11 29 0 0
BITMAP
01E0
01E0
03E0
03C0
03C0
03C0
07C0
0780
0780
0780
0F80
0F00
0F00
0F00
1F00
1E00
1E00
1E00
3E00
3C00
3C00
3C00
3C00
7800
7800
7800
7800
F000
F000
ENDCHAR
STARTCHAR 0030
ENCODING 48
SWIDTH 546 0
DWIDTH 22 0
BBX 18 29 2 0
BITMAP
03F000
0FFC00
1FFE00
3FFF00
7FFF00
7E1F80
7C1F80
FC0FC0
FC0FC0
FC0FC0
FC0FC0
F80FC0
F80FC0
F807C0
F807C0
F807C0
F80FC0
F80FC0
FC0FC0
FC0FC0
FC0FC0
FC0FC0
7C1F80
7E1F80
7FFF00
3FFF00
1FFE00
0FFC00
03F000
ENDCHAR
STARTCHAR 0031
ENCODING 49
SWIDTH 546 0
DWIDTH 22 0
BBX 13 29 3 0
BITMAP
00F8
00F8
01F8
03F8
07F8
1FF8
7FF8
FFF8
FDF8
F9F8
F1F8
81F8
01F8
01F8
01F8
01F8
01F8
01F8
01F8
01F8
01F8
01F8
01F8
01F8
01F8
01F8
01F8
01F8
01F8
ENDCHAR
STARTCHAR 0032
ENCODING 50
SWIDTH 546 0
DWIDTH 22 0
BBX 19 29 1 0
BITMAP
01FC00
0FFF00
1FFF80
3FFFC0
3FFFE0
7F0FE0
7E07E0
7C03E0
7C03E0
0003E0
0007E0
0007C0
000FC0
001F80
003F80
007F00
00FE00
01FC00
03F800
07F000
0FC000
1F8000
1F8000
3FFFE0
7FFFE0
7FFFE0
7FFFE0
FFFFE0
FFFFE0
ENDCHAR
STARTCHAR 0033
ENCODING 51
SWIDTH 546 0
DWIDTH 22 0
BBX 19 29 2 0
BITMAP
03F000
0FFC00
3FFE00
3FFF00
7FFF00
7E3F80
FC1F80
F80F80
380F80
000F80
001F80
003F00
01FE00
01FC00
01FE00
01FF00
001F80
000FC0
0007C0
0007C0
F807E0
F807C0
FC0FC0
FE1FC0
7FFF80
7FFF80
3FFF00
0FFC00
03F000
ENDCHAR
STARTCHAR 0034
ENCODING 52
SWIDTH 546 0
DWIDTH 22 0
BBX 20 29 1 0
BITMAP
000F80
001F80
003F80
003F80
007F80
00FF80
00FF80
01FF80
03FF80
03FF80
07DF80
0F9F80
0F9F80
1F1F80
3E1F80
7E1F80
7C1F80
F81F80
FFFFF0
FFFFF0
FFFFF0
FFFFF0
FFFFF0
001F80
001F80
001F80
001F80
001F80
001F80
ENDCHAR
STARTCHAR 0035
ENCODING 53
SWIDTH 546 0
DWIDTH 22 0
BBX 19 29 2 0
BITMAP
1FFFC0
1FFFC0
1FFFC0
1FFFC0
3FFFC0
3FFFC0
3E0000
3E0000
3E0000
3E0000
7EF800
7FFE00
7FFF00
7FFF80
7FFFC0
7E1FC0
7807E0
0007E0
0007E0
0007E0
F807E0
FC07E0
FC0FE0
7E1FC0
7FFFC0
3FFF80
1FFF00
0FFE00
03F800
ENDCHAR
STARTCHAR 0036
ENCODING 54
SWIDTH 546 0
DWIDTH 22 0
BBX 19 29 2 0
BITMAP
01F800
07FE00
0FFF00
1FFF80
3FFF80
7F0FC0
7E07C0
7C07C0
FC0000
FC0000
FC0000
FCF800
FBFE00
FFFF00
FFFF80
FFFFC0
FF0FC0
FC07E0
FC07E0
FC07E0
FC07E0
FC07E0
7E07E0
7F0FC0
3FFFC0
3FFF80
1FFF00
0FFE00
03F800
ENDCHAR
STARTCHAR 0037
ENCODING 55
SWIDTH 546 0
DWIDTH 22 0
BBX 18 29 2 0
BITMAP
FFFFC0
FFFFC0
FFFFC0
FFFFC0
FFFFC0
FFFF80
000F00
001F00
003E00
003C00
007C00
00F800
00F800
01F000
01F000
01F000
03E000
03E000
07E000
07C000
07C000
07C000
0FC000
0F8000
0F8000
0F8000
0F8000
0F8000
0F8000
ENDCHAR
STARTCHAR 0038
ENCODING 56
SWIDTH 546 0
DWIDTH 22 0
BBX 18 29 2 0
BITMAP
07F800
1FFE00
3FFF00
7FFF80
7E1F80
FC0F80
FC0F80
FC0FC0
FC0F80
7C0F80
7E1F80
3FFF00
0FFC00
1FFE00
3FFF00
7E1F80
FC0FC0
F807C0
F807C0
F807C0
F807C0
F807C0
FC07C0
FC0FC0
7E1F80
7FFF80
3FFF00
1FFE00
03F800
ENDCHAR
STARTCHAR 0039
ENCODING 57
SWIDTH 546 0
DWIDTH 22 0
BBX 19 29 1 0
BITMAP
03F800
0FFE00
1FFF00
3FFF80
7FFF80
7E1FC0
7C0FC0
FC07E0
FC07E0
FC07E0
FC07E0
FC07E0
7E1FE0
7FFFE0
3FFFE0
1FFFE0
0FFBE0
03E3E0
0007E0
0007E0
0007E0
7C07E0
7E0FC0
7E1FC0
3FFF80
3FFF80
1FFF00
0FFC00
03F000
ENDCHAR
STARTCHAR 003A
ENCODING 58
SWIDTH 322 0
DWIDTH 13 0
BBX 5 21 4 0
BITMAP
F8
F8
F8
F8
F8
F8
00
00
00
00
00
00
00
00
00
F8
F8
F8
F8
F8
F8
ENDCHAR
STARTCHAR 003B
ENCODING 59
SWIDTH 322 0
DWIDTH 13 0
BBX 5 28 4 -7
BITMAP
F8
F8
F8
F8
F8
F8
00
00
00
00
00
00
00
00
00
F8
F8
F8
F8
F8
F8
38
38
38
70
F0
E0
80
ENDCHAR
STARTCHAR 003C
ENCODING 60
SWIDTH 571 0
DWIDTH 23 0
BBX 19 22 2 3
BITMAP
000020
0000E0
0003E0
001FE0
007FE0
01FFC0
07FF00
3FFC00
FFE000
FF8000
FE0000
FE0000
FF8000
FFF000
3FFC00
07FF00
01FFC0
007FE0
000FE0
0003E0
0000E0
000020
ENDCHAR
STARTCHAR 003D
ENCODING 61
SWIDTH 571 0
DWIDTH 23 0
BBX 20 14 2 7
BITMAP
FFFFF0
FFFFF0
FFFFF0
FFFFF0
FFFFF0
000000
000000
000000
000000
FFFFF0
FFFFF0
FFFFF0
FFFFF0
FFFFF0
ENDCHAR
STARTCHAR 003E
ENCODING 62
SWIDTH 571 0
DWIDTH 23 0
BBX 20 22 2 3
BITMAP
800000
E00000
FC0000
FF0000
FFC000
7FF000
1FFE00
03FF80
00FFE0
003FF0
000FF0
000FF0
003FF0
00FFE0
03FF80
1FFE00
7FF000
FFC000
FF0000
FC0000
E00000
800000
ENDCHAR
STARTCHAR 003F
ENCODING 63
SWIDTH 595 0
DWIDTH 24 0
BBX 21 29 2 0
BITMAP
01FC00
0FFF80
1FFFC0
3FFFE0
7F07F0
7C03F0
FC01F0
F801F8
0001F8
0001F0
0003F0
0007F0
000FE0
003FC0
007F80
007E00
00FC00
00F800
00F800
00F800
00F800
000000
000000
00F800
00F800
00F800
00F800
00F800
00F800
ENDCHAR
STARTCHAR 0040
ENCODING 64
SWIDTH 968 0
DWIDTH 39 0
BBX 38 38 1 -9
BITMAP
0001FF8000
000FFFF000
003FFFFC00
00FFFFFF00
01FE007F80
03F0001FC0
07E00007C0
0F800003E0
1F01F0F9E0
1E07FCF8F0
3E0FFFF0F0
3C1FFFF070
783FFFF078
787F07F078
787E03F078
707C03E078
F0F803E078
F0F803E078
F0F803E070
F0F803E0F0
F0F807C0F0
F0F807C1E0
F0F80FC3E0
F0FC3FC7C0
70FFFFCF80
787FFFFF00
787FFFFE00
3C3FE7FC00
3C0F83E000
1E0000007C
1F000000F8
0FC00001F0
07F00007E0
03FE003FC0
01FFFFFF80
007FFFFF00
001FFFF800
0001FFC000
ENDCHAR
STARTCHAR 0041
ENCODING 65
SWIDTH 720 0
DWIDTH 29 0
BBX 29 29 0 0
BITMAP
001F8000
001FC000
003FC000
003FE000
007FE000
007FE000
007DF000
00F9F000
00F9F800
01F8F800
01F0F800
01F0FC00
03F07C00
03E07E00
03E07E00
07E03E00
07C03F00
0FFFFF00
0FFFFF80
0FFFFF80
1FFFFF80
1FFFFFC0
3F000FC0
3F000FE0
3F0007E0
7E0007E0
7E0003F0
7E0003F0
FC0003F8
ENDCHAR
STARTCHAR 0042
ENCODING 66
SWIDTH 720 0
DWIDTH 29 0
BBX 24 29 3 0
BITMAP
FFFF80
FFFFE0
FFFFF8
FFFFF8
FFFFFC
FC01FC
FC00FC
FC007E
FC007C
FC007C
FC00FC
FC01F8
FFFFF8
FFFFF0
FFFFF0
FFFFF8
FFFFFC
FC00FE
FC007F
FC003F
FC003F
FC003F
FC007F
FC00FE
FFFFFE
FFFFFC
FFFFFC
FFFFF8
FFFFC0
ENDCHAR
STARTCHAR 0043
ENCODING 67
SWIDTH 720 0
DWIDTH 29 0
BBX 25 29 2 0
BITMAP
007F8000
01FFE000
07FFF800
0FFFFC00
1FFFFE00
3FC1FE00
3F807F00
7F003F00
7E001F80
FE001C00
FC000000
FC000000
FC000000
FC000000
FC000000
FC000000
FC000000
FC000000
FC001800
FE001E00
7E003F80
7F003F00
3F807F00
3FC1FE00
1FFFFE00
0FFFFC00
07FFF800
01FFE000
007F8000
ENDCHAR
STARTCHAR 0044
ENCODING 68
SWIDTH 720 0
DWIDTH 29 0
BBX 24 29 3 0
BITMAP
FFFF00
FFFFC0
FFFFE0
FFFFF0
FFFFF8
FC03FC
FC00FC
FC00FE
FC007E
FC007E
FC003F
FC003F
FC003F
FC003F
FC003F
FC003F
FC003F
FC003F
FC003F
FC007E
FC007E
FC007E
FC00FC
FC03FC
FFFFF8
FFFFF0
FFFFE0
FFFFC0
FFFE00
ENDCHAR
STARTCHAR 0045
ENCODING 69
SWIDTH 670 0
DWIDTH 27 0
BBX 22 29 3 0
BITMAP
FFFFF8
FFFFF8
FFFFF8
FFFFF8
FFFFF8
FC0000
FC0000
FC0000
FC0000
FC0000
FC0000
FFFFF0
FFFFF0
FFFFF0
FFFFF0
FFFFF0
FC0000
FC0000
FC0000
FC0000
FC0000
FC0000
FC0000
FC0000
FFFFFC
FFFFFC
FFFFFC
FFFFFC
FFFFFC
ENDCHAR
STARTCHAR 0046
ENCODING 70
SWIDTH 595 0
DWIDTH 24 0
BBX 20 29 3 0
BITMAP
FFFFF0
FFFFF0
FFFFF0
FFFFF0
FFFFF0
FC0000
FC0000
FC0000
FC0000
FC0000
FC0000
FC0000
FFFFC0
FFFFC0
FFFFC0
FFFFC0
FFFFC0
FC0000
FC0000
FC0000
FC0000
FC0000
FC0000
FC0000
FC0000
FC0000
FC0000
FC0000
FC0000
ENDCHAR
STARTCHAR 0047
ENCODING 71
SWIDTH 769 0
DWIDTH 31 0
BBX 27 29 2 0
BITMAP
003FC000
01FFF800
07FFFE00
0FFFFF00
1FFFFF00
3FE07F80
3F803FC0
7F001FC0
7E000FC0
7E000E00
FC000000
FC000000
FC000000
FC03FFE0
FC03FFE0
FC03FFE0
FC03FFE0
FC03FFE0
FC0007E0
7E0007E0
7E0007E0
7F0007E0
3F801FE0
1FE07FE0
1FFFFFE0
0FFFFFC0
03FFFF00
01FFFC00
003FE000
ENDCHAR
STARTCHAR 0048
ENCODING 72
SWIDTH 720 0
DWIDTH 29 0
BBX 23 29 3 0
BITMAP
FC007E
FC007E
FC007E
FC007E
FC007E
FC007E
FC007E
FC007E
FC007E
FC007E
FC007E
FFFFFE
FFFFFE
FFFFFE
FFFFFE
FFFFFE
FC007E
FC007E
FC007E
FC007E
FC007E
FC007E
FC007E
FC007E
FC007E
FC007E
FC007E
FC007E
FC007E
ENDCHAR
STARTCHAR 0049
ENCODING 73
SWIDTH 273 0
DWIDTH 11 0
BBX 6 29 3 0
BITMAP
FC
FC
FC
FC
FC
FC
FC
FC
FC
FC
FC
FC
FC
FC
FC
FC
FC
FC
FC
FC
FC
FC
FC
FC
FC
FC
FC
FC
FC
ENDCHAR
STARTCHAR 004A
ENCODING 74
SWIDTH 546 0
DWIDTH 22 0
BBX 18 29 1 0
BITMAP
000FC0
000FC0
000FC0
000FC0
000FC0
000FC0
000FC0
000FC0
000FC0
000FC0
000FC0
000FC0
000FC0
000FC0
000FC0
000FC0
000FC0
000FC0
000FC0
380FC0
F80FC0
F80FC0
FC0FC0
FE1F80
FFFF80
7FFF00
3FFF00
1FFC00
07F000
ENDCHAR
STARTCHAR 004B
ENCODING 75
SWIDTH 720 0
DWIDTH 29 0
BBX 26 29 3 0
BITMAP
FC007F80
FC00FF00
FC01FE00
FC03FC00
FC07F800
FC0FF000
FC1FE000
FC3FC000
FC7F8000
FCFF0000
FDFE0000
FFFE0000
FFFE0000
FFFF0000
FFFF0000
FFFF8000
FFDFC000
FF8FC000
FF0FE000
FE07F000
FC07F000
FC03F800
FC03FC00
FC01FC00
FC00FE00
FC00FF00
FC007F00
FC007F80
FC003FC0
ENDCHAR
STARTCHAR 004C
ENCODING 76
SWIDTH 595 0
DWIDTH 24 0
BBX 20 29 3 0
BITMAP
FC0000
FC0000
FC0000
FC0000
FC0000
FC0000
FC0000
FC0000
FC0000
FC0000
FC0000
FC0000
FC0000
FC0000
FC0000
FC0000
FC0000
FC0000
FC0000
FC0000
FC0000
FC0000
FC0000
FC0000
FFFFF0
FFFFF0
FFFFF0
FFFFF0
FFFFF0
ENDCHAR
STARTCHAR 004D
ENCODING 77
SWIDTH 819 0
DWIDTH 33 0
BBX 27 29 3 0
BITMAP
FF801FE0
FF803FE0
FF803FE0
FF803FE0
FFC03FE0
FFC07FE0
FFC07FE0
FBC07FE0
FBE07FE0
FBE0FBE0
FBE0FBE0
F9F0FBE0
F9F0FBE0
F9F1F3E0
F9F1F3E0
F8F9F3E0
F8F9F3E0
F8FBE3E0
F8FBE3E0
F87FE3E0
F87FE3E0
F87FC3E0
F87FC3E0
F83FC3E0
F83FC3E0
F83F83E0
F83F83E0
F81F83E0
F81F83E0
ENDCHAR
STARTCHAR 004E
ENCODING 78
SWIDTH 720 0
DWIDTH 29 0
BBX 23 29 3 0
BITMAP
FC007E
FC007E
FE007E
FF007E
FF007E
FF807E
FF807E
FFC07E
FFC07E
FBE07E
FBF07E
F9F07E
F9F87E
F8F87E
F87C7E
F87C7E
F83E7E
F83F7E
F81F7E
F81FFE
F80FFE
F807FE
F807FE
F803FE
F803FE
F801FE
F801FE
F800FE
F8007E
ENDCHAR
STARTCHAR 004F
ENCODING 79
SWIDTH 769 0
DWIDTH 31 0
BBX 28 29 2 0
BITMAP
007FC000
01FFF800
07FFFC00
0FFFFE00
1FFFFF00
3FE07F80
3F803FC0
7F001FC0
7E000FE0
FE0007E0
FC0007E0
FC0007E0
FC0007E0
FC0007E0
FC0003F0
FC0007F0
FC0007E0
FC0007E0
FC0007E0
FE0007E0
7E000FE0
7F001FC0
7F803FC0
3FE0FF80
1FFFFF00
0FFFFE00
07FFFC00
01FFF800
007FC000
ENDCHAR
STARTCHAR 0050
ENCODING 80
SWIDTH 670 0
DWIDTH 27 0
BBX 22 29 3 0
BITMAP
FFFF00
FFFFC0
FFFFF0
FFFFF0
FFFFF8
FC03F8
FC01FC
FC00FC
FC00FC
FC00FC
FC00FC
FC01FC
FC03F8
FFFFF8
FFFFF0
FFFFE0
FFFFC0
FFFF00
FC0000
FC0000
FC0000
FC0000
FC0000
FC0000
FC0000
FC0000
FC0000
FC0000
FC0000
ENDCHAR
STARTCHAR 0051
ENCODING 81
SWIDTH 769 0
DWIDTH 31 0
BBX 28 31 2 -2
BITMAP
007FC000
01FFF800
07FFFC00
0FFFFE00
1FFFFF00
3FE0FF80
7F803FC0
7F001FC0
7E000FE0
FE0007E0
FC0007E0
FC0007E0
FC0007E0
FC0007E0
FC0003F0
FC0007E0
FC0007E0
FC0007E0
FC0007E0
FE0207E0
7E078FE0
7F0FFFC0
7F83FFC0
3FE0FF80
1FFFFF00
0FFFFF80
07FFFFE0
01FFFFF0
007FC7F0
000001E0
00000060
ENDCHAR
STARTCHAR 0052
ENCODING 82
SWIDTH 720 0
DWIDTH 29 0
BBX 25 29 3 0
BITMAP
FFFFC000
FFFFF000
FFFFF800
FFFFFC00
FFFFFE00
FC00FE00
FC007E00
FC007E00
FC007E00
FC007E00
FC007E00
FC00FE00
FFFFFC00
FFFFFC00
FFFFF000
FFFFE000
FFFF0000
FC3FC000
FC0FE000
FC0FF000
FC07F000
FC03F800
FC03FC00
FC01FC00
FC00FE00
FC00FF00
FC007F00
FC003F80
FC003F80
ENDCHAR
STARTCHAR 0053
ENCODING 83
SWIDTH 670 0
DWIDTH 27 0
BBX 23 29 2 0
BITMAP
01FE00
0FFFC0
1FFFE0
3FFFF0
7FFFF8
7F03F8
7C01FC
FC00FC
FC00FC
7E0000
7F8000
7FF800
3FFF80
1FFFE0
0FFFF0
03FFF8
003FFC
0003FC
0000FE
38007E
FC007E
FC007E
FE00FC
FF03FC
7FFFFC
3FFFF8
1FFFF0
0FFFE0
01FF00
ENDCHAR
STARTCHAR 0054
ENCODING 84
SWIDTH 595 0
DWIDTH 24 0
BBX 23 29 1 0
BITMAP
FFFFFE
FFFFFE
FFFFFE
FFFFFE
FFFFFE
00FC00
00FC00
00FC00
00FC00
00FC00
00FC00
00FC00
00FC00
00FC00
00FC00
00FC00
00FC00
00FC00
00FC00
00FC00
00FC00
00FC00
00FC00
00FC00
00FC00
00FC00
00FC00
00FC00
00FC00
ENDCHAR
STARTCHAR 0055
ENCODING 85
SWIDTH 720 0
DWIDTH 29 0
BBX 23 29 3 0
BITMAP
FC007E
FC007E
FC007E
FC007E
FC007E
FC007E
FC007E
FC007E
FC007E
FC007E
FC007E
FC007E
FC007E
FC007E
FC007E
FC007E
FC007E
FC007E
FC007E
FC007E
FC007C
FC00FC
FE00FC
7F83FC
7FFFF8
3FFFF8
1FFFF0
0FFFC0
01FF00
ENDCHAR
STARTCHAR 0056
ENCODING 86
SWIDTH 670 0
DWIDTH 27 0
BBX 26 29 0 0
BITMAP
FC000FC0
7E000FC0
7E000FC0
7E001F80
3F001F80
3F001F80
3F003F00
1F803F00
1F803F00
1F807E00
0FC07E00
0FC07E00
0FC07C00
07E0FC00
07E0FC00
07E0F800
03F1F800
03F1F000
01F1F000
01FBF000
01FBE000
00FBE000
00FFE000
00FFC000
007FC000
007FC000
007F8000
003F8000
003F8000
ENDCHAR
STARTCHAR 0057
ENCODING 87
SWIDTH 943 0
DWIDTH 38 0
BBX 38 29 0 0
BITMAP
FC01FE00FC
FC01FE00F8
7E01FE01F8
7E01FE01F8
7E03FF01F8
7E03FF01F0
3E03FF03F0
3F03FF03F0
3F07FF83F0
3F07CF83E0
1F07CF83E0
1F87CF87E0
1F8FCFC7E0
1F8F87C7C0
0F8F87C7C0
0F8F87C7C0
0FDF87EFC0
0FDF03EFC0
0FDF03EF80
07FF03EF80
07FE03FF80
07FE01FF80
07FE01FF00
03FE01FF00
03FC01FF00
03FC00FF00
03FC00FE00
01FC00FE00
01F800FE00
ENDCHAR
STARTCHAR 0058
ENCODING 88
SWIDTH 670 0
DWIDTH 27 0
BBX 26 29 0 0
BITMAP
7F001F80
3F803F80
1F807F00
1FC07E00
0FE0FE00
0FE1FC00
07F1FC00
03FBF800
03FFF000
01FFF000
00FFE000
00FFC000
007FC000
003F8000
003F8000
007FC000
00FFC000
00FFE000
01FFF000
03FBF000
03F3F800
07F1FC00
0FE1FC00
0FE0FE00
1FC07F00
3F807F00
3F803F80
7F001FC0
FE001FC0
ENDCHAR
STARTCHAR 0059
ENCODING 89
SWIDTH 670 0
DWIDTH 27 0
BBX 26 29 0 0
BITMAP
FE000FC0
7F001FC0
7F001F80
3F803F80
1F807F00
1FC07E00
0FE0FE00
07E0FC00
07F1F800
03F1F800
03FBF000
01FFF000
00FFE000
00FFC000
007FC000
003F8000
003F0000
003F0000
003F0000
003F0000
003F0000
003F0000
003F0000
003F0000
003F0000
003F0000
003F0000
003F0000
003F0000
ENDCHAR
STARTCHAR 005A
ENCODING 90
SWIDTH 595 0
DWIDTH 24 0
BBX 24 29 0 0
BITMAP
3FFFFE
3FFFFE
3FFFFE
3FFFFE
3FFFFE
0001FC
0003F8
0007F0
0007F0
000FE0
001FC0
003F80
003F00
007F00
00FE00
01FC00
03F800
03F800
07F000
0FE000
1FC000
3F8000
3F8000
7F0000
FFFFFF
FFFFFF
FFFFFF
FFFFFF
FFFFFF
ENDCHAR
STARTCHAR 005B
ENCODING 91
SWIDTH 322 0
DWIDTH 13 0
BBX 10 37 3 -8
BITMAP
FFC0
FFC0
FFC0
FFC0
FFC0
F800
F800
F800
F800
F800
F800
F800
F800
F800
F800
F800
F800
F800
F800
F800
F800
F800
F800
F800
F800
F800
F800
F800
F800
F800
F800
F800
FFC0
FFC0
FFC0
FFC0
FFC0
ENDCHAR
STARTCHAR 005C
ENCODING 92
SWIDTH 273 0
DWIDTH 11 0
BBX 11 29 0 0
BITMAP
F000
F000
7800
7800
7800
7800
3C00
3C00
3C00
3C00
1E00
1E00
1E00
1E00
1F00
0F00
0F00
0F00
0F80
0780
0780
0780
07C0
03C0
03C0
03C0
03E0
01E0
01E0
ENDCHAR
STARTCHAR 005D
ENCODING 93
SWIDTH 322 0
DWIDTH 13 0
BBX 9 37 1 -8
BITMAP
FF80
FF80
FF80
FF80
FF80
0F80
0F80
0F80
0F80
0F80
0F80
0F80
0F80
0F80
0F80
0F80
0F80
0F80
0F80
0F80
0F80
0F80
0F80
0F80
0F80
0F80
0F80
0F80
0F80
0F80
0F80
0F80
FF80
FF80
FF80
FF80
FF80
ENDCHAR
STARTCHAR 005E
ENCODING 94
SWIDTH 571 0
DWIDTH 23 0
BBX 19 15 2 14
BITMAP
01F000
01F800
03F800
03FC00
07FC00
07FE00
0FBE00
0FBF00
1F9F00
1F1F00
3F0F80
3E0F80
7E07C0
7C07C0
FC07E0
ENDCHAR
STARTCHAR 005F
ENCODING 95
SWIDTH 546 0
DWIDTH 22 0
BBX 22 4 0 -8
BITMAP
FFFFFC
FFFFFC
FFFFFC
FFFFFC
ENDCHAR
STARTCHAR 0060
ENCODING 96
SWIDTH 322 0
DWIDTH 13 0
BBX 8 6 1 23
BITMAP
FC
7E
3E
1F
0F
07
ENDCHAR
STARTCHAR 0061
ENCODING 97
SWIDTH 546 0
DWIDTH 22 0
BBX 20 21 1 0
BITMAP
03FC00
0FFF80
1FFFC0
3FFFC0
3F0FC0
7E07E0
1C07E0
0007E0
000FE0
01FFE0
0FFFE0
3FE7E0
7E07E0
7C07E0
FC07E0
FC0FE0
7E1FE0
7FFFE0
7FFFE0
3FF3E0
0FC3F0
ENDCHAR
STARTCHAR 0062
ENCODING 98
SWIDTH 595 0
DWIDTH 24 0
BBX 20 29 3 0
BITMAP
F80000
F80000
F80000
F80000
F80000
F80000
F80000
F80000
F8FC00
F9FF00
FFFF80
FFFFC0
FF0FE0
FC07E0
FC03E0
F803F0
F803F0
F803F0
F803F0
F803F0
F803F0
F803F0
FC03E0
FE07E0
FF0FE0
FFFFC0
FFFF80
FBFF00
F8FC00
ENDCHAR
STARTCHAR 0063
ENCODING 99
SWIDTH 546 0
DWIDTH 22 0
BBX 19 21 2 0
BITMAP
03FC00
0FFF00
1FFF80
3FFFC0
7F0FC0
7C07E0
FC0700
FC0000
F80000
F80000
F80000
F80000
F80000
FC0380
FC07E0
7E07E0
7F0FC0
3FFFC0
1FFF80
0FFF00
03F800
ENDCHAR
STARTCHAR 0064
ENCODING 100
SWIDTH 595 0
DWIDTH 24 0
BBX 20 29 2 0
BITMAP
0003F0
0003F0
0003F0
0003F0
0003F0
0003F0
0003F0
0003F0
07E3F0
1FFBF0
3FFFF0
7FFFF0
7F0FF0
FE07F0
FC03F0
FC03F0
F803F0
F803F0
F803F0
F803F0
F803F0
FC03F0
FC03F0
FE07F0
7F0FF0
3FFFF0
3FFDF0
0FF9F0
07E1F0
ENDCHAR
STARTCHAR 0065
ENCODING 101
SWIDTH 546 0
DWIDTH 22 0
BBX 20 21 1 0
BITMAP
01F800
07FE00
1FFF80
3FFFC0
3F0FC0
7E07E0
7C03E0
7C03E0
FC03E0
FFFFF0
FFFFF0
FFFFF0
FC0000
7C0000
7C0000
7E0380
3F07E0
3FFFE0
1FFFC0
0FFF00
01FC00
ENDCHAR
STARTCHAR 0066
ENCODING 102
SWIDTH 322 0
DWIDTH 13 0
BBX 14 29 0 0
BITMAP
01FC
07FC
0FFC
0FFC
0FC0
0F80
0F80
0F80
FFF8
FFF8
FFF8
FFF8
0F80
0F80
0F80
0F80
0F80
0F80
0F80
0F80
0F80
0F80
0F80
0F80
0F80
0F80
0F80
0F80
0F80
ENDCHAR
STARTCHAR 0067
ENCODING 103
SWIDTH 595 0
DWIDTH 24 0
BBX 20 29 2 -8
BITMAP
07E1F0
0FF9F0
3FFDF0
3FFFF0
7F0FF0
FE07F0
FC03F0
FC03F0
F803F0
F803F0
F803F0
F803F0
F803F0
FC03F0
FC03F0
FE07F0
7F0FF0
3FFFF0
3FFFF0
1FFBF0
07E3F0
0003F0
0003F0
F003E0
FE07E0
7FFFE0
7FFFC0
1FFF80
07FC00
ENDCHAR
STARTCHAR 0068
ENCODING 104
SWIDTH 595 0
DWIDTH 24 0
BBX 19 29 3 0
BITMAP
F80000
F80000
F80000
F80000
F80000
F80000
F80000
F80000
F87E00
F9FF00
FBFF80
FFFFC0
FF0FC0
FC07E0
FC07E0
FC07E0
F807E0
F807E0
F807E0
F807E0
F807E0
F807E0
F807E0
F807E0
F807E0
F807E0
F807E0
F807E0
F807E0
ENDCHAR
STARTCHAR 0069
ENCODING 105
SWIDTH 273 0
DWIDTH 11 0
BBX 5 29 3 0
BITMAP
F8
F8
F8
F8
00
00
00
00
F8
F8
F8
F8
F8
F8
F8
F8
F8
F8
F8
F8
F8
F8
F8
F8
F8
F8
F8
F8
F8
ENDCHAR
STARTCHAR 006A
ENCODING 106
SWIDTH 273 0
DWIDTH 11 0
BBX 10 37 -2 -8
BITMAP
07C0
07C0
07C0
07C0
0000
0000
0000
0000
07C0
07C0
07C0
07C0
07C0
07C0
07C0
07C0
07C0
07C0
07C0
07C0
07C0
07C0
07C0
07C0
07C0
07C0
07C0
07C0
07C0
07C0
07C0
07C0
0FC0
7FC0
7F80
FF80
FE00
ENDCHAR
STARTCHAR 006B
ENCODING 107
SWIDTH 546 0
DWIDTH 22 0
BBX 19 29 3 0
BITMAP
F80000
F80000
F80000
F80000
F80000
F80000
F80000
F80000
F81FC0
F83F80
F87F00
F87E00
F8FC00
F9F800
FBF000
FFE000
FFF000
FFF000
FFF800
FFF800
FEFC00
FC7E00
F87E00
F83F00
F83F00
F81F80
F80F80
F80FC0
F807E0
ENDCHAR
STARTCHAR 006C
ENCODING 108
SWIDTH 273 0
DWIDTH 11 0
BBX 5 29 3 0
BITMAP
F8
F8
F8
F8
F8
F8
F8
F8
F8
F8
F8
F8
F8
F8
F8
F8
F8
F8
F8
F8
F8
F8
F8
F8
F8
F8
F8
F8
F8
ENDCHAR
STARTCHAR 006D
ENCODING 109
SWIDTH 893 0
DWIDTH 36 0
BBX 31 21 2 0
BITMAP
FC7E07E0
FDFF0FF8
FFFFBFFC
FFFFFFFC
FF0FF8FE
FE07F07E
FC07E07E
FC07E07E
FC07E07E
FC07E07E
FC07C07E
FC07C07E
FC07C07E
FC07C07E
FC07C07E
FC07C07E
FC07C07E
FC07C07E
FC07C07E
FC07C07E
FC07C07E
ENDCHAR
STARTCHAR 006E
ENCODING 110
SWIDTH 595 0
DWIDTH 24 0
BBX 19 21 3 0
BITMAP
F87E00
F9FF80
FFFF80
FFFFC0
FF0FC0
FE07E0
FC07E0
FC07E0
F807E0
F807E0
F807E0
F807E0
F807E0
F807E0
F807E0
F807E0
F807E0
F807E0
F807E0
F807E0
F807E0
ENDCHAR
STARTCHAR 006F
ENCODING 111
SWIDTH 595 0
DWIDTH 24 0
BBX 21 21 2 0
BITMAP
01FC00
0FFF00
1FFF80
3FFFE0
7F0FE0
7E03F0
FC03F0
FC01F8
F801F8
F801F8
F801F8
F801F8
F801F8
FC01F8
FC03F0
7E03F0
7F0FE0
3FFFC0
1FFF80
0FFF00
01FC00
ENDCHAR
STARTCHAR 0070
ENCODING 112
SWIDTH 595 0
DWIDTH 24 0
BBX 20 29 3 -8
BITMAP
F8FC00
FBFF00
FFFF80
FFFFC0
FF0FE0
FE07E0
FC03E0
F803F0
F803F0
F803F0
F803F0
F803F0
F803F0
FC03F0
FC03E0
FE07E0
FF0FE0
FFFFC0
FBFF80
F9FF00
F87C00
F80000
F80000
F80000
F80000
F80000
F80000
F80000
F80000
ENDCHAR
STARTCHAR 0071
ENCODING 113
SWIDTH 595 0
DWIDTH 24 0
BBX 20 29 2 -8
BITMAP
03F1F0
0FF9F0
1FFDF0
3FFFF0
7F0FF0
7E07F0
FC03F0
FC03F0
FC03F0
F801F0
F801F0
F801F0
FC03F0
FC03F0
FC03F0
7E07F0
7F0FF0
3FFFF0
1FFFF0
0FFBF0
03E3F0
0003F0
0003F0
0003F0
0003F0
0003F0
0003F0
0003F0
0003F0
ENDCHAR
STARTCHAR 0072
ENCODING 114
SWIDTH 397 0
DWIDTH 16 0
BBX 13 21 3 0
BITMAP
F9F0
FBF8
FFF8
FFF0
FFF0
FE10
FC00
FC00
F800
F800
F800
F800
F800
F800
F800
F800
F800
F800
F800
F800
F800
ENDCHAR
STARTCHAR 0073
ENCODING 115
SWIDTH 546 0
DWIDTH 22 0
BBX 19 21 1 0
BITMAP
07FC00
1FFF00
3FFF80
7FFFC0
7E0FC0
7C0700
7C0000
7E0000
7FC000
3FFC00
1FFF80
07FFC0
00FFE0
0007E0
0003E0
1C03E0
FE07E0
7FFFC0
3FFFC0
1FFF00
07FC00
ENDCHAR
STARTCHAR 0074
ENCODING 116
SWIDTH 322 0
DWIDTH 13 0
BBX 12 28 1 0
BITMAP
0100
0700
1F00
3F00
3F00
3F00
3F00
FFE0
FFE0
FFE0
FFE0
3F00
3F00
3F00
3F00
3F00
3F00
3F00
3F00
3F00
3F00
3F00
3F00
3F00
3FE0
1FF0
1FF0
07E0
ENDCHAR
STARTCHAR 0075
ENCODING 117
SWIDTH 595 0
DWIDTH 24 0
BBX 19 21 3 0
BITMAP
F807E0
F807E0
F807E0
F807E0
F807E0
F807E0
F807E0
F807E0
F807E0
F807E0
F807E0
F807E0
F807E0
F807E0
F807E0
FC0FE0
FE1FE0
FFFFE0
7FFBE0
3FF3E0
0FC3E0
ENDCHAR
STARTCHAR 0076
ENCODING 118
SWIDTH 546 0
DWIDTH 22 0
BBX 22 21 0 0
BITMAP
FC00FC
7E00F8
7E01F8
3E01F0
3F03F0
3F03F0
1F03E0
1F87E0
0F87C0
0F87C0
0FCFC0
07CF80
07CF80
03FF00
03FF00
03FF00
01FE00
01FE00
00FE00
00FC00
00FC00
ENDCHAR
STARTCHAR 0077
ENCODING 119
SWIDTH 769 0
DWIDTH 31 0
BBX 31 21 0 0
BITMAP
FC07C03E
7C07E07E
7C0FE07C
7E0FE07C
3E0FE0FC
3E0FF0F8
3E1FF0F8
1F1FF0F8
1F1EF1F0
1F3EF9F0
1F3EF9F0
0FBE7BE0
0FBC7BE0
0FFC7FE0
07FC7FE0
07FC3FC0
07F83FC0
03F83FC0
03F81F80
03F01F80
01F01F80
ENDCHAR
STARTCHAR 0078
ENCODING 120
SWIDTH 546 0
DWIDTH 22 0
BBX 21 21 1 0
BITMAP
FE07F0
7E07E0
7F0FC0
3F1FC0
1F9F80
1FFF00
0FFF00
07FE00
03FC00
03FC00
03FC00
03FC00
07FE00
0FFF00
0FFF00
1F9F80
3F9FC0
3F0FC0
7E07E0
FE07F0
FC03F8
ENDCHAR
STARTCHAR 0079
ENCODING 121
SWIDTH 546 0
DWIDTH 22 0
BBX 21 29 0 -8
BITMAP
FC00F8
7E01F8
7E01F8
3E01F0
3F03F0
3F03F0
1F03E0
1F87E0
1F87E0
0F87C0
0FCFC0
07CF80
07CF80
07EF80
03FF00
03FF00
03FF00
01FE00
01FE00
00FE00
00FC00
00FC00
00F800
01F800
03F800
3FF000
3FF000
3FE000
3F8000
ENDCHAR
STARTCHAR 007A
ENCODING 122
SWIDTH 496 0
DWIDTH 20 0
BBX 18 21 1 0
BITMAP
FFFFC0
FFFFC0
FFFFC0
FFFFC0
003F80
007F00
00FF00
01FE00
01FC00
03F800
07F000
0FF000
1FE000
3FC000
3F8000
7F0000
FE0000
FFFFC0
FFFFC0
FFFFC0
FFFFC0
ENDCHAR
STARTCHAR 007B
ENCODING 123
SWIDTH 397 0
DWIDTH 16 0
BBX 14 37 1 -8
BITMAP
00FC
03FC
03FC
07FC
07FC
07C0
07C0
0FC0
0FC0
0FC0
0F80
0F80
0F80
0F80
0F80
1F80
3F00
FF00
FE00
FE00
FF00
3F00
0F80
0F80
0F80
0F80
0F80
0F80
0FC0
0FC0
0FC0
07C0
07FC
07FC
07FC
03FC
00FC
ENDCHAR
STARTCHAR 007C
ENCODING 124
SWIDTH 273 0
DWIDTH 11 0
BBX 5 38 3 -9
BITMAP
F8
F8
F8
F8
F8
F8
F8
F8
F8
F8
F8
F8
F8
F8
F8
F8
F8
F8
F8
F8
F8
F8
F8
F8
F8
F8
F8
F8
F8
F8
F8
F8
F8
F8
F8
F8
F8
F8
ENDCHAR
STARTCHAR 007D
ENCODING 125
SWIDTH 397 0
DWIDTH 16 0
BBX 13 37 1 -8
BITMAP
F800
FE00
FF00
FF00
FF80
1F80
0F80
0F80
0F80
0F80
0F80
0F80
0F80
0F80
0F80
07C0
07E0
03F8
01F8
01F8
03F8
07E0
0FC0
0F80
0F80
0F80
0F80
0F80
0F80
0F80
0F80
1F80
FF80
FF00
FF00
FE00
F800
ENDCHAR
STARTCHAR 007E
ENCODING 126
SWIDTH 571 0
DWIDTH 23 0
BBX 21 8 1 10
BITMAP
0F8000
3FE018
7FFC38
FFFFF8
FFFFF8
E0FFF8
C03FE0
8007C0
ENDCHAR
STARTCHAR 00A0
ENCODING 160
SWIDTH 273 0
DWIDTH 11 0
BBX 0 0 0 0
BITMAP
ENDCHAR
STARTCHAR 00A1
ENCODING 161
SWIDTH 322 0
DWIDTH 13 0
BBX 6 29 4 -8
BITMAP
FC
FC
FC
FC
FC
FC
00
00
70
70
78
78
78
78
78
F8
F8
F8
F8
F8
FC
FC
FC
FC
FC
FC
FC
FC
FC
ENDCHAR
STARTCHAR 00A2
ENCODING 162
SWIDTH 546 0
DWIDTH 22 0
BBX 19 37 2 -8
BITMAP
000200
000700
000700
000600
000E00
000E00
000E00
000C00
03FC00
0FFF00
1FFF80
3FFFC0
7F3FC0
7C37E0
FC3700
FC7000
F87000
F86000
F8E000
F8E000
F8C000
FDC380
FDC7E0
7F87E0
7F8FC0
3FFFC0
3FFF80
0FFF00
07F800
060000
060000
0E0000
0E0000
0C0000
1C0000
1C0000
0C0000
ENDCHAR
STARTCHAR 00A3
ENCODING 163
SWIDTH 546 0
DWIDTH 22 0
BBX 21 29 0 0
BITMAP
00FE00
03FF80
07FFC0
0FFFE0
1FC7F0
1F83F0
1F01F0
1F01E0
1F0000
1F0000
1F0000
1F0000
1F8000
FFFE00
FFFE00
FFFE00
FFFE00
0FC000
0FC000
0FC000
0F8000
1F0000
1F0000
3FF000
FFFC30
7FFFF0
7FFFF8
383FF8
2007F0
ENDCHAR
STARTCHAR 00A4
ENCODING 164
SWIDTH 546 0
DWIDTH 22 0
BBX 20 21 1 2
BITMAP
100080
3000C0
79F9E0
FFFFF0
7FFFF0
3FFFC0
3F0FC0
3E07C0
3E03C0
7C03E0
7C03E0
7C03E0
3E03C0
3E07C0
3F0FC0
3FFFC0
7FFFF0
FFFFF0
79F9E0
3800C0
100080
ENDCHAR
STARTCHAR 00A5
ENCODING 165
SWIDTH 546 0
DWIDTH 22 0
BBX 22 29 0 0
BITMAP
FC00FC
7E01F8
7E01F8
3F03F0
3F03F0
1F07E0
1F87E0
0F87C0
0FCFC0
07CF80
07FF80
03FF00
7FFFF8
7FFFF8
7FFFF8
7FFFF8
00FC00
00FC00
7FFFF8
7FFFF8
7FFFF8
7FFFF8
00FC00
00FC00
00FC00
00FC00
00FC00
00FC00
00FC00
ENDCHAR
STARTCHAR 00A6
ENCODING 166
SWIDTH 273 0
DWIDTH 11 0
BBX 5 38 3 -9
BITMAP
F8
F8
F8
F8
F8
F8
F8
F8
F8
F8
F8
F8
F8
F8
F8
F8
00
00
00
00
00
00
00
F8
F8
F8
F8
F8
F8
F8
F8
F8
F8
F8
F8
F8
F8
F8
ENDCHAR
STARTCHAR 00A7
ENCODING 167
SWIDTH 546 0
DWIDTH 22 0
BBX 20 37 1 -8
BITMAP
03F800
0FFE00
1FFF00
3FFF80
3F0FC0
3E07C0
3E07C0
3F0000
3F8000
1FE000
0FF000
3FFC00
7FFE00
7CFF80
F87FC0
F83FE0
F80FE0
FC07F0
FE03F0
7F01F0
7FC1F0
3FE1F0
1FFBE0
0FFFC0
03FF80
01FF00
007F80
003FC0
000FC0
0007E0
7E07E0
3E07E0
3F0FC0
1FFFC0
1FFF80
07FF00
01FC00
ENDCHAR
STARTCHAR 00A8
ENCODING 168
SWIDTH 322 0
DWIDTH 13 0
BBX 13 4 0 25
BITMAP
F8F8
F8F8
F8F8
F8F8
ENDCHAR
STARTCHAR 00A9
ENCODING 169
SWIDTH 720 0
DWIDTH 29 0
BBX 30 29 0 0
BITMAP
001FE000
00FFF800
03FFFE00
07E03F80
0F8007C0
1E0003E0
3C0001E0
380FC0F0
783FE070
707FF038
F0F87838
E0F03838
E0E0381C
E1E0001C
E1E0001C
E1E0001C
E0E0381C
E0F03838
F0F87838
707FF038
783FE070
380F80F0
3C0001E0
1E0003E0
0F8007C0
07E03F80
03FFFE00
00FFF800
001FE000
ENDCHAR
STARTCHAR 00AA
ENCODING 170
SWIDTH 372 0
DWIDTH 15 0
BBX 13 15 1 14
BITMAP
1FC0
3FE0
7FF0
78F0
F0F0
00F0
1FF0
7FF0
FCF0
F0F0
F0F0
F1F0
FFF0
7FF0
3E78
ENDCHAR
STARTCHAR 00AB
ENCODING 171
SWIDTH 546 0
DWIDTH 22 0
BBX 18 18 2 1
BITMAP
03C7C0
07C780
0F8F80
0F1F00
1F1E00
3E3E00
3E7C00
7CFC00
FCF800
FCF800
7C7C00
3E7C00
3E3E00
1F1F00
0F1F00
0F8F80
07C780
03C7C0
ENDCHAR
STARTCHAR 00AC
ENCODING 172
SWIDTH 571 0
DWIDTH 23 0
BBX 20 14 2 7
BITMAP
FFFFF0
FFFFF0
FFFFF0
FFFFF0
FFFFF0
0001F0
0001F0
0001F0
0001F0
0001F0
0001F0
0001F0
0001F0
0001F0
ENDCHAR
STARTCHAR 00AD
ENCODING 173
SWIDTH 322 0
DWIDTH 13 0
BBX 11 5 2 8
BITMAP
FFE0
FFE0
FFE0
FFE0
FFE0
ENDCHAR
STARTCHAR 00AE
ENCODING 174
SWIDTH 720 0
DWIDTH 29 0
BBX 30 29 0 0
BITMAP
001FE000
00FFF800
03FFFE00
07E03F80
0F8007C0
1E0003E0
3C0001E0
38FFC0F0
78FFF070
70FFF838
F0E07838
E0E07838
E0E0781C
E0FFF01C
E0FFE01C
E0FF801C
E0E3C01C
E0E1E038
F0E0F038
70E0F038
78E07870
38E03CF0
3C0001E0
1E0003E0
0F8007C0
07E03F80
03FFFE00
00FFF800
001FE000
ENDCHAR
STARTCHAR 00AF
ENCODING 175
SWIDTH 546 0
DWIDTH 22 0
BBX 22 4 0 30
BITMAP
FFFFFC
FFFFFC
FFFFFC
FFFFFC
ENDCHAR
STARTCHAR 00B0
ENCODING 176
SWIDTH 397 0
DWIDTH 16 0
BBX 12 12 2 17
BITMAP
1F00
3FC0
7FE0
F0F0
E0F0
E070
E070
E0F0
F0F0
7FE0
3FC0
1F00
ENDCHAR
STARTCHAR 00B1
ENCODING 177
SWIDTH 546 0
DWIDTH 22 0
BBX 20 26 1 0
BITMAP
01F000
01F000
01F000
01F000
01F000
01F000
01F000
FFFFF0
FFFFF0
FFFFF0
FFFFF0
FFFFF0
01F000
01F000
01F000
01F000
01F000
01F000
01F000
000000
000000
FFFFF0
FFFFF0
FFFFF0
FFFFF0
FFFFF0
ENDCHAR
STARTCHAR 00B2
ENCODING 178
SWIDTH 322 0
DWIDTH 13 0
BBX 11 15 1 14
BITMAP
1F80
7FC0
FFE0
F1E0
F0E0
01E0
01E0
07C0
0F80
1F00
3E00
7C00
FFE0
FFE0
FFE0
ENDCHAR
STARTCHAR 00B3
ENCODING 179
SWIDTH 322 0
DWIDTH 13 0
BBX 11 15 1 14
BITMAP
1F00
7FC0
7FC0
F1E0
F1E0
0FC0
0F80
0FE0
01E0
00E0
E0E0
F1E0
FFE0
7FC0
1F00
ENDCHAR
STARTCHAR 00B4
ENCODING 180
SWIDTH 322 0
DWIDTH 13 0
BBX 8 6 4 23
BITMAP
3F
3E
7C
78
F0
F0
ENDCHAR
STARTCHAR 00B5
ENCODING 181
SWIDTH 571 0
DWIDTH 23 0
BBX 19 29 2 -8
BITMAP
FC07E0
FC07E0
FC07E0
FC07E0
FC07E0
FC07E0
FC07E0
FC07E0
FC07E0
FC07E0
FC07E0
FC07E0
FC07E0
FC07E0
FC07E0
FE0FE0
FF1FE0
FFFFE0
FFFFE0
FFFBE0
FCF3E0
FC0000
FC0000
FC0000
FC0000
FC0000
FC0000
FC0000
FC0000
ENDCHAR
STARTCHAR 00B6
ENCODING 182
SWIDTH 546 0
DWIDTH 22 0
BBX 22 36 0 -7
BITMAP
07FFFC
1FFFFC
3FFFFC
7FFFFC
7FF1F0
FFF1F0
FFF1F0
FFF1F0
FFF1F0
FFF1F0
FFF1F0
7FF1F0
7FF1F0
3FF1F0
1FF1F0
07F1F0
00F1F0
00F1F0
00F1F0
00F1F0
00F1F0
00F1F0
00F1F0
00F1F0
00F1F0
00F1F0
00F1F0
00F1F0
00F1F0
00F1F0
00F1F0
00F1F0
00F1F0
00F1F0
00F1F0
00F1F0
ENDCHAR
STARTCHAR 00B7
ENCODING 183
SWIDTH 273 0
DWIDTH 11 0
BBX 5 6 3 11
BITMAP
F8
F8
F8
F8
F8
F8
ENDCHAR
STARTCHAR 00B8
ENCODING 184
SWIDTH 322 0
DWIDTH 13 0
BBX 10 7 1 -7
BITMAP
3F00
3FC0
03C0
01C0
03C0
FF80
FE00
ENDCHAR
STARTCHAR 00B9
ENCODING 185
SWIDTH 322 0
DWIDTH 13 0
BBX 8 15 2 14
BITMAP
0F
1F
7F
FF
EF
8F
0F
0F
0F
0F
0F
0F
0F
0F
0F
ENDCHAR
STARTCHAR 00BA
ENCODING 186
SWIDTH 372 0
DWIDTH 15 0
BBX 13 15 1 14
BITMAP
0F80
3FE0
7FF0
F8F0
F0F8
F078
F078
F078
F078
F078
F0F8
F8F0
7FF0
3FE0
1F80
ENDCHAR
STARTCHAR 00BB
ENCODING 187
SWIDTH 546 0
DWIDTH 22 0
BBX 18 18 2 1
BITMAP
F8F000
787800
7C7C00
3E3C00
1E3E00
1F1F00
0F9F00
0F8F80
07CFC0
07C7C0
0FCF80
0F9F80
1F1F00
1F3E00
3E3C00
7C7C00
787800
F8F000
ENDCHAR
STARTCHAR 00BC
ENCODING 188
SWIDTH 819 0
DWIDTH 33 0
BBX 31 29 2 0
BITMAP
0F000700
1F000700
7F000E00
FF000E00
EF001C00
8F003C00
0F003800
0F007000
0F007000
0F00E000
0F01E000
0F01C000
0F038000
0F038000
0F070078
00070078
000E00F8
001C01F8
001C03F8
003807F8
00380F78
00700E78
00F01C78
00E03FFE
01C03FFE
01C03FFE
03800078
03800078
07000078
ENDCHAR
STARTCHAR 00BD
ENCODING 189
SWIDTH 819 0
DWIDTH 33 0
BBX 30 29 2 0
BITMAP
0F000700
1F000700
7F000E00
FF000E00
EF001C00
8F003C00
0F003800
0F007000
0F007000
0F00E000
0F01E000
0F01C000
0F038000
0F038000
0F0703F0
00070FF8
000E0FFC
001C1E3C
001C1E1C
0038003C
0038003C
007000F8
00F001F0
00E003E0
01C007C0
01C00F80
03801FFC
03801FFC
07001FFC
ENDCHAR
STARTCHAR 00BE
ENCODING 190
SWIDTH 819 0
DWIDTH 33 0
BBX 32 29 1 0
BITMAP
1F0001C0
7FC00380
7FC00380
F1E00700
F1E00F00
0FC00E00
0F801C00
0FE01C00
01E03800
00E03800
E0E07000
F1E0E000
FFE0E000
7FC1C000
1F01C03C
0003803C
0007807C
000700FC
000E01FC
000E03FC
001C07BC
003C073C
00380E3C
00701FFF
00701FFF
00E01FFF
00E0003C
01C0003C
03C0003C
ENDCHAR
STARTCHAR 00BF
ENCODING 191
SWIDTH 595 0
DWIDTH 24 0
BBX 20 29 2 -8
BITMAP
01F800
01F800
01F800
01F800
01F800
01F800
000000
000000
00F800
00F800
00F800
01F800
03F000
07F000
0FE000
1FC000
3F8000
7F0000
FC0000
FC0000
F80000
F801F0
FC01F0
FC03F0
7F07E0
3FFFE0
1FFFC0
0FFF00
01FC00
ENDCHAR
STARTCHAR 00C0
ENCODING 192
SWIDTH 720 0
DWIDTH 29 0
BBX 29 37 0 0
BITMAP
007E0000
003E0000
001F0000
000F0000
00078000
00078000
00000000
00000000
001F8000
001FC000
003FC000
003FE000
007FE000
007FE000
007DF000
00F9F000
00F9F800
01F8F800
01F0F800
01F0FC00
03F07C00
03E07E00
03E07E00
07E03E00
07C03F00
0FFFFF00
0FFFFF80
0FFFFF80
1FFFFF80
1FFFFFC0
3F000FC0
3F000FE0
3F0007E0
7E0007E0
7E0003F0
7E0003F0
FC0003F8
ENDCHAR
STARTCHAR 00C1
ENCODING 193
SWIDTH 720 0
DWIDTH 29 0
BBX 29 37 0 0
BITMAP
0007E000
0007C000
000F8000
000F8000
001F0000
001E0000
00000000
00000000
001F8000
001FC000
003FC000
003FE000
007FE000
007FE000
007DF000
00F9F000
00F9F800
01F8F800
01F0F800
01F0FC00
03F07C00
03E07E00
03E07E00
07E03E00
07C03F00
0FFFFF00
0FFFFF80
0FFFFF80
1FFFFF80
1FFFFFC0
3F000FC0
3F000FE0
3F0007E0
7E0007E0
7E0003F0
7E0003F0
FC0003F8
ENDCHAR
STARTCHAR 00C2
ENCODING 194
SWIDTH 720 0
DWIDTH 29 0
BBX 29 37 0 0
BITMAP
001F8000
001FC000
003FC000
007FE000
0079F000
00F0F000
00000000
00000000
001F8000
001FC000
003FC000
003FE000
007FE000
007FE000
007DF000
00F9F000
00F9F800
01F8F800
01F0F800
01F0FC00
03F07C00
03E07E00
03E07E00
07E03E00
07C03F00
0FFFFF00
0FFFFF80
0FFFFF80
1FFFFF80
1FFFFFC0
3F000FC0
3F000FE0
3F0007E0
7E0007E0
7E0003F0
7E0003F0
FC0003F8
ENDCHAR
STARTCHAR 00C3
ENCODING 195
SWIDTH 720 0
DWIDTH 29 0
BBX 29 36 0 0
BITMAP
00783800
00FE3800
01FFF000
01C7F000
01C1E000
00000000
00000000
001F8000
001FC000
003FC000
003FE000
007FE000
007FE000
007DF000
00F9F000
00F9F800
01F8F800
01F0F800
01F0FC00
03F07C00
03E07E00
03E07E00
07E03E00
07C03F00
0FFFFF00
0FFFFF80
0FFFFF80
1FFFFF80
1FFFFFC0
3F000FC0
3F000FE0
3F0007E0
7E0007E0
7E0003F0
7E0003F0
FC0003F8
ENDCHAR
STARTCHAR 00C4
ENCODING 196
SWIDTH 720 0
DWIDTH 29 0
BBX 29 35 0 0
BITMAP
01F0F800
01F0F800
01F0F800
01F0F800
00000000
00000000
001F8000
001FC000
003FC000
003FE000
007FE000
007FE000
007DF000
00F9F000
00F9F800
01F8F800
01F0F800
01F0FC00
03F07C00
03E07E00
03E07E00
07E03E00
07C03F00
0FFFFF00
0FFFFF80
0FFFFF80
1FFFFF80
1FFFFFC0
3F000FC0
3F000FE0
3F0007E0
7E0007E0
7E0003F0
7E0003F0
FC0003F8
ENDCHAR
STARTCHAR 00C5
ENCODING 197
SWIDTH 720 0
DWIDTH 29 0
BBX 29 35 0 0
BITMAP
000F0000
001F8000
0019C000
0030C000
0030C000
0019C000
001F8000
001FC000
003FC000
003FE000
007FE000
007FE000
007DF000
00F9F000
00F9F800
01F8F800
01F0F800
01F0FC00
03F07C00
03E07E00
03E07E00
07E03E00
07C03F00
0FFFFF00
0FFFFF80
0FFFFF80
1FFFFF80
1FFFFFC0
3F000FC0
3F000FE0
3F0007E0
7E0007E0
7E0003F0
7E0003F0
FC0003F8
ENDCHAR
STARTCHAR 00C6
ENCODING 198
SWIDTH 993 0
DWIDTH 40 0
BBX 39 29 -1 0
BITMAP
000FFFFFFE
000FFFFFFE
000FFFFFFE
001FFFFFFE
001F1FFFFE
003F1F0000
003E1F0000
007E1F0000
007C1F0000
00FC1F0000
00FC1F0000
01F81FFFF8
01F81FFFF8
03F01FFFF8
03F01FFFF8
03E01FFFF8
07E01F0000
07FFFF0000
0FFFFF0000
0FFFFF0000
1FFFFF0000
1FFFFF0000
3F001F0000
3F001F0000
7F001FFFFE
7E001FFFFE
FE001FFFFE
FC001FFFFE
FC001FFFFE
ENDCHAR
STARTCHAR 00C7
ENCODING 199
SWIDTH 720 0
DWIDTH 29 0
BBX 25 36 2 -7
BITMAP
007F8000
01FFE000
07FFF800
0FFFFC00
1FFFFE00
3FC1FE00
3F807F00
7F003F00
7E001F80
FE001C00
FC000000
FC000000
FC000000
FC000000
FC000000
FC000000
FC000000
FC000000
FC001800
FE001E00
7E003F80
7F003F00
3F807F00
3FC1FE00
1FFFFE00
0FFFFC00
07FFF800
01FFE000
007F8000
003F0000
007F8000
0007C000
0003C000
00078000
01FF8000
01FE0000
ENDCHAR
STARTCHAR 00C8
ENCODING 200
SWIDTH 670 0
DWIDTH 27 0
BBX 22 37 3 0
BITMAP
07E000
03F000
01F000
00F800
007800
003C00
000000
000000
FFFFF8
FFFFF8
FFFFF8
FFFFF8
FFFFF8
FC0000
FC0000
FC0000
FC0000
FC0000
FC0000
FFFFF0
FFFFF0
FFFFF0
FFFFF0
FFFFF0
FC0000
FC0000
FC0000
FC0000
FC0000
FC0000
FC0000
FC0000
FFFFFC
FFFFFC
FFFFFC
FFFFFC
FFFFFC
ENDCHAR
STARTCHAR 00C9
ENCODING 201
SWIDTH 670 0
DWIDTH 27 0
BBX 22 37 3 0
BITMAP
003F00
007E00
007C00
00F800
00F000
01E000
000000
000000
FFFFF8
FFFFF8
FFFFF8
FFFFF8
FFFFF8
FC0000
FC0000
FC0000
FC0000
FC0000
FC0000
FFFFF0
FFFFF0
FFFFF0
FFFFF0
FFFFF0
FC0000
FC0000
FC0000
FC0000
FC0000
FC0000
FC0000
FC0000
FFFFFC
FFFFFC
FFFFFC
FFFFFC
FFFFFC
ENDCHAR
STARTCHAR 00CA
ENCODING 202
SWIDTH 670 0
DWIDTH 27 0
BBX 22 37 3 0
BITMAP
01F800
01FC00
03FC00
07DE00
079F00
0F0F00
000000
000000
FFFFF8
FFFFF8
FFFFF8
FFFFF8
FFFFF8
FC0000
FC0000
FC0000
FC0000
FC0000
FC0000
FFFFF0
FFFFF0
FFFFF0
FFFFF0
FFFFF0
FC0000
FC0000
FC0000
FC0000
FC0000
FC0000
FC0000
FC0000
FFFFFC
FFFFFC
FFFFFC
FFFFFC
FFFFFC
ENDCHAR
STARTCHAR 00CB
ENCODING 203
SWIDTH 670 0
DWIDTH 27 0
BBX 22 35 3 0
BITMAP
0F8F80
0F8F80
0F8F80
0F8F80
000000
000000
FFFFF8
FFFFF8
FFFFF8
FFFFF8
FFFFF8
FC0000
FC0000
FC0000
FC0000
FC0000
FC0000
FFFFF0
FFFFF0
FFFFF0
FFFFF0
FFFFF0
FC0000
FC0000
FC0000
FC0000
FC0000
FC0000
FC0000
FC0000
FFFFFC
FFFFFC
FFFFFC
FFFFFC
FFFFFC
ENDCHAR
STARTCHAR 00CC
ENCODING 204
SWIDTH 273 0
DWIDTH 11 0
BBX 9 37 0 0
BITMAP
FC00
7E00
3E00
1F00
0F00
0700
0000
0000
1F80
1F80
1F80
1F80
1F80
1F80
1F80
1F80
1F80
1F80
1F80
1F80
1F80
1F80
1F80
1F80
1F80
1F80
1F80
1F80
1F80
1F80
1F80
1F80
1F80
1F80
1F80
1F80
1F80
ENDCHAR
STARTCHAR 00CD
ENCODING 205
SWIDTH 273 0
DWIDTH 11 0
BBX 8 37 2 0
BITMAP
1F
3F
3E
7C
78
F0
00
00
7E
7E
7E
7E
7E
7E
7E
7E
7E
7E
7E
7E
7E
7E
7E
7E
7E
7E
7E
7E
7E
7E
7E
7E
7E
7E
7E
7E
7E
ENDCHAR
STARTCHAR 00CE
ENCODING 206
SWIDTH 273 0
DWIDTH 11 0
BBX 12 37 0 0
BITMAP
1F80
3F80
3FC0
7BE0
F9E0
F0F0
0000
0000
1F80
1F80
1F80
1F80
1F80
1F80
1F80
1F80
1F80
1F80
1F80
1F80
1F80
1F80
1F80
1F80
1F80
1F80
1F80
1F80
1F80
1F80
1F80
1F80
1F80
1F80
1F80
1F80
1F80
ENDCHAR
STARTCHAR 00CF
ENCODING 207
SWIDTH 273 0
DWIDTH 11 0
BBX 13 35 -1 0
BITMAP
F878
F878
F878
F878
0000
0000
0FC0
0FC0
0FC0
0FC0
0FC0
0FC0
0FC0
0FC0
0FC0
0FC0
0FC0
0FC0
0FC0
0FC0
0FC0
0FC0
0FC0
0FC0
0FC0
0FC0
0FC0
0FC0
0FC0
0FC0
0FC0
0FC0
0FC0
0FC0
0FC0
ENDCHAR
STARTCHAR 00D0
ENCODING 208
SWIDTH 720 0
DWIDTH 29 0
BBX 27 29 0 0
BITMAP
1FFFE000
1FFFF800
1FFFFC00
1FFFFE00
1FFFFF00
1F807F80
1F801F80
1F801FC0
1F800FC0
1F800FC0
1F8007E0
1F8007E0
FFFE07E0
FFFE07E0
FFFE07E0
FFFE07E0
1F8007E0
1F8007E0
1F8007E0
1F800FC0
1F800FC0
1F800FC0
1F801F80
1F807F80
1FFFFF00
1FFFFF00
1FFFFE00
1FFFF800
1FFFC000
ENDCHAR
STARTCHAR 00D1
ENCODING 209
SWIDTH 720 0
DWIDTH 29 0
BBX 23 36 3 0
BITMAP
03C0C0
07F1C0
07FFC0
073F80
060700
000000
000000
FC007E
FC007E
FE007E
FF007E
FF007E
FF807E
FF807E
FFC07E
FFC07E
FBE07E
FBF07E
F9F07E
F9F87E
F8F87E
F87C7E
F87C7E
F83E7E
F83F7E
F81F7E
F81FFE
F80FFE
F807FE
F807FE
F803FE
F803FE
F801FE
F801FE
F800FE
F8007E
ENDCHAR
STARTCHAR 00D2
ENCODING 210
SWIDTH 769 0
DWIDTH 31 0
BBX 28 37 2 0
BITMAP
00FC0000
007E0000
003E0000
001F0000
000F0000
00070000
00000000
00000000
007FC000
01FFF800
07FFFC00
0FFFFE00
1FFFFF00
3FE07F80
3F803FC0
7F001FC0
7E000FE0
FE0007E0
FC0007E0
FC0007E0
FC0007E0
FC0007E0
FC0003F0
FC0007F0
FC0007E0
FC0007E0
FC0007E0
FE0007E0
7E000FE0
7F001FC0
7F803FC0
3FE0FF80
1FFFFF00
0FFFFE00
07FFFC00
01FFF800
007FC000
ENDCHAR
STARTCHAR 00D3
ENCODING 211
SWIDTH 769 0
DWIDTH 31 0
BBX 28 37 2 0
BITMAP
0007C000
000FC000
000F8000
001F0000
001E0000
003C0000
00000000
00000000
007FC000
01FFF800
07FFFC00
0FFFFE00
1FFFFF00
3FE07F80
3F803FC0
7F001FC0
7E000FE0
FE0007E0
FC0007E0
FC0007E0
FC0007E0
FC0007E0
FC0003F0
FC0007F0
FC0007E0
FC0007E0
FC0007E0
FE0007E0
7E000FE0
7F001FC0
7F803FC0
3FE0FF80
1FFFFF00
0FFFFE00
07FFFC00
01FFF800
007FC000
ENDCHAR
STARTCHAR 00D4
ENCODING 212
SWIDTH 769 0
DWIDTH 31 0
BBX 28 37 2 0
BITMAP
001F0000
003F8000
007FC000
00FBC000
00F3E000
01F1F000
00000000
00000000
007FC000
01FFF800
07FFFC00
0FFFFE00
1FFFFF00
3FE07F80
3F803FC0
7F001FC0
7E000FE0
FE0007E0
FC0007E0
FC0007E0
FC0007E0
FC0007E0
FC0003F0
FC0007F0
FC0007E0
FC0007E0
FC0007E0
FE0007E0
7E000FE0
7F001FC0
7F803FC0
3FE0FF80
1FFFFF00
0FFFFE00
07FFFC00
01FFF800
007FC000
ENDCHAR
STARTCHAR 00D5
ENCODING 213
SWIDTH 769 0
DWIDTH 31 0
BBX 28 36 2 0
BITMAP
00F07000
01FC7000
01FFF000
038FE000
0383C000
00000000
00000000
007FC000
01FFF800
07FFFC00
0FFFFE00
1FFFFF00
3FE07F80
3F803FC0
7F001FC0
7E000FE0
FE0007E0
FC0007E0
FC0007E0
FC0007E0
FC0007E0
FC0003F0
FC0007F0
FC0007E0
FC0007E0
FC0007E0
FE0007E0
7E000FE0
7F001FC0
7F803FC0
3FE0FF80
1FFFFF00
0FFFFE00
07FFFC00
01FFF800
007FC000
ENDCHAR
STARTCHAR 00D6
ENCODING 214
SWIDTH 769 0
DWIDTH 31 0
BBX 28 35 2 0
BITMAP
01E1F000
01E1F000
01E1F000
01E1F000
00000000
00000000
007FC000
01FFF800
07FFFC00
0FFFFE00
1FFFFF00
3FE07F80
3F803FC0
7F001FC0
7E000FE0
FE0007E0
FC0007E0
FC0007E0
FC0007E0
FC0007E0
FC0003F0
FC0007F0
FC0007E0
FC0007E0
FC0007E0
FE0007E0
7E000FE0
7F001FC0
7F803FC0
3FE0FF80
1FFFFF00
0FFFFE00
07FFFC00
01FFF800
007FC000
ENDCHAR
STARTCHAR 00D7
ENCODING 215
SWIDTH 571 0
DWIDTH 23 0
BBX 19 19 2 5
BITMAP
100100
380380
7C07C0
FE0FE0
7F1FC0
3FBF80
1FFF00
0FFE00
07FC00
03F800
07FC00
0FFE00
1FFF00
3FBF80
7F1FC0
FE0FE0
7C07C0
380380
100100
ENDCHAR
STARTCHAR 00D8
ENCODING 216
SWIDTH 769 0
DWIDTH 31 0
BBX 29 31 1 -1
BITMAP
00000070
003FE078
00FFFCF0
03FFFFE0
07FFFFE0
0FFFFFC0
1FF03FC0
1FC00FE0
3F801FE0
3F003FF0
7F007FF0
7E00FBF0
7E01F3F0
7E03E3F0
7E07C3F0
7E0F83F8
7E1F03F0
7E3E03F0
7E3C03F0
7E7803F0
7EF003F0
3FF007F0
3FE00FE0
3FC01FE0
1FF07FC0
0FFFFF80
1FFFFF00
3FFFFE00
7DFFF800
F83FE000
30000000
ENDCHAR
STARTCHAR 00D9
ENCODING 217
SWIDTH 720 0
DWIDTH 29 0
BBX 23 37 3 0
BITMAP
03F000
01F000
00F800
007800
003C00
003C00
000000
000000
FC007E
FC007E
FC007E
FC007E
FC007E
FC007E
FC007E
FC007E
FC007E
FC007E
FC007E
FC007E
FC007E
FC007E
FC007E
FC007E
FC007E
FC007E
FC007E
FC007E
FC007C
FC00FC
FE00FC
7F83FC
7FFFF8
3FFFF8
1FFFF0
0FFFC0
01FF00
ENDCHAR
STARTCHAR 00DA
ENCODING 218
SWIDTH 720 0
DWIDTH 29 0
BBX 23 37 3 0
BITMAP
003F00
003E00
007C00
007800
00F800
00F000
000000
000000
FC007E
FC007E
FC007E
FC007E
FC007E
FC007E
FC007E
FC007E
FC007E
FC007E
FC007E
FC007E
FC007E
FC007E
FC007E
FC007E
FC007E
FC007E
FC007E
FC007E
FC007C
FC00FC
FE00FC
7F83FC
7FFFF8
3FFFF8
1FFFF0
0FFFC0
01FF00
ENDCHAR
STARTCHAR 00DB
ENCODING 219
SWIDTH 720 0
DWIDTH 29 0
BBX 23 37 3 0
BITMAP
007C00
00FE00
01FF00
01EF00
03C780
07C7C0
000000
000000
FC007E
FC007E
FC007E
FC007E
FC007E
FC007E
FC007E
FC007E
FC007E
FC007E
FC007E
FC007E
FC007E
FC007E
FC007E
FC007E
FC007E
FC007E
FC007E
FC007E
FC007C
FC00FC
FE00FC
7F83FC
7FFFF8
3FFFF8
1FFFF0
0FFFC0
01FF00
ENDCHAR
STARTCHAR 00DC
ENCODING 220
SWIDTH 720 0
DWIDTH 29 0
BBX 23 35 3 0
BITMAP
07C7C0
07C7C0
07C7C0
07C7C0
000000
000000
FC007E
FC007E
FC007E
FC007E
FC007E
FC007E
FC007E
FC007E
FC007E
FC007E
FC007E
FC007E
FC007E
FC007E
FC007E
FC007E
FC007E
FC007E
FC007E
FC007E
FC007C
FC00FC
FE00FC
7F83FC
7FFFF8
3FFFF8
1FFFF0
0FFFC0
01FF00
ENDCHAR
STARTCHAR 00DD
ENCODING 221
SWIDTH 670 0
DWIDTH 27 0
BBX 26 37 0 0
BITMAP
000FC000
000F8000
001F0000
001E0000
003C0000
003C0000
00000000
00000000
FE000FC0
7F001FC0
7F001F80
3F803F80
1F807F00
1FC07E00
0FE0FE00
07E0FC00
07F1F800
03F1F800
03FBF000
01FFF000
00FFE000
00FFC000
007FC000
003F8000
003F0000
003F0000
003F0000
003F0000
003F0000
003F0000
003F0000
003F0000
003F0000
003F0000
003F0000
003F0000
003F0000
ENDCHAR
STARTCHAR 00DE
ENCODING 222
SWIDTH 670 0
DWIDTH 27 0
BBX 22 29 3 0
BITMAP
FC0000
FC0000
FC0000
FC0000
FC0000
FFFF00
FFFFC0
FFFFE0
FFFFF0
FFFFF8
FC03F8
FC01FC
FC00FC
FC00FC
FC00FC
FC00FC
FC01FC
FC01F8
FC03F8
FFFFF8
FFFFF0
FFFFE0
FFFFC0
FFFF00
FC0000
FC0000
FC0000
FC0000
FC0000
ENDCHAR
STARTCHAR 00DF
ENCODING 223
SWIDTH 595 0
DWIDTH 24 0
BBX 20 29 3 0
BITMAP
07F000
1FFC00
3FFE00
7FFF00
FE3F00
FC3F00
F81F00
F83F00
F83F00
F87E00
F87E00
F8FC00
F8FC00
F8FC00
F8FE00
F87F00
F87F80
F83FC0
F81FE0
F80FE0
F807F0
F803F0
F803F0
F823F0
F8F3F0
F9FFE0
F8FFE0
F87FC0
F81F00
ENDCHAR
STARTCHAR 00E0
ENCODING 224
SWIDTH 546 0
DWIDTH 22 0
BBX 20 29 1 0
BITMAP
07C000
07E000
03E000
01F000
00F000
007800
000000
000000
03FC00
0FFF80
1FFFC0
3FFFC0
3F0FC0
7E07E0
1C07E0
0007E0
000FE0
01FFE0
0FFFE0
3FE7E0
7E07E0
7C07E0
FC07E0
FC0FE0
7E1FE0
7FFFE0
7FFFE0
3FF3E0
0FC3F0
ENDCHAR
STARTCHAR 00E1
ENCODING 225
SWIDTH 546 0
DWIDTH 22 0
BBX 20 29 1 0
BITMAP
003F00
007E00
007C00
00F800
00F000
00E000
000000
000000
03FC00
0FFF80
1FFFC0
3FFFC0
3F0FC0
7E07E0
1C07E0
0007E0
000FE0
01FFE0
0FFFE0
3FE7E0
7E07E0
7C07E0
FC07E0
FC0FE0
7E1FE0
7FFFE0
7FFFE0
3FF3E0
0FC3F0
ENDCHAR
STARTCHAR 00E2
ENCODING 226
SWIDTH 546 0
DWIDTH 22 0
BBX 20 29 1 0
BITMAP
01F800
01FC00
03FC00
07FE00
079F00
0F0F00
000000
000000
03FC00
0FFF80
1FFFC0
3FFFC0
3F0FC0
7E07E0
1C07E0
0007E0
000FE0
01FFE0
0FFFE0
3FE7E0
7E07E0
7C07E0
FC07E0
FC0FE0
7E1FE0
7FFFE0
7FFFE0
3FF3E0
0FC3F0
ENDCHAR
STARTCHAR 00E3
ENCODING 227
SWIDTH 546 0
DWIDTH 22 0
BBX 20 28 1 0
BITMAP
078380
0FE380
0FFF80
1C7F00
1C1E00
000000
000000
03FC00
0FFF80
1FFFC0
3FFFC0
3F0FC0
7E07E0
1C07E0
0007E0
000FE0
01FFE0
0FFFE0
3FE7E0
7E07E0
7C07E0
FC07E0
FC0FE0
7E1FE0
7FFFE0
7FFFE0
3FF3E0
0FC3F0
ENDCHAR
STARTCHAR 00E4
ENCODING 228
SWIDTH 546 0
DWIDTH 22 0
BBX 20 27 1 0
BITMAP
0F0F80
0F0F80
0F0F80
0F0F80
000000
000000
03FC00
0FFF80
1FFFC0
3FFFC0
3F0FC0
7E07E0
1C07E0
0007E0
000FE0
01FFE0
0FFFE0
3FE7E0
7E07E0
7C07E0
FC07E0
FC0FE0
7E1FE0
7FFFE0
7FFFE0
3FF3E0
0FC3F0
ENDCHAR
STARTCHAR 00E5
ENCODING 229
SWIDTH 546 0
DWIDTH 22 0
BBX 20 31 1 0
BITMAP
00F000
01F800
019C00
030C00
030C00
019C00
01F800
00F000
000000
000000
03FC00
0FFF80
1FFFC0
3FFFC0
3F0FC0
7E07E0
1C07E0
0007E0
000FE0
01FFE0
0FFFE0
3FE7E0
7E07E0
7C07E0
FC07E0
FC0FE0
7E1FE0
7FFFE0
7FFFE0
3FF3E0
0FC3F0
ENDCHAR
STARTCHAR 00E6
ENCODING 230
SWIDTH 893 0
DWIDTH 36 0
BBX 32 21 2 0
BITMAP
03FC1F80
1FFF7FE0
3FFFFFF8
7FFFFFFC
7E1FF0FC
FC0FE07E
180FC03E
000FC03E
001FC03E
03FFFFFF
1FFFFFFF
7FFFFFFF
FFCFC000
FC0FC000
F80FE000
F80FE038
FC1FF07E
FFFFFFFE
7FFFFFFC
3FF8FFF0
1FC01FC0
ENDCHAR
STARTCHAR 00E7
ENCODING 231
SWIDTH 546 0
DWIDTH 22 0
BBX 19 28 2 -7
BITMAP
03FC00
0FFF00
1FFF80
3FFFC0
7F0FC0
7C07E0
FC0700
FC0000
F80000
F80000
F80000
F80000
F80000
FC0380
FC07E0
7E07E0
7F0FC0
3FFFC0
1FFF80
0FFF00
03F800
01F800
03FC00
001E00
001E00
003E00
0FFC00
0FF000
ENDCHAR
STARTCHAR 00E8
ENCODING 232
SWIDTH 546 0
DWIDTH 22 0
BBX 20 29 1 0
BITMAP
0FC000
07E000
03E000
01F000
00F000
007800
000000
000000
01F800
07FE00
1FFF80
3FFFC0
3F0FC0
7E07E0
7C03E0
7C03E0
FC03E0
FFFFF0
FFFFF0
FFFFF0
FC0000
7C0000
7C0000
7E0380
3F07E0
3FFFE0
1FFFC0
0FFF00
01FC00
ENDCHAR
STARTCHAR 00E9
ENCODING 233
SWIDTH 546 0
DWIDTH 22 0
BBX 20 29 1 0
BITMAP
003F00
007E00
007C00
00F800
00F000
01E000
000000
000000
01F800
07FE00
1FFF80
3FFFC0
3F0FC0
7E07E0
7C03E0
7C03E0
FC03E0
FFFFF0
FFFFF0
FFFFF0
FC0000
7C0000
7C0000
7E0380
3F07E0
3FFFE0
1FFFC0
0FFF00
01FC00
ENDCHAR
STARTCHAR 00EA
ENCODING 234
SWIDTH 546 0
DWIDTH 22 0
BBX 20 29 1 0
BITMAP
01F800
03FC00
03FC00
07FE00
0F9F00
0F0F00
000000
000000
01F800
07FE00
1FFF80
3FFFC0
3F0FC0
7E07E0
7C03E0
7C03E0
FC03E0
FFFFF0
FFFFF0
FFFFF0
FC0000
7C0000
7C0000
7E0380
3F07E0
3FFFE0
1FFFC0
0FFF00
01FC00
ENDCHAR
STARTCHAR 00EB
ENCODING 235
SWIDTH 546 0
DWIDTH 22 0
BBX 20 27 1 0
BITMAP
1F0F80
1F0F80
1F0F80
1F0F80
000000
000000
01F800
07FE00
1FFF80
3FFFC0
3F0FC0
7E07E0
7C03E0
7C03E0
FC03E0
FFFFF0
FFFFF0
FFFFF0
FC0000
7C0000
7C0000
7E0380
3F07E0
3FFFE0
1FFFC0
0FFF00
01FC00
ENDCHAR
STARTCHAR 00EC
ENCODING 236
SWIDTH 273 0
DWIDTH 11 0
BBX 8 29 0 0
BITMAP
FC
7C
3E
1E
0F
0F
00
00
1F
1F
1F
1F
1F
1F
1F
1F
1F
1F
1F
1F
1F
1F
1F
1F
1F
1F
1F
1F
1F
ENDCHAR
STARTCHAR 00ED
ENCODING 237
SWIDTH 273 0
DWIDTH 11 0
BBX 8 29 3 0
BITMAP
3F
7E
7C
78
F0
E0
00
00
F8
F8
F8
F8
F8
F8
F8
F8
F8
F8
F8
F8
F8
F8
F8
F8
F8
F8
F8
F8
F8
ENDCHAR
STARTCHAR 00EE
ENCODING 238
SWIDTH 273 0
DWIDTH 11 0
BBX 13 29 -1 0
BITMAP
0FC0
1FC0
3FE0
3DF0
78F0
F8F8
0000
0000
0F80
0F80
0F80
0F80
0F80
0F80
0F80
0F80
0F80
0F80
0F80
0F80
0F80
0F80
0F80
0F80
0F80
0F80
0F80
0F80
0F80
ENDCHAR
STARTCHAR 00EF
ENCODING 239
SWIDTH 273 0
DWIDTH 11 0
BBX 13 27 -1 0
BITMAP
F8F8
F8F8
F8F8
F8F8
0000
0000
0F80
0F80
0F80
0F80
0F80
0F80
0F80
0F80
0F80
0F80
0F80
0F80
0F80
0F80
0F80
0F80
0F80
0F80
0F80
0F80
0F80
ENDCHAR
STARTCHAR 00F0
ENCODING 240
SWIDTH 595 0
DWIDTH 24 0
BBX 21 29 2 0
BITMAP
07E100
03F780
00FE00
007C00
01FE00
079F00
061F80
000FC0
03E7C0
0FFFE0
1FFFE0
3FFFF0
7F0FF0
7E07F0
FC03F8
FC01F8
F801F8
F801F8
F801F8
F801F8
FC01F8
FC01F0
FC03F0
7E03F0
7F0FE0
3FFFC0
1FFF80
0FFF00
01FC00
ENDCHAR
STARTCHAR 00F1
ENCODING 241
SWIDTH 595 0
DWIDTH 24 0
BBX 19 28 3 0
BITMAP
0F0700
1FC700
1FFF00
18FE00
183C00
000000
000000
F87E00
F9FF80
FFFF80
FFFFC0
FF0FC0
FE07E0
FC07E0
FC07E0
F807E0
F807E0
F807E0
F807E0
F807E0
F807E0
F807E0
F807E0
F807E0
F807E0
F807E0
F807E0
F807E0
ENDCHAR
STARTCHAR 00F2
ENCODING 242
SWIDTH 595 0
DWIDTH 24 0
BBX 21 29 2 0
BITMAP
07E000
03E000
03E000
01F000
00F000
007800
000000
000000
01FC00
0FFF00
1FFF80
3FFFE0
7F0FE0
7E03F0
FC03F0
FC01F8
F801F8
F801F8
F801F8
F801F8
F801F8
FC01F8
FC03F0
7E03F0
7F0FE0
3FFFC0
1FFF80
0FFF00
01FC00
ENDCHAR
STARTCHAR 00F3
ENCODING 243
SWIDTH 595 0
DWIDTH 24 0
BBX 21 29 2 0
BITMAP
003F00
003E00
007C00
007800
00F000
00E000
000000
000000
01FC00
0FFF00
1FFF80
3FFFE0
7F0FE0
7E03F0
FC03F0
FC01F8
F801F8
F801F8
F801F8
F801F8
F801F8
FC01F8
FC03F0
7E03F0
7F0FE0
3FFFC0
1FFF80
0FFF00
01FC00
ENDCHAR
STARTCHAR 00F4
ENCODING 244
SWIDTH 595 0
DWIDTH 24 0
BBX 21 29 2 0
BITMAP
01F800
01FC00
03FE00
07DE00
079F00
0F0F80
000000
000000
01FC00
0FFF00
1FFF80
3FFFE0
7F0FE0
7E03F0
FC03F0
FC01F8
F801F8
F801F8
F801F8
F801F8
F801F8
FC01F8
FC03F0
7E03F0
7F0FE0
3FFFC0
1FFF80
0FFF00
01FC00
ENDCHAR
STARTCHAR 00F5
ENCODING 245
SWIDTH 595 0
DWIDTH 24 0
BBX 21 28 2 0
BITMAP
078380
0FE380
0FFF80
0C7F00
0C1E00
000000
000000
01FC00
0FFF00
1FFF80
3FFFE0
7F0FE0
7E03F0
FC03F0
FC01F8
F801F8
F801F8
F801F8
F801F8
F801F8
FC01F8
FC03F0
7E03F0
7F0FE0
3FFFC0
1FFF80
0FFF00
01FC00
ENDCHAR
STARTCHAR 00F6
ENCODING 246
SWIDTH 595 0
DWIDTH 24 0
BBX 21 27 2 0
BITMAP
0F0F80
0F0F80
0F0F80
0F0F80
000000
000000
01FC00
0FFF00
1FFF80
3FFFE0
7F0FE0
7E03F0
FC03F0
FC01F8
F801F8
F801F8
F801F8
F801F8
F801F8
FC01F8
FC03F0
7E03F0
7F0FE0
3FFFC0
1FFF80
0FFF00
01FC00
ENDCHAR
STARTCHAR 00F7
ENCODING 247
SWIDTH 546 0
DWIDTH 22 0
BBX 20 19 1 4
BITMAP
01F800
01F800
01F800
01F800
01F800
000000
000000
FFFFF0
FFFFF0
FFFFF0
FFFFF0
FFFFF0
000000
000000
01F800
01F800
01F800
01F800
01F800
ENDCHAR
STARTCHAR 00F8
ENCODING 248
SWIDTH 595 0
DWIDTH 24 0
BBX 21 21 2 0
BITMAP
01FC30
07FF78
1FFFF0
3FFFE0
7F0FE0
7E07F0
FC0FF0
FC1FF8
F83DF8
F878F8
F8F0F8
F8E0F8
F9E1F8
FFC1F8
FF81F0
7F03F0
7F07E0
3FFFE0
7FFF80
FFFF00
61FC00
ENDCHAR
STARTCHAR 00F9
ENCODING 249
SWIDTH 595 0
DWIDTH 24 0
BBX 19 29 3 0
BITMAP
0F8000
0FC000
07C000
03E000
01E000
00F000
000000
000000
F807E0
F807E0
F807E0
F807E0
F807E0
F807E0
F807E0
F807E0
F807E0
F807E0
F807E0
F807E0
F807E0
F807E0
F807E0
FC0FE0
FE1FE0
FFFFE0
7FFBE0
3FF3E0
0FC3E0
ENDCHAR
STARTCHAR 00FA
ENCODING 250
SWIDTH 595 0
DWIDTH 24 0
BBX 19 29 3 0
BITMAP
007E00
00FC00
00F800
00F000
01E000
01C000
000000
000000
F807E0
F807E0
F807E0
F807E0
F807E0
F807E0
F807E0
F807E0
F807E0
F807E0
F807E0
F807E0
F807E0
F807E0
F807E0
FC0FE0
FE1FE0
FFFFE0
7FFBE0
3FF3E0
0FC3E0
ENDCHAR
STARTCHAR 00FB
ENCODING 251
SWIDTH 595 0
DWIDTH 24 0
BBX 19 29 3 0
BITMAP
03F000
03F800
07F800
0FBC00
0F3E00
1E1E00
000000
000000
F807E0
F807E0
F807E0
F807E0
F807E0
F807E0
F807E0
F807E0
F807E0
F807E0
F807E0
F807E0
F807E0
F807E0
F807E0
FC0FE0
FE1FE0
FFFFE0
7FFBE0
3FF3E0
0FC3E0
ENDCHAR
STARTCHAR 00FC
ENCODING 252
SWIDTH 595 0
DWIDTH 24 0
BBX 19 27 3 0
BITMAP
1E1F00
1E1F00
1E1F00
1E1F00
000000
000000
F807E0
F807E0
F807E0
F807E0
F807E0
F807E0
F807E0
F807E0
F807E0
F807E0
F807E0
F807E0
F807E0
F807E0
F807E0
FC0FE0
FE1FE0
FFFFE0
7FFBE0
3FF3E0
0FC3E0
ENDCHAR
STARTCHAR 00FD
ENCODING 253
SWIDTH 546 0
DWIDTH 22 0
BBX 21 37 0 -8
BITMAP
001F80
003F00
003E00
007C00
007800
00F000
000000
000000
FC00F8
7E01F8
7E01F8
3E01F0
3F03F0
3F03F0
1F03E0
1F87E0
1F87E0
0F87C0
0FCFC0
07CF80
07CF80
07EF80
03FF00
03FF00
03FF00
01FE00
01FE00
00FE00
00FC00
00FC00
00F800
01F800
03F800
3FF000
3FF000
3FE000
3F8000
ENDCHAR
STARTCHAR 00FE
ENCODING 254
SWIDTH 595 0
DWIDTH 24 0
BBX 20 37 3 -8
BITMAP
F80000
F80000
F80000
F80000
F80000
F80000
F80000
F80000
F87C00
F9FF00
FBFF80
FFFFC0
FF0FE0
FC07E0
FC03E0
F803F0
F803F0
F803F0
F803F0
F803F0
F803F0
FC03F0
FC03E0
FE07E0
FF0FE0
FFFFC0
FBFF80
F9FF00
F87C00
F80000
F80000
F80000
F80000
F80000
F80000
F80000
F80000
ENDCHAR
STARTCHAR 00FF
ENCODING 255
SWIDTH 546 0
DWIDTH 22 0
BBX 21 35 0 -8
BITMAP
0F87C0
0F87C0
0F87C0
0F87C0
000000
000000
FC00F8
7E01F8
7E01F8
3E01F0
3F03F0
3F03F0
1F03E0
1F87E0
1F87E0
0F87C0
0FCFC0
07CF80
07CF80
07EF80
03FF00
03FF00
03FF00
01FE00
01FE00
00FE00
00FC00
00FC00
00F800
01F800
03F800
3FF000
3FF000
3FE000
3F8000
ENDCHAR
STARTCHAR 0100
ENCODING 256
SWIDTH 720 0
DWIDTH 29 0
BBX 29 35 0 0
BITMAP
00FFF800
00FFF800
00FFF800
00FFF800
00000000
00000000
001F8000
001FC000
003FC000
003FE000
007FE000
007FE000
007DF000
00F9F000
00F9F800
01F8F800
01F0F800
01F0FC00
03F07C00
03E07E00
03E07E00
07E03E00
07C03F00
0FFFFF00
0FFFFF80
0FFFFF80
1FFFFF80
1FFFFFC0
3F000FC0
3F000FE0
3F0007E0
7E0007E0
7E0003F0
7E0003F0
FC0003F8
ENDCHAR
STARTCHAR 0101
ENCODING 257
SWIDTH 546 0
DWIDTH 22 0
BBX 20 27 1 0
BITMAP
0FFF00
0FFF00
0FFF00
0FFF00
000000
000000
03FC00
0FFF80
1FFFC0
3FFFC0
3F0FC0
7E07E0
1C07E0
0007E0
000FE0
01FFE0
0FFFE0
3FE7E0
7E07E0
7C07E0
FC07E0
FC0FE0
7E1FE0
7FFFE0
7FFFE0
3FF3E0
0FC3F0
ENDCHAR
STARTCHAR 0102
ENCODING 258
SWIDTH 720 0
DWIDTH 29 0
BBX 29 37 0 0
BITMAP
00E03000
00607000
0070F000
007FE000
003FE000
000F8000
00000000
00000000
001F8000
001FC000
003FC000
003FE000
007FE000
007FE000
007DF000
00F9F000
00F9F800
01F8F800
01F0F800
01F0FC00
03F07C00
03E07E00
03E07E00
07E03E00
07C03F00
0FFFFF00
0FFFFF80
0FFFFF80
1FFFFF80
1FFFFFC0
3F000FC0
3F000FE0
3F0007E0
7E0007E0
7E0003F0
7E0003F0
FC0003F8
ENDCHAR
STARTCHAR 0103
ENCODING 259
SWIDTH 546 0
DWIDTH 22 0
BBX 20 29 1 0
BITMAP
0E0700
0E0700
070F00
07FE00
03FC00
01F800
000000
000000
03FC00
0FFF80
1FFFC0
3FFFC0
3F0FC0
7E07E0
1C07E0
0007E0
000FE0
01FFE0
0FFFE0
3FE7E0
7E07E0
7C07E0
FC07E0
FC0FE0
7E1FE0
7FFFE0
7FFFE0
3FF3E0
0FC3F0
ENDCHAR
STARTCHAR 0104
ENCODING 260
SWIDTH 720 0
DWIDTH 29 0
BBX 31 37 0 -8
BITMAP
001F8000
001FC000
003FC000
003FE000
007FE000
007FE000
007DF000
00F9F000
00F9F800
01F8F800
01F0F800
01F0FC00
03F07C00
03E07E00
03E07E00
07E03E00
07C03F00
0FFFFF00
0FFFFF80
0FFFFF80
1FFFFF80
1FFFFFC0
3F000FC0
3F000FE0
3F0007E0
7E0007E0
7E0003F0
7E0003F0
FC0003F8
00000380
00000380
00000380
00000380
000003C0
000003FE
000001FE
000000FC
ENDCHAR
STARTCHAR 0105
ENCODING 261
SWIDTH 546 0
DWIDTH 22 0
BBX 23 29 1 -8
BITMAP
03FC00
0FFF80
1FFFC0
3FFFC0
3F0FC0
7E07E0
1C07E0
0007E0
000FE0
01FFE0
0FFFE0
3FE7E0
7E07E0
7C07E0
FC07E0
FC0FE0
7E1FE0
7FFFE0
7FFFE0
3FF3E0
0FC3F0
000380
000380
000380
000380
0003C0
0003FE
0001FE
0000FC
ENDCHAR
STARTCHAR 0106
ENCODING 262
SWIDTH 720 0
DWIDTH 29 0
BBX 25 37 2 0
BITMAP
000FC000
001F8000
001F0000
003E0000
003C0000
00780000
00000000
00000000
007F8000
01FFE000
07FFF800
0FFFFC00
1FFFFE00
3FC1FE00
3F807F00
7F003F00
7E001F80
FE001C00
FC000000
FC000000
FC000000
FC000000
FC000000
FC000000
FC000000
FC000000
FC001800
FE001E00
7E003F80
7F003F00
3F807F00
3FC1FE00
1FFFFE00
0FFFFC00
07FFF800
01FFE000
007F8000
ENDCHAR
STARTCHAR 0107
ENCODING 263
SWIDTH 546 0
DWIDTH 22 0
BBX 19 29 2 0
BITMAP
007E00
00FC00
00F800
00F000
01E000
01C000
000000
000000
03FC00
0FFF00
1FFF80
3FFFC0
7F0FC0
7C07E0
FC0700
FC0000
F80000
F80000
F80000
F80000
F80000
FC0380
FC07E0
7E07E0
7F0FC0
3FFFC0
1FFF80
0FFF00
03F800
ENDCHAR
STARTCHAR 0108
ENCODING 264
SWIDTH 720 0
DWIDTH 29 0
BBX 25 37 2 0
BITMAP
003F0000
007F8000
007F8000
00FFC000
01F3E000
01E1E000
00000000
00000000
007F8000
01FFE000
07FFF800
0FFFFC00
1FFFFE00
3FC1FE00
3F807F00
7F003F00
7E001F80
FE001C00
FC000000
FC000000
FC000000
FC000000
FC000000
FC000000
FC000000
FC000000
FC001800
FE001E00
7E003F80
7F003F00
3F807F00
3FC1FE00
1FFFFE00
0FFFFC00
07FFF800
01FFE000
007F8000
ENDCHAR
STARTCHAR 0109
ENCODING 265
SWIDTH 546 0
DWIDTH 22 0
BBX 19 29 2 0
BITMAP
03F000
03F800
07F800
0FFC00
0F3E00
1E1E00
000000
000000
03FC00
0FFF00
1FFF80
3FFFC0
7F0FC0
7C07E0
FC0700
FC0000
F80000
F80000
F80000
F80000
F80000
FC0380
FC07E0
7E07E0
7F0FC0
3FFFC0
1FFF80
0FFF00
03F800
ENDCHAR
STARTCHAR 010A
ENCODING 266
SWIDTH 720 0
DWIDTH 29 0
BBX 25 36 2 0
BITMAP
003F0000
003F0000
003F0000
003F0000
003F0000
00000000
00000000
007F8000
01FFE000
07FFF800
0FFFFC00
1FFFFE00
3FC1FE00
3F807F00
7F003F00
7E001F80
FE001C00
FC000000
FC000000
FC000000
FC000000
FC000000
FC000000
FC000000
FC000000
FC001800
FE001E00
7E003F80
7F003F00
3F807F00
3FC1FE00
1FFFFE00
0FFFFC00
07FFF800
01FFE000
007F8000
ENDCHAR
STARTCHAR 010B
ENCODING 267
SWIDTH 546 0
DWIDTH 22 0
BBX 19 28 2 0
BITMAP
03F000
03F000
03F000
03F000
03F000
000000
000000
03FC00
0FFF00
1FFF80
3FFFC0
7F0FC0
7C07E0
FC0700
FC0000
F80000
F80000
F80000
F80000
F80000
FC0380
FC07E0
7E07E0
7F0FC0
3FFFC0
1FFF80
0FFF00
03F800
ENDCHAR
STARTCHAR 010C
ENCODING 268
SWIDTH 720 0
DWIDTH 29 0
BBX 25 37 2 0
BITMAP
03E1E000
01F3C000
00F7C000
007F8000
007F0000
003F0000
00000000
00000000
007F8000
01FFE000
07FFF800
0FFFFC00
1FFFFE00
3FC1FE00
3F807F00
7F003F00
7E001F80
FE001C00
FC000000
FC000000
FC000000
FC000000
FC000000
FC000000
FC000000
FC000000
FC001800
FE001E00
7E003F80
7F003F00
3F807F00
3FC1FE00
1FFFFE00
0FFFFC00
07FFF800
01FFE000
007F8000
ENDCHAR
STARTCHAR 010D
ENCODING 269
SWIDTH 546 0
DWIDTH 22 0
BBX 19 29 2 0
BITMAP
0F0F00
0F9F00
07FE00
03FC00
03FC00
01F800
000000
000000
03FC00
0FFF00
1FFF80
3FFFC0
7F0FC0
7C07E0
FC0700
FC0000
F80000
F80000
F80000
F80000
F80000
FC0380
FC07E0
7E07E0
7F0FC0
3FFFC0
1FFF80
0FFF00
03F800
ENDCHAR
STARTCHAR 010E
ENCODING 270
SWIDTH 720 0
DWIDTH 29 0
BBX 24 37 3 0
BITMAP
1E1E00
1F3E00
0FFC00
07F800
07F800
03F000
000000
000000
FFFF00
FFFFC0
FFFFE0
FFFFF0
FFFFF8
FC03FC
FC00FC
FC00FE
FC007E
FC007E
FC003F
FC003F
FC003F
FC003F
FC003F
FC003F
FC003F
FC003F
FC003F
FC007E
FC007E
FC007E
FC00FC
FC03FC
FFFFF8
FFFFF0
FFFFE0
FFFFC0
FFFE00
ENDCHAR
STARTCHAR 010F
ENCODING 271
SWIDTH 720 0
DWIDTH 29 0
BBX 27 29 2 0
BITMAP
0003F3E0
0003F3E0
0003F3E0
0003F3E0
0003F3E0
0003F0E0
0003F0E0
0003F0C0
07E3F3C0
1FFBF380
3FFFF200
7FFFF000
7F0FF000
FE07F000
FC03F000
FC03F000
F803F000
F803F000
F803F000
F803F000
F803F000
FC03F000
FC03F000
FE07F000
7F0FF000
3FFFF000
3FFDF000
0FF9F000
07E1F000
ENDCHAR
STARTCHAR 0110
ENCODING 272
SWIDTH 720 0
DWIDTH 29 0
BBX 27 29 0 0
BITMAP
1FFFE000
1FFFF800
1FFFFC00
1FFFFE00
1FFFFF00
1F807F80
1F801F80
1F801FC0
1F800FC0
1F800FC0
1F8007E0
1F8007E0
FFFE07E0
FFFE07E0
FFFE07E0
FFFE07E0
1F8007E0
1F8007E0
1F8007E0
1F800FC0
1F800FC0
1F800FC0
1F801F80
1F807F80
1FFFFF00
1FFFFF00
1FFFFE00
1FFFF800
1FFFC000
ENDCHAR
STARTCHAR 0111
ENCODING 273
SWIDTH 595 0
DWIDTH 24 0
BBX 22 29 2 0
BITMAP
0003F0
0003F0
00FFFC
00FFFC
00FFFC
00FFFC
0003F0
0003F0
07E3F0
1FFBF0
3FFFF0
7FFFF0
7F0FF0
FE07F0
FC03F0
FC03F0
F803F0
F803F0
F803F0
F803F0
F803F0
FC03F0
FC03F0
FE07F0
7F0FF0
3FFFF0
3FFDF0
0FF9F0
07E1F0
ENDCHAR
STARTCHAR 0112
ENCODING 274
SWIDTH 670 0
DWIDTH 27 0
BBX 22 35 3 0
BITMAP
0FFF80
0FFF80
0FFF80
0FFF80
000000
000000
FFFFF8
FFFFF8
FFFFF8
FFFFF8
FFFFF8
FC0000
FC0000
FC0000
FC0000
FC0000
FC0000
FFFFF0
FFFFF0
FFFFF0
FFFFF0
FFFFF0
FC0000
FC0000
FC0000
FC0000
FC0000
FC0000
FC0000
FC0000
FFFFFC
FFFFFC
FFFFFC
FFFFFC
FFFFFC
ENDCHAR
STARTCHAR 0113
ENCODING 275
SWIDTH 546 0
DWIDTH 22 0
BBX 20 27 1 0
BITMAP
0FFF00
0FFF00
0FFF00
0FFF00
000000
000000
01F800
07FE00
1FFF80
3FFFC0
3F0FC0
7E07E0
7C03E0
7C03E0
FC03E0
FFFFF0
FFFFF0
FFFFF0
FC0000
7C0000
7C0000
7E0380
3F07E0
3FFFE0
1FFFC0
0FFF00
01FC00
ENDCHAR
STARTCHAR 0114
ENCODING 276
SWIDTH 670 0
DWIDTH 27 0
BBX 22 37 3 0
BITMAP
0E0300
0E0700
070F00
07FE00
03FC00
00F800
000000
000000
FFFFF8
FFFFF8
FFFFF8
FFFFF8
FFFFF8
FC0000
FC0000
FC0000
FC0000
FC0000
FC0000
FFFFF0
FFFFF0
FFFFF0
FFFFF0
FFFFF0
FC0000
FC0000
FC0000
FC0000
FC0000
FC0000
FC0000
FC0000
FFFFFC
FFFFFC
FFFFFC
FFFFFC
FFFFFC
ENDCHAR
STARTCHAR 0115
ENCODING 277
SWIDTH 546 0
DWIDTH 22 0
BBX 20 29 1 0
BITMAP
0C0700
0E0700
0F0E00
07FE00
03FC00
01F000
000000
000000
01F800
07FE00
1FFF80
3FFFC0
3F0FC0
7E07E0
7C03E0
7C03E0
FC03E0
FFFFF0
FFFFF0
FFFFF0
FC0000
7C0000
7C0000
7E0380
3F07E0
3FFFE0
1FFFC0
0FFF00
01FC00
ENDCHAR
STARTCHAR 0116
ENCODING 278
SWIDTH 670 0
DWIDTH 27 0
BBX 22 36 3 0
BITMAP
00F800
00F800
00F800
00F800
00F800
000000
000000
FFFFF8
FFFFF8
FFFFF8
FFFFF8
FFFFF8
FC0000
FC0000
FC0000
FC0000
FC0000
FC0000
FFFFF0
FFFFF0
FFFFF0
FFFFF0
FFFFF0
FC0000
FC0000
FC0000
FC0000
FC0000
FC0000
FC0000
FC0000
FFFFFC
FFFFFC
FFFFFC
FFFFFC
FFFFFC
ENDCHAR
STARTCHAR 0117
ENCODING 279
SWIDTH 546 0
DWIDTH 22 0
BBX 20 28 1 0
BITMAP
01F800
01F800
01F800
01F800
01F800
000000
000000
01F800
07FE00
1FFF80
3FFFC0
3F0FC0
7E07E0
7C03E0
7C03E0
FC03E0
FFFFF0
FFFFF0
FFFFF0
FC0000
7C0000
7C0000
7E0380
3F07E0
3FFFE0
1FFFC0
0FFF00
01FC00
ENDCHAR
STARTCHAR 0118
ENCODING 280
SWIDTH 670 0
DWIDTH 27 0
BBX 22 37 3 -8
BITMAP
FFFFF8
FFFFF8
FFFFF8
FFFFF8
FFFFF8
FC0000
FC0000
FC0000
FC0000
FC0000
FC0000
FFFFF0
FFFFF0
FFFFF0
FFFFF0
FFFFF0
FC0000
FC0000
FC0000
FC0000
FC0000
FC0000
FC0000
FC0000
FFFFFC
FFFFFC
FFFFFC
FFFFFC
FFFFFC
000380
000700
000700
000700
000780
0007FC
0003FC
0001F8
ENDCHAR
STARTCHAR 0119
ENCODING 281
SWIDTH 546 0
DWIDTH 22 0
BBX 20 29 1 -8
BITMAP
01F800
07FE00
1FFF80
3FFFC0
3F0FC0
7E07E0
7C03E0
7C03E0
FC03E0
FFFFF0
FFFFF0
FFFFF0
FC0000
7C0000
7C0000
7E0380
3F07E0
3FFFE0
1FFFC0
0FFF00
01FC00
007000
00E000
00E000
00E000
00F000
00FF80
007F80
003F00
ENDCHAR
STARTCHAR 011A
ENCODING 282
SWIDTH 670 0
DWIDTH 27 0
BBX 22 37 3 0
BITMAP
0F0F00
079F00
07DE00
03FC00
01FC00
01F800
000000
000000
FFFFF8
FFFFF8
FFFFF8
FFFFF8
FFFFF8
FC0000
FC0000
FC0000
FC0000
FC0000
FC0000
FFFFF0
FFFFF0
FFFFF0
FFFFF0
FFFFF0
FC0000
FC0000
FC0000
FC0000
FC0000
FC0000
FC0000
FC0000
FFFFFC
FFFFFC
FFFFFC
FFFFFC
FFFFFC
ENDCHAR
STARTCHAR 011B
ENCODING 283
SWIDTH 546 0
DWIDTH 22 0
BBX 20 29 1 0
BITMAP
0F0F00
0F9F00
07FE00
03FC00
03FC00
01F800
000000
000000
01F800
07FE00
1FFF80
3FFFC0
3F0FC0
7E07E0
7C03E0
7C03E0
FC03E0
FFFFF0
FFFFF0
FFFFF0
FC0000
7C0000
7C0000
7E0380
3F07E0
3FFFE0
1FFFC0
0FFF00
01FC00
ENDCHAR
STARTCHAR 011C
ENCODING 284
SWIDTH 769 0
DWIDTH 31 0
BBX 27 37 2 0
BITMAP
001F8000
003FC000
003FC000
007FE000
00F9F000
00F0F000
00000000
00000000
003FC000
01FFF800
07FFFE00
0FFFFF00
1FFFFF00
3FE07F80
3F803FC0
7F001FC0
7E000FC0
7E000E00
FC000000
FC000000
FC000000
FC03FFE0
FC03FFE0
FC03FFE0
FC03FFE0
FC03FFE0
FC0007E0
7E0007E0
7E0007E0
7F0007E0
3F801FE0
1FE07FE0
1FFFFFE0
0FFFFFC0
03FFFF00
01FFFC00
003FE000
ENDCHAR
STARTCHAR 011D
ENCODING 285
SWIDTH 595 0
DWIDTH 24 0
BBX 20 37 2 -8
BITMAP
01F800
01FC00
03FC00
07DE00
079F00
0F0F80
000000
000000
07E1F0
0FF9F0
3FFDF0
3FFFF0
7F0FF0
FE07F0
FC03F0
FC03F0
F803F0
F803F0
F803F0
F803F0
F803F0
FC03F0
FC03F0
FE07F0
7F0FF0
3FFFF0
3FFFF0
1FFBF0
07E3F0
0003F0
0003F0
F003E0
FE07E0
7FFFE0
7FFFC0
1FFF80
07FC00
ENDCHAR
STARTCHAR 011E
ENCODING 286
SWIDTH 769 0
DWIDTH 31 0
BBX 27 37 2 0
BITMAP
00E03800
00607000
00707000
003FE000
003FE000
000F8000
00000000
00000000
003FC000
01FFF800
07FFFE00
0FFFFF00
1FFFFF00
3FE07F80
3F803FC0
7F001FC0
7E000FC0
7E000E00
FC000000
FC000000
FC000000
FC03FFE0
FC03FFE0
FC03FFE0
FC03FFE0
FC03FFE0
FC0007E0
7E0007E0
7E0007E0
7F0007E0
3F801FE0
1FE07FE0
1FFFFFE0
0FFFFFC0
03FFFF00
01FFFC00
003FE000
ENDCHAR
STARTCHAR 011F
ENCODING 287
SWIDTH 595 0
DWIDTH 24 0
BBX 20 37 2 -8
BITMAP
0C0700
0E0700
0F0E00
07FE00
03FC00
01F000
000000
000000
07E1F0
0FF9F0
3FFDF0
3FFFF0
7F0FF0
FE07F0
FC03F0
FC03F0
F803F0
F803F0
F803F0
F803F0
F803F0
FC03F0
FC03F0
FE07F0
7F0FF0
3FFFF0
3FFFF0
1FFBF0
07E3F0
0003F0
0003F0
F003E0
FE07E0
7FFFE0
7FFFC0
1FFF80
07FC00
ENDCHAR
STARTCHAR 0120
ENCODING 288
SWIDTH 769 0
DWIDTH 31 0
BBX 27 36 2 0
BITMAP
001F8000
001F8000
001F8000
001F8000
001F8000
00000000
00000000
003FC000
01FFF800
07FFFE00
0FFFFF00
1FFFFF00
3FE07F80
3F803FC0
7F001FC0
7E000FC0
7E000E00
FC000000
FC000000
FC000000
FC03FFE0
FC03FFE0
FC03FFE0
FC03FFE0
FC03FFE0
FC0007E0
7E0007E0
7E0007E0
7F0007E0
3F801FE0
1FE07FE0
1FFFFFE0
0FFFFFC0
03FFFF00
01FFFC00
003FE000
ENDCHAR
STARTCHAR 0121
ENCODING 289
SWIDTH 595 0
DWIDTH 24 0
BBX 20 36 2 -8
BITMAP
00F800
00F800
00F800
00F800
00F800
000000
000000
07E1F0
0FF9F0
3FFDF0
3FFFF0
7F0FF0
FE07F0
FC03F0
FC03F0
F803F0
F803F0
F803F0
F803F0
F803F0
FC03F0
FC03F0
FE07F0
7F0FF0
3FFFF0
3FFFF0
1FFBF0
07E3F0
0003F0
0003F0
F003E0
FE07E0
7FFFE0
7FFFC0
1FFF80
07FC00
ENDCHAR
STARTCHAR 0122
ENCODING 290
SWIDTH 769 0
DWIDTH 31 0
BBX 27 36 2 -7
BITMAP
003FC000
01FFF800
07FFFE00
0FFFFF00
1FFFFF00
3FE07F80
3F803FC0
7F001FC0
7E000FC0
7E000E00
FC000000
FC000000
FC000000
FC03FFE0
FC03FFE0
FC03FFE0
FC03FFE0
FC03FFE0
FC0007E0
7E0007E0
7E0007E0
7F0007E0
3F800FE0
3FE07FE0
1FFFFFE0
0FFFFFC0
07FFFF00
01FFFC00
003FE000
003F8000
003FC000
0003C000
0001C000
0003C000
00FF8000
00FE0000
ENDCHAR
STARTCHAR 0123
ENCODING 291
SWIDTH 595 0
DWIDTH 24 0
BBX 20 40 2 -8
BITMAP
003000
00F000
01F000
01E000
03C000
03F000
03F000
03F000
03F000
000000
000000
07E1F0
0FF9F0
3FFDF0
3FFFF0
7F0FF0
FE07F0
FC03F0
FC03F0
F803F0
F803F0
F803F0
F803F0
F803F0
FC03F0
FC03F0
7E07F0
7F0FF0
3FFFF0
3FFFF0
0FFBF0
07E3F0
0003F0
0003F0
F003E0
FE07E0
7FFFE0
7FFFC0
1FFF80
07FC00
ENDCHAR
STARTCHAR 0124
ENCODING 292
SWIDTH 720 0
DWIDTH 29 0
BBX 23 37 3 0
BITMAP
007C00
00FE00
01FF00
01EF00
03C780
07C7C0
000000
000000
FC007E
FC007E
FC007E
FC007E
FC007E
FC007E
FC007E
FC007E
FC007E
FC007E
FC007E
FFFFFE
FFFFFE
FFFFFE
FFFFFE
FFFFFE
FC007E
FC007E
FC007E
FC007E
FC007E
FC007E
FC007E
FC007E
FC007E
FC007E
FC007E
FC007E
FC007E
ENDCHAR
STARTCHAR 0125
ENCODING 293
SWIDTH 595 0
DWIDTH 24 0
BBX 19 37 3 0
BITMAP
03F000
03F800
07F800
0FBC00
0F3E00
1E1F00
000000
000000
F80000
F80000
F80000
F80000
F80000
F80000
F80000
F80000
F87E00
F9FF00
FBFF80
FFFFC0
FF0FC0
FC07E0
FC07E0
FC07E0
F807E0
F807E0
F807E0
F807E0
F807E0
F807E0
F807E0
F807E0
F807E0
F807E0
F807E0
F807E0
F807E0
ENDCHAR
STARTCHAR 0126
ENCODING 294
SWIDTH 720 0
DWIDTH 29 0
BBX 29 29 0 0
BITMAP
1F800FC0
1F800FC0
1F800FC0
FFFFFFF8
FFFFFFF8
FFFFFFF8
FFFFFFF8
1F800FC0
1F800FC0
1F800FC0
1F800FC0
1FFFFFC0
1FFFFFC0
1FFFFFC0
1FFFFFC0
1FFFFFC0
1F800FC0
1F800FC0
1F800FC0
1F800FC0
1F800FC0
1F800FC0
1F800FC0
1F800FC0
1F800FC0
1F800FC0
1F800FC0
1F800FC0
1F800FC0
ENDCHAR
STARTCHAR 0127
ENCODING 295
SWIDTH 595 0
DWIDTH 24 0
BBX 22 29 0 0
BITMAP
1F0000
1F0000
FFFC00
FFFC00
FFFC00
FFFC00
1F0000
1F0000
1F0FC0
1F3FE0
1F7FF0
1FFFF8
1FE1F8
1F80FC
1F80FC
1F80FC
1F00FC
1F00FC
1F00FC
1F00FC
1F00FC
1F00FC
1F00FC
1F00FC
1F00FC
1F00FC
1F00FC
1F00FC
1F00FC
ENDCHAR
STARTCHAR 0128
ENCODING 296
SWIDTH 273 0
DWIDTH 11 0
BBX 13 36 -1 0
BITMAP
7818
FE38
FFF8
E7F0
C0E0
0000
0000
0FC0
0FC0
0FC0
0FC0
0FC0
0FC0
0FC0
0FC0
0FC0
0FC0
0FC0
0FC0
0FC0
0FC0
0FC0
0FC0
0FC0
0FC0
0FC0
0FC0
0FC0
0FC0
0FC0
0FC0
0FC0
0FC0
0FC0
0FC0
0FC0
ENDCHAR
STARTCHAR 0129
ENCODING 297
SWIDTH 273 0
DWIDTH 11 0
BBX 13 28 -1 0
BITMAP
7818
FE38
FFF8
E7F0
C0E0
0000
0000
0F80
0F80
0F80
0F80
0F80
0F80
0F80
0F80
0F80
0F80
0F80
0F80
0F80
0F80
0F80
0F80
0F80
0F80
0F80
0F80
0F80
ENDCHAR
STARTCHAR 012A
ENCODING 298
SWIDTH 273 0
DWIDTH 11 0
BBX 13 35 -1 0
BITMAP
FFF8
FFF8
FFF8
FFF8
0000
0000
0FC0
0FC0
0FC0
0FC0
0FC0
0FC0
0FC0
0FC0
0FC0
0FC0
0FC0
0FC0
0FC0
0FC0
0FC0
0FC0
0FC0
0FC0
0FC0
0FC0
0FC0
0FC0
0FC0
0FC0
0FC0
0FC0
0FC0
0FC0
0FC0
ENDCHAR
STARTCHAR 012B
ENCODING 299
SWIDTH 273 0
DWIDTH 11 0
BBX 13 27 -1 0
BITMAP
FFF8
FFF8
FFF8
FFF8
0000
0000
0F80
0F80
0F80
0F80
0F80
0F80
0F80
0F80
0F80
0F80
0F80
0F80
0F80
0F80
0F80
0F80
0F80
0F80
0F80
0F80
0F80
ENDCHAR
STARTCHAR 012C
ENCODING 300
SWIDTH 273 0
DWIDTH 11 0
BBX 13 37 -1 0
BITMAP
E038
6070
7070
3FE0
3FE0
0F80
0000
0000
0FC0
0FC0
0FC0
0FC0
0FC0
0FC0
0FC0
0FC0
0FC0
0FC0
0FC0
0FC0
0FC0
0FC0
0FC0
0FC0
0FC0
0FC0
0FC0
0FC0
0FC0
0FC0
0FC0
0FC0
0FC0
0FC0
0FC0
0FC0
0FC0
ENDCHAR
STARTCHAR 012D
ENCODING 301
SWIDTH 273 0
DWIDTH 11 0
BBX 13 29 -1 0
BITMAP
E038
7070
7070
3FE0
3FE0
0F80
0000
0000
0F80
0F80
0F80
0F80
0F80
0F80
0F80
0F80
0F80
0F80
0F80
0F80
0F80
0F80
0F80
0F80
0F80
0F80
0F80
0F80
0F80
ENDCHAR
STARTCHAR 012E
ENCODING 302
SWIDTH 273 0
DWIDTH 11 0
BBX 9 37 2 -8
BITMAP
7E00
7E00
7E00
7E00
7E00
7E00
7E00
7E00
7E00
7E00
7E00
7E00
7E00
7E00
7E00
7E00
7E00
7E00
7E00
7E00
7E00
7E00
7E00
7E00
7E00
7E00
7E00
7E00
7E00
7000
E000
E000
F000
F000
FF80
7F80
3F00
ENDCHAR
STARTCHAR 012F
ENCODING 303
SWIDTH 273 0
DWIDTH 11 0
BBX 9 37 2 -8
BITMAP
7C00
7C00
7C00
7C00
0000
0000
0000
0000
7C00
7C00
7C00
7C00
7C00
7C00
7C00
7C00
7C00
7C00
7C00
7C00
7C00
7C00
7C00
7C00
7C00
7C00
7C00
7C00
7C00
7000
F000
F000
F000
F800
7F80
7F80
1F00
ENDCHAR
STARTCHAR 0130
ENCODING 304
SWIDTH 273 0
DWIDTH 11 0
BBX 6 36 3 0
BITMAP
F8
F8
F8
F8
F8
00
00
FC
FC
FC
FC
FC
FC
FC
FC
FC
FC
FC
FC
FC
FC
FC
FC
FC
FC
FC
FC
FC
FC
FC
FC
FC
FC
FC
FC
FC
ENDCHAR
STARTCHAR 0131
ENCODING 305
SWIDTH 273 0
DWIDTH 11 0
BBX 5 21 3 0
BITMAP
F8
F8
F8
F8
F8
F8
F8
F8
F8
F8
F8
F8
F8
F8
F8
F8
F8
F8
F8
F8
F8
ENDCHAR
STARTCHAR 0132
ENCODING 306
SWIDTH 769 0
DWIDTH 31 0
BBX 25 29 3 0
BITMAP
FC000F80
FC000F80
FC000F80
FC000F80
FC000F80
FC000F80
FC000F80
FC000F80
FC000F80
FC000F80
FC000F80
FC000F80
FC000F80
FC000F80
FC000F80
FC000F80
FC000F80
FC000F80
FC000F80
FC300F80
FDF81F80
FDF81F80
FDF81F80
FDFC3F80
FCFFFF00
FCFFFF00
FC7FFE00
FC3FFC00
FC0FE000
ENDCHAR
STARTCHAR 0133
ENCODING 307
SWIDTH 546 0
DWIDTH 22 0
BBX 16 37 3 -8
BITMAP
F81F
F81F
F81F
F81F
0000
0000
0000
0000
F81F
F81F
F81F
F81F
F81F
F81F
F81F
F81F
F81F
F81F
F81F
F81F
F81F
F81F
F81F
F81F
F81F
F81F
F81F
F81F
F81F
001F
003F
003F
003F
01FF
03FE
03FC
03F8
ENDCHAR
STARTCHAR 0134
ENCODING 308
SWIDTH 546 0
DWIDTH 22 0
BBX 21 37 1 0
BITMAP
000FC0
000FE0
001FE0
003FF0
003CF8
007878
000000
000000
000FC0
000FC0
000FC0
000FC0
000FC0
000FC0
000FC0
000FC0
000FC0
000FC0
000FC0
000FC0
000FC0
000FC0
000FC0
000FC0
000FC0
000FC0
000FC0
380FC0
F80FC0
F80FC0
FC0FC0
FE1F80
FFFF80
7FFF00
3FFF00
1FFC00
07F000
ENDCHAR
STARTCHAR 0135
ENCODING 309
SWIDTH 273 0
DWIDTH 11 0
BBX 14 37 -2 -8
BITMAP
07C0
0FE0
1FF0
1EF0
3C78
7C7C
0000
0000
07C0
07C0
07C0
07C0
07C0
07C0
07C0
07C0
07C0
07C0
07C0
07C0
07C0
07C0
07C0
07C0
07C0
07C0
07C0
07C0
07C0
07C0
07C0
07C0
0FC0
7FC0
7F80
FF80
FE00
ENDCHAR
STARTCHAR 0136
ENCODING 310
SWIDTH 720 0
DWIDTH 29 0
BBX 26 36 3 -7
BITMAP
FC007F80
FC00FF00
FC01FE00
FC03FC00
FC07F800
FC0FF000
FC1FE000
FC3FC000
FC7F8000
FCFF0000
FDFE0000
FFFE0000
FFFE0000
FFFF0000
FFFF0000
FFFF8000
FFDFC000
FF8FC000
FF0FE000
FE07F000
FC07F000
FC03F800
FC03FC00
FC01FC00
FC00FE00
FC00FF00
FC007F00
FC007F80
FC003FC0
00FC0000
00FF0000
000F0000
000F0000
000F0000
03FE0000
03F80000
ENDCHAR
STARTCHAR 0137
ENCODING 311
SWIDTH 546 0
DWIDTH 22 0
BBX 19 36 3 -7
BITMAP
F80000
F80000
F80000
F80000
F80000
F80000
F80000
F80000
F81FC0
F83F80
F87F00
F87E00
F8FC00
F9F800
FBF000
FFE000
FFF000
FFF000
FFF800
FFF800
FEFC00
FC7E00
F87E00
F83F00
F83F00
F81F80
F80F80
F80FC0
F807E0
03E000
03F800
007800
003C00
007800
1FF000
1FC000
ENDCHAR
STARTCHAR 0138
ENCODING 312
SWIDTH 546 0
DWIDTH 22 0
BBX 19 21 3 0
BITMAP
F81FC0
F83F80
F87F00
F87E00
F8FC00
F9F800
FBF000
FFF000
FFF000
FFF000
FFF800
FFFC00
FEFC00
FC7E00
F87E00
F83F00
F81F00
F81F80
F80FC0
F80FC0
F807E0
ENDCHAR
STARTCHAR 0139
ENCODING 313
SWIDTH 595 0
DWIDTH 24 0
BBX 20 37 3 0
BITMAP
00FC00
01F800
01F000
01E000
03C000
038000
000000
000000
FC0000
FC0000
FC0000
FC0000
FC0000
FC0000
FC0000
FC0000
FC0000
FC0000
FC0000
FC0000
FC0000
FC0000
FC0000
FC0000
FC0000
FC0000
FC0000
FC0000
FC0000
FC0000
FC0000
FC0000
FFFFF0
FFFFF0
FFFFF0
FFFFF0
FFFFF0
ENDCHAR
STARTCHAR 013A
ENCODING 314
SWIDTH 273 0
DWIDTH 11 0
BBX 8 37 3 0
BITMAP
3F
7E
7C
F8
F0
E0
00
00
F8
F8
F8
F8
F8
F8
F8
F8
F8
F8
F8
F8
F8
F8
F8
F8
F8
F8
F8
F8
F8
F8
F8
F8
F8
F8
F8
F8
F8
ENDCHAR
STARTCHAR 013B
ENCODING 315
SWIDTH 595 0
DWIDTH 24 0
BBX 20 36 3 -7
BITMAP
FC0000
FC0000
FC0000
FC0000
FC0000
FC0000
FC0000
FC0000
FC0000
FC0000
FC0000
FC0000
FC0000
FC0000
FC0000
FC0000
FC0000
FC0000
FC0000
FC0000
FC0000
FC0000
FC0000
FC0000
FFFFF0
FFFFF0
FFFFF0
FFFFF0
FFFFF0
03F000
03F800
003C00
003C00
007C00
1FF800
1FE000
ENDCHAR
STARTCHAR 013C
ENCODING 316
SWIDTH 273 0
DWIDTH 11 0
BBX 10 36 0 -7
BITMAP
1F00
1F00
1F00
1F00
1F00
1F00
1F00
1F00
1F00
1F00
1F00
1F00
1F00
1F00
1F00
1F00
1F00
1F00
1F00
1F00
1F00
1F00
1F00
1F00
1F00
1F00
1F00
1F00
1F00
1F00
1FC0
03C0
03C0
03C0
FF80
FE00
ENDCHAR
STARTCHAR 013D
ENCODING 317
SWIDTH 595 0
DWIDTH 24 0
BBX 20 29 3 0
BITMAP
FC07E0
FC07E0
FC07E0
FC07E0
FC07E0
FC07E0
FC00E0
FC00E0
FC00C0
FC01C0
FC0380
FC0700
FC0200
FC0000
FC0000
FC0000
FC0000
FC0000
FC0000
FC0000
FC0000
FC0000
FC0000
FC0000
FFFFF0
FFFFF0
FFFFF0
FFFFF0
FFFFF0
ENDCHAR
STARTCHAR 013E
ENCODING 318
SWIDTH 372 0
DWIDTH 15 0
BBX 12 29 3 0
BITMAP
F9F0
F9F0
F9F0
F9F0
F9F0
F830
F830
F870
F8E0
F9C0
F880
F800
F800
F800
F800
F800
F800
F800
F800
F800
F800
F800
F800
F800
F800
F800
F800
F800
F800
ENDCHAR
STARTCHAR 013F
ENCODING 319
SWIDTH 595 0
DWIDTH 24 0
BBX 20 29 3 0
BITMAP
FC0000
FC0000
FC0000
FC0000
FC0000
FC0000
FC0000
FC0000
FC0000
FC0FC0
FC0FC0
FC0FC0
FC0FC0
FC0FC0
FC0FC0
FC0000
FC0000
FC0000
FC0000
FC0000
FC0000
FC0000
FC0000
FC0000
FFFFF0
FFFFF0
FFFFF0
FFFFF0
FFFFF0
ENDCHAR
STARTCHAR 0140
ENCODING 320
SWIDTH 471 0
DWIDTH 19 0
BBX 13 29 3 0
BITMAP
F800
F800
F800
F800
F800
F800
F800
F800
F800
F800
F8F8
F8F8
F8F8
F8F8
F8F8
F8F8
F800
F800
F800
F800
F800
F800
F800
F800
F800
F800
F800
F800
F800
ENDCHAR
STARTCHAR 0141
ENCODING 321
SWIDTH 595 0
DWIDTH 24 0
BBX 23 29 0 0
BITMAP
1F8000
1F8000
1F8000
1F8000
1F8000
1F8200
1F8600
1F8E00
1F9C00
1FB800
1FF000
1FE000
1FC000
1F8000
1F8000
1F8000
7F8000
FF8000
FF8000
9F8000
1F8000
1F8000
1F8000
1F8000
1FFFFE
1FFFFE
1FFFFE
1FFFFE
1FFFFE
ENDCHAR
STARTCHAR 0142
ENCODING 322
SWIDTH 273 0
DWIDTH 11 0
BBX 11 29 0 0
BITMAP
1F00
1F00
1F00
1F00
1F00
1F00
1F00
1F00
1F20
1F60
1FE0
1FC0
1F80
1F00
1F00
3F00
7F00
FF00
DF00
9F00
1F00
1F00
1F00
1F00
1F00
1F00
1F00
1F00
1F00
ENDCHAR
STARTCHAR 0143
ENCODING 323
SWIDTH 720 0
DWIDTH 29 0
BBX 23 37 3 0
BITMAP
003F00
003E00
007C00
007C00
00F800
00F000
000000
000000
FC007E
FC007E
FE007E
FF007E
FF007E
FF807E
FF807E
FFC07E
FFC07E
FBE07E
FBF07E
F9F07E
F9F87E
F8F87E
F87C7E
F87C7E
F83E7E
F83F7E
F81F7E
F81FFE
F80FFE
F807FE
F807FE
F803FE
F803FE
F801FE
F801FE
F800FE
F8007E
ENDCHAR
STARTCHAR 0144
ENCODING 324
SWIDTH 595 0
DWIDTH 24 0
BBX 19 29 3 0
BITMAP
007E00
00FC00
00F800
01F000
01E000
03C000
000000
000000
F87E00
F9FF80
FFFF80
FFFFC0
FF0FC0
FE07E0
FC07E0
FC07E0
F807E0
F807E0
F807E0
F807E0
F807E0
F807E0
F807E0
F807E0
F807E0
F807E0
F807E0
F807E0
F807E0
ENDCHAR
STARTCHAR 0145
ENCODING 325
SWIDTH 720 0
DWIDTH 29 0
BBX 23 36 3 -7
BITMAP
FC007E
FC007E
FE007E
FF007E
FF007E
FF807E
FF807E
FFC07E
FFC07E
FBE07E
FBF07E
F9F07E
F9F87E
F8F87E
F87C7E
F87C7E
F83E7E
F83F7E
F81F7E
F81FFE
F80FFE
F807FE
F807FE
F803FE
F803FE
F801FE
F801FE
F800FE
F8007E
00FC00
00FF00
000F00
000F00
000F00
03FE00
03F800
ENDCHAR
STARTCHAR 0146
ENCODING 326
SWIDTH 595 0
DWIDTH 24 0
BBX 19 28 3 -7
BITMAP
F87E00
F9FF80
FFFF80
FFFFC0
FF0FC0
FE07E0
FC07E0
FC07E0
F807E0
F807E0
F807E0
F807E0
F807E0
F807E0
F807E0
F807E0
F807E0
F807E0
F807E0
F807E0
F807E0
03F000
03F800
003C00
003C00
007C00
1FF800
1FE000
ENDCHAR
STARTCHAR 0147
ENCODING 327
SWIDTH 720 0
DWIDTH 29 0
BBX 23 37 3 0
BITMAP
078780
07CF80
03FF00
01FE00
01FE00
00FC00
000000
000000
FC007E
FC007E
FE007E
FF007E
FF007E
FF807E
FF807E
FFC07E
FFC07E
FBE07E
FBF07E
F9F07E
F9F87E
F8F87E
F87C7E
F87C7E
F83E7E
F83F7E
F81F7E
F81FFE
F80FFE
F807FE
F807FE
F803FE
F803FE
F801FE
F801FE
F800FE
F8007E
ENDCHAR
STARTCHAR 0148
ENCODING 328
SWIDTH 595 0
DWIDTH 24 0
BBX 19 29 3 0
BITMAP
1E1F00
0F3E00
0FBC00
07FC00
03F800
03F000
000000
000000
F87E00
F9FF80
FFFF80
FFFFC0
FF0FC0
FE07E0
FC07E0
FC07E0
F807E0
F807E0
F807E0
F807E0
F807E0
F807E0
F807E0
F807E0
F807E0
F807E0
F807E0
F807E0
F807E0
ENDCHAR
STARTCHAR 0149
ENCODING 329
SWIDTH 695 0
DWIDTH 28 0
BBX 26 29 -1 0
BITMAP
FC000000
FC000000
FC000000
FC000000
FC000000
FC000000
1C000000
1C000000
19F8FC00
39FBFF00
71FFFF80
E1FFFFC0
41FE1FC0
01FC0FC0
01FC07C0
01F807C0
01F807C0
01F807C0
01F807C0
01F807C0
01F807C0
01F807C0
01F807C0
01F807C0
01F807C0
01F807C0
01F807C0
01F807C0
01F807C0
ENDCHAR
STARTCHAR 014A
ENCODING 330
SWIDTH 720 0
DWIDTH 29 0
BBX 24 29 3 0
BITMAP
FC0FC0
FC7FF0
FCFFF8
FFFFFC
FFFFFC
FFC1FE
FF00FE
FE007E
FE007F
FC003F
FC003F
FC003F
FC003F
FC003F
FC003F
FC003F
FC003F
FC003F
FC003F
FC003F
FC003F
FC003F
FC007E
FC08FE
FC1FFE
FC1FFC
FC1FFC
FC3FF8
FC0FE0
ENDCHAR
STARTCHAR 014B
ENCODING 331
SWIDTH 595 0
DWIDTH 24 0
BBX 19 30 3 -9
BITMAP
F87E00
F9FF00
FFFF80
FFFFC0
FF0FC0
FC07C0
FC07E0
FC07E0
F807E0
F807E0
F807E0
F807E0
F807E0
F807E0
F807E0
F807E0
F807E0
F807E0
F807E0
F807E0
F807E0
0007E0
0007E0
0007E0
0007E0
007FC0
007FC0
007FC0
007F80
003E00
ENDCHAR
STARTCHAR 014C
ENCODING 332
SWIDTH 769 0
DWIDTH 31 0
BBX 28 35 2 0
BITMAP
01FFF000
01FFF000
01FFF000
01FFF000
00000000
00000000
007FC000
01FFF800
07FFFC00
0FFFFE00
1FFFFF00
3FE07F80
3F803FC0
7F001FC0
7E000FE0
FE0007E0
FC0007E0
FC0007E0
FC0007E0
FC0007E0
FC0003F0
FC0007F0
FC0007E0
FC0007E0
FC0007E0
FE0007E0
7E000FE0
7F001FC0
7F803FC0
3FE0FF80
1FFFFF00
0FFFFE00
07FFFC00
01FFF800
007FC000
ENDCHAR
STARTCHAR 014D
ENCODING 333
SWIDTH 595 0
DWIDTH 24 0
BBX 21 27 2 0
BITMAP
0FFF80
0FFF80
0FFF80
0FFF80
000000
000000
01FC00
0FFF00
1FFF80
3FFFE0
7F0FE0
7E03F0
FC03F0
FC01F8
F801F8
F801F8
F801F8
F801F8
F801F8
FC01F8
FC03F0
7E03F0
7F0FE0
3FFFC0
1FFF80
0FFF00
01FC00
ENDCHAR
STARTCHAR 014E
ENCODING 334
SWIDTH 769 0
DWIDTH 31 0
BBX 28 37 2 0
BITMAP
01C07000
00C0E000
00E0E000
007FC000
007FC000
001F0000
00000000
00000000
007FC000
01FFF800
07FFFC00
0FFFFE00
1FFFFF00
3FE07F80
3F803FC0
7F001FC0
7E000FE0
FE0007E0
FC0007E0
FC0007E0
FC0007E0
FC0007E0
FC0003F0
FC0007F0
FC0007E0
FC0007E0
FC0007E0
FE0007E0
7E000FE0
7F001FC0
7F803FC0
3FE0FF80
1FFFFF00
0FFFFE00
07FFFC00
01FFF800
007FC000
ENDCHAR
STARTCHAR 014F
ENCODING 335
SWIDTH 595 0
DWIDTH 24 0
BBX 21 29 2 0
BITMAP
0E0700
0E0700
070F00
07FE00
03FC00
00F800
000000
000000
01FC00
0FFF00
1FFF80
3FFFE0
7F0FE0
7E03F0
FC03F0
FC01F8
F801F8
F801F8
F801F8
F801F8
F801F8
FC01F8
FC03F0
7E03F0
7F0FE0
3FFFC0
1FFF80
0FFF00
01FC00
ENDCHAR
STARTCHAR 0150
ENCODING 336
SWIDTH 769 0
DWIDTH 31 0
BBX 28 37 2 0
BITMAP
003E7E00
007E7C00
007CF800
0078F000
00F1E000
00E1E000
00000000
00000000
007FC000
01FFF800
07FFFC00
0FFFFE00
1FFFFF00
3FE07F80
3F803FC0
7F001FC0
7E000FE0
FE0007E0
FC0007E0
FC0007E0
FC0007E0
FC0007E0
FC0003F0
FC0007F0
FC0007E0
FC0007E0
FC0007E0
FE0007E0
7E000FE0
7F001FC0
7F803FC0
3FE0FF80
1FFFFF00
0FFFFE00
07FFFC00
01FFF800
007FC000
ENDCHAR
STARTCHAR 0151
ENCODING 337
SWIDTH 595 0
DWIDTH 24 0
BBX 21 29 2 0
BITMAP
03F7E0
03E7C0
07C780
078F00
0F0F00
0E1E00
000000
000000
01FC00
0FFF00
1FFF80
3FFFE0
7F0FE0
7E03F0
FC03F0
FC01F8
F801F8
F801F8
F801F8
F801F8
F801F8
FC01F8
FC03F0
7E03F0
7F0FE0
3FFFC0
1FFF80
0FFF00
01FC00
ENDCHAR
STARTCHAR 0152
ENCODING 338
SWIDTH 993 0
DWIDTH 40 0
BBX 38 29 1 0
BITMAP
00FE1FFFF8
03FFDFFFF8
07FFFFFFF8
0FFFFFFFF8
1FFFFFFFF8
3FC1FF0000
3F807F0000
7F003F0000
7E003F0000
7E003F0000
7E001F0000
7C001FFFF0
FC001FFFF0
FC001FFFF0
FC001FFFF0
FC001FFFF0
FC001F0000
7E001F0000
7E001F0000
7E003F0000
7E003F0000
7F003F0000
3F807F0000
3FC1FF0000
1FFFFFFFFC
0FFFFFFFFC
07FFFFFFFC
03FFDFFFFC
00FE1FFFFC
ENDCHAR
STARTCHAR 0153
ENCODING 339
SWIDTH 943 0
DWIDTH 38 0
BBX 34 21 2 0
BITMAP
01FC07F000
0FFF1FFC00
1FFFBFFE00
3FFFFFFF00
7F0FFE1F80
7E03FC0F80
FC03F80F80
FC01F807C0
FC01F807C0
F801FFFFC0
F801FFFFC0
F801FFFFC0
FC01F80000
FC01F80000
FC03F80000
7E03FC0E00
7F0FFE1FC0
3FFFFFFF80
1FFFBFFF00
0FFF1FFE00
01FC07F800
ENDCHAR
STARTCHAR 0154
ENCODING 340
SWIDTH 720 0
DWIDTH 29 0
BBX 25 37 3 0
BITMAP
007E0000
00FC0000
00F80000
01F00000
01E00000
03C00000
00000000
00000000
FFFFC000
FFFFF000
FFFFF800
FFFFFC00
FFFFFE00
FC00FE00
FC007E00
FC007E00
FC007E00
FC007E00
FC007E00
FC00FE00
FFFFFC00
FFFFFC00
FFFFF000
FFFFE000
FFFF0000
FC3FC000
FC0FE000
FC0FF000
FC07F000
FC03F800
FC03FC00
FC01FC00
FC00FE00
FC00FF00
FC007F00
FC003F80
FC003F80
ENDCHAR
STARTCHAR 0155
ENCODING 341
SWIDTH 397 0
DWIDTH 16 0
BBX 13 29 3 0
BITMAP
07E0
0FC0
0F80
1F00
1E00
1C00
0000
0000
F9F0
FBF8
FFF8
FFF0
FFF0
FE10
FC00
FC00
F800
F800
F800
F800
F800
F800
F800
F800
F800
F800
F800
F800
F800
ENDCHAR
STARTCHAR 0156
ENCODING 342
SWIDTH 720 0
DWIDTH 29 0
BBX 25 36 3 -7
BITMAP
FFFFC000
FFFFF000
FFFFF800
FFFFFC00
FFFFFE00
FC00FE00
FC007E00
FC007E00
FC007E00
FC007E00
FC007E00
FC00FE00
FFFFFC00
FFFFFC00
FFFFF000
FFFFE000
FFFF0000
FC3FC000
FC0FE000
FC0FF000
FC07F000
FC03F800
FC03FC00
FC01FC00
FC00FE00
FC00FF00
FC007F00
FC003F80
FC003F80
00FC0000
00FF0000
000F0000
000F0000
000F0000
03FE0000
03F80000
ENDCHAR
STARTCHAR 0157
ENCODING 343
SWIDTH 397 0
DWIDTH 16 0
BBX 15 28 1 -7
BITMAP
3E7C
3EFE
3FFE
3FFC
3FFC
3F84
3F00
3F00
3E00
3E00
3E00
3E00
3E00
3E00
3E00
3E00
3E00
3E00
3E00
3E00
3E00
1F00
1FC0
03C0
01C0
03C0
FF80
FE00
ENDCHAR
STARTCHAR 0158
ENCODING 344
SWIDTH 720 0
DWIDTH 29 0
BBX 25 37 3 0
BITMAP
1F1F0000
0F3E0000
07BC0000
07FC0000
03F80000
01F00000
00000000
00000000
FFFFC000
FFFFF000
FFFFF800
FFFFFC00
FFFFFE00
FC00FE00
FC007E00
FC007E00
FC007E00
FC007E00
FC007E00
FC00FE00
FFFFFC00
FFFFFC00
FFFFF000
FFFFE000
FFFF0000
FC3FC000
FC0FE000
FC0FF000
FC07F000
FC03F800
FC03FC00
FC01FC00
FC00FE00
FC00FF00
FC007F00
FC003F80
FC003F80
ENDCHAR
STARTCHAR 0159
ENCODING 345
SWIDTH 397 0
DWIDTH 16 0
BBX 14 29 2 0
BITMAP
F0F0
79F0
7FE0
3FC0
1FC0
1F80
0000
0000
7CF8
7DFC
7FFC
7FF8
7FF8
7F08
7E00
7E00
7C00
7C00
7C00
7C00
7C00
7C00
7C00
7C00
7C00
7C00
7C00
7C00
7C00
ENDCHAR
STARTCHAR 015A
ENCODING 346
SWIDTH 670 0
DWIDTH 27 0
BBX 23 37 2 0
BITMAP
001F80
001F00
003E00
003C00
007C00
007800
000000
000000
01FE00
0FFFC0
1FFFE0
3FFFF0
7FFFF8
7F03F8
7C01FC
FC00FC
FC00FC
7E0000
7F8000
7FF800
3FFF80
1FFFE0
0FFFF0
03FFF8
003FFC
0003FC
0000FE
38007E
FC007E
FC007E
FE00FC
FF03FC
7FFFFC
3FFFF8
1FFFF0
0FFFE0
01FF00
ENDCHAR
STARTCHAR 015B
ENCODING 347
SWIDTH 546 0
DWIDTH 22 0
BBX 19 29 1 0
BITMAP
003F00
003E00
007C00
007C00
007800
00F000
000000
000000
07FC00
1FFF00
3FFF80
7FFFC0
7E0FC0
7C0700
7C0000
7E0000
7FC000
3FFC00
1FFF80
07FFC0
00FFE0
0007E0
0003E0
1C03E0
FE07E0
7FFFC0
3FFFC0
1FFF00
07FC00
ENDCHAR
STARTCHAR 015C
ENCODING 348
SWIDTH 670 0
DWIDTH 27 0
BBX 23 37 2 0
BITMAP
00FC00
00FE00
01FF00
03EF00
03CF80
07C7C0
000000
000000
01FE00
0FFFC0
1FFFE0
3FFFF0
7FFFF8
7F03F8
7C01FC
FC00FC
FC00FC
7E0000
7F8000
7FF800
3FFF80
1FFFE0
0FFFF0
03FFF8
003FFC
0003FC
0000FE
38007E
FC007E
FC007E
FE00FC
FF03FC
7FFFFC
3FFFF8
1FFFF0
0FFFE0
01FF00
ENDCHAR
STARTCHAR 015D
ENCODING 349
SWIDTH 546 0
DWIDTH 22 0
BBX 19 29 1 0
BITMAP
01F800
01FC00
03FC00
07FE00
079F00
0F0F00
000000
000000
07FC00
1FFF00
3FFF80
7FFFC0
7E0FC0
7C0700
7C0000
7E0000
7FC000
3FFC00
1FFF80
07FFC0
00FFE0
0007E0
0003E0
1C03E0
FE07E0
7FFFC0
3FFFC0
1FFF00
07FC00
ENDCHAR
STARTCHAR 015E
ENCODING 350
SWIDTH 670 0
DWIDTH 27 0
BBX 23 36 2 -7
BITMAP
01FE00
0FFFC0
1FFFE0
3FFFF0
7FFFF8
7F03F8
7C01FC
FC00FC
FC00FC
7E0000
7F8000
7FF800
3FFF80
1FFFE0
0FFFF0
03FFF8
003FFC
0003FC
0000FE
38007E
FC007E
FC007E
FE00FC
FF03FC
7FFFFC
3FFFF8
1FFFF0
0FFFE0
01FF00
00FE00
00FF00
000F80
000780
000F00
03FF00
03F800
ENDCHAR
STARTCHAR 015F
ENCODING 351
SWIDTH 546 0
DWIDTH 22 0
BBX 19 28 1 -7
BITMAP
07FC00
1FFF00
3FFF80
7FFFC0
7E0FC0
7C0700
7C0000
7E0000
7FC000
3FFC00
1FFF80
07FFC0
00FFE0
0007E0
0003E0
1C03E0
FE07E0
7FFFC0
3FFFC0
1FFF00
07FC00
00FC00
01FE00
000F00
000F00
001F00
07FE00
07F800
ENDCHAR
STARTCHAR 0160
ENCODING 352
SWIDTH 670 0
DWIDTH 27 0
BBX 23 37 2 0
BITMAP
078780
03CF80
03FF00
01FE00
00FE00
00FC00
000000
000000
01FE00
0FFFC0
1FFFE0
3FFFF0
7FFFF8
7F03F8
7C01FC
FC00FC
FC00FC
7E0000
7F8000
7FF800
3FFF80
1FFFE0
0FFFF0
03FFF8
003FFC
0003FC
0000FE
38007E
FC007E
FC007E
FE00FC
FF03FC
7FFFFC
3FFFF8
1FFFF0
0FFFE0
01FF00
ENDCHAR
STARTCHAR 0161
ENCODING 353
SWIDTH 546 0
DWIDTH 22 0
BBX 19 29 1 0
BITMAP
1F1F00
0F9E00
07BE00
07FC00
03F800
01F800
000000
000000
07FC00
1FFF00
3FFF80
7FFFC0
7E0FC0
7C0700
7C0000
7E0000
7FC000
3FFC00
1FFF80
07FFC0
00FFE0
0007E0
0003E0
1C03E0
FE07E0
7FFFC0
3FFFC0
1FFF00
07FC00
ENDCHAR
STARTCHAR 0162
ENCODING 354
SWIDTH 595 0
DWIDTH 24 0
BBX 23 42 1 -13
BITMAP
FFFFFE
FFFFFE
FFFFFE
FFFFFE
FFFFFE
00FC00
00FC00
00FC00
00FC00
00FC00
00FC00
00FC00
00FC00
00FC00
00FC00
00FC00
00FC00
00FC00
00FC00
00FC00
00FC00
00FC00
00FC00
00FC00
00FC00
00FC00
00FC00
00FC00
00FC00
000000
000000
000000
007C00
007C00
007C00
007C00
007C00
007C00
001C00
003800
007000
006000
ENDCHAR
STARTCHAR 0163
ENCODING 355
SWIDTH 322 0
DWIDTH 13 0
BBX 12 39 1 -11
BITMAP
0100
0700
1F00
3F00
3F00
3F00
3F00
FFE0
FFE0
FFE0
FFE0
3F00
3F00
3F00
3F00
3F00
3F00
3F00
3F00
3F00
3F00
3F00
3F00
3F00
3FE0
1FF0
1FF0
07E0
0000
0000
0F80
0F80
0F80
0F80
0F80
0380
0700
0E00
0400
ENDCHAR
STARTCHAR 0164
ENCODING 356
SWIDTH 595 0
DWIDTH 24 0
BBX 23 37 1 0
BITMAP
078780
07CF80
03FF00
01FE00
01FE00
00FC00
000000
000000
FFFFFE
FFFFFE
FFFFFE
FFFFFE
FFFFFE
00FC00
00FC00
00FC00
00FC00
00FC00
00FC00
00FC00
00FC00
00FC00
00FC00
00FC00
00FC00
00FC00
00FC00
00FC00
00FC00
00FC00
00FC00
00FC00
00FC00
00FC00
00FC00
00FC00
00FC00
ENDCHAR
STARTCHAR 0165
ENCODING 357
SWIDTH 471 0
DWIDTH 19 0
BBX 18 29 1 0
BITMAP
0007C0
0107C0
0707C0
1F07C0
3F07C0
3F00C0
3F01C0
3F01C0
FFE380
FFE700
FFE200
FFE000
3F0000
3F0000
3F0000
3F0000
3F0000
3F0000
3F0000
3F0000
3F0000
3F0000
3F0000
3F0000
3F0000
3FE000
1FF000
1FF000
07E000
ENDCHAR
STARTCHAR 0166
ENCODING 358
SWIDTH 595 0
DWIDTH 24 0
BBX 23 29 1 0
BITMAP
FFFFFE
FFFFFE
FFFFFE
FFFFFE
FFFFFE
00FC00
00FC00
00FC00
00FC00
00FC00
00FC00
00FC00
00FC00
00FC00
3FFFF0
3FFFF0
3FFFF0
3FFFF0
00FC00
00FC00
00FC00
00FC00
00FC00
00FC00
00FC00
00FC00
00FC00
00FC00
00FC00
ENDCHAR
STARTCHAR 0167
ENCODING 359
SWIDTH 322 0
DWIDTH 13 0
BBX 12 28 0 0
BITMAP
0100
0300
0F00
1F00
1F00
1F00
1F00
FFF0
FFF0
FFF0
FFF0
1F00
1F00
1F00
1F00
1F00
FFF0
FFF0
FFF0
FFF0
1F00
1F00
1F00
1F80
1FF0
1FF0
0FF0
07F0
ENDCHAR
STARTCHAR 0168
ENCODING 360
SWIDTH 720 0
DWIDTH 29 0
BBX 23 36 3 0
BITMAP
03C1C0
07F1C0
07FFC0
063F80
060F00
000000
000000
FC007E
FC007E
FC007E
FC007E
FC007E
FC007E
FC007E
FC007E
FC007E
FC007E
FC007E
FC007E
FC007E
FC007E
FC007E
FC007E
FC007E
FC007E
FC007E
FC007E
FC007C
FC00FC
FE00FC
7F83FC
7FFFF8
3FFFF8
1FFFF0
0FFFC0
01FF00
ENDCHAR
STARTCHAR 0169
ENCODING 361
SWIDTH 595 0
DWIDTH 24 0
BBX 19 28 3 0
BITMAP
0F0700
1FC700
1FFF00
38FE00
383C00
000000
000000
F807E0
F807E0
F807E0
F807E0
F807E0
F807E0
F807E0
F807E0
F807E0
F807E0
F807E0
F807E0
F807E0
F807E0
F807E0
FC0FE0
FE1FE0
FFFFE0
7FFBE0
3FF3E0
0FC3E0
ENDCHAR
STARTCHAR 016A
ENCODING 362
SWIDTH 720 0
DWIDTH 29 0
BBX 23 35 3 0
BITMAP
07FFC0
07FFC0
07FFC0
07FFC0
000000
000000
FC007E
FC007E
FC007E
FC007E
FC007E
FC007E
FC007E
FC007E
FC007E
FC007E
FC007E
FC007E
FC007E
FC007E
FC007E
FC007E
FC007E
FC007E
FC007E
FC007E
FC007C
FC00FC
FE00FC
7F83FC
7FFFF8
3FFFF8
1FFFF0
0FFFC0
01FF00
ENDCHAR
STARTCHAR 016B
ENCODING 363
SWIDTH 595 0
DWIDTH 24 0
BBX 19 27 3 0
BITMAP
1FFF00
1FFF00
1FFF00
1FFF00
000000
000000
F807E0
F807E0
F807E0
F807E0
F807E0
F807E0
F807E0
F807E0
F807E0
F807E0
F807E0
F807E0
F807E0
F807E0
F807E0
FC0FE0
FE1FE0
FFFFE0
7FFBE0
3FF3E0
0FC3E0
ENDCHAR
STARTCHAR 016C
ENCODING 364
SWIDTH 720 0
DWIDTH 29 0
BBX 23 37 3 0
BITMAP
070180
030380
038780
03FF00
01FF00
007C00
000000
000000
FC007E
FC007E
FC007E
FC007E
FC007E
FC007E
FC007E
FC007E
FC007E
FC007E
FC007E
FC007E
FC007E
FC007E
FC007E
FC007E
FC007E
FC007E
FC007E
FC007E
FC007C
FC00FC
FE00FC
7F83FC
7FFFF8
3FFFF8
1FFFF0
0FFFC0
01FF00
ENDCHAR
STARTCHAR 016D
ENCODING 365
SWIDTH 595 0
DWIDTH 24 0
BBX 19 29 3 0
BITMAP
1C0E00
1C0E00
0E1E00
0FFC00
07F800
01F000
000000
000000
F807E0
F807E0
F807E0
F807E0
F807E0
F807E0
F807E0
F807E0
F807E0
F807E0
F807E0
F807E0
F807E0
F807E0
F807E0
FC0FE0
FE1FE0
FFFFE0
7FFBE0
3FF3E0
0FC3E0
ENDCHAR
STARTCHAR 016E
ENCODING 366
SWIDTH 720 0
DWIDTH 29 0
BBX 23 39 3 0
BITMAP
007800
00FC00
00CE00
01C600
01C600
00CE00
00FC00
007800
000000
000000
FC007E
FC007E
FC007E
FC007E
FC007E
FC007E
FC007E
FC007E
FC007E
FC007E
FC007E
FC007E
FC007E
FC007E
FC007E
FC007E
FC007E
FC007E
FC007E
FC007E
FC007C
FC00FC
FE00FC
7F83FC
7FFFF8
3FFFF8
1FFFF0
0FFFC0
01FF00
ENDCHAR
STARTCHAR 016F
ENCODING 367
SWIDTH 595 0
DWIDTH 24 0
BBX 19 31 3 0
BITMAP
01E000
03F000
033800
071800
071800
033800
03F000
01E000
000000
000000
F807E0
F807E0
F807E0
F807E0
F807E0
F807E0
F807E0
F807E0
F807E0
F807E0
F807E0
F807E0
F807E0
F807E0
F807E0
FC0FE0
FE1FE0
FFFFE0
7FFBE0
3FF3E0
0FC3E0
ENDCHAR
STARTCHAR 0170
ENCODING 368
SWIDTH 720 0
DWIDTH 29 0
BBX 23 37 3 0
BITMAP
00F9F8
01F1F0
01F3E0
03E3C0
03C780
078780
000000
000000
FC007E
FC007E
FC007E
FC007E
FC007E
FC007E
FC007E
FC007E
FC007E
FC007E
FC007E
FC007E
FC007E
FC007E
FC007E
FC007E
FC007E
FC007E
FC007E
FC007E
FC007C
FC00FC
FE00FC
7F83FC
7FFFF8
3FFFF8
1FFFF0
0FFFC0
01FF00
ENDCHAR
STARTCHAR 0171
ENCODING 369
SWIDTH 595 0
DWIDTH 24 0
BBX 19 29 3 0
BITMAP
03E7E0
07C7C0
07CF80
0F8F00
0F1E00
1E1E00
000000
000000
F807E0
F807E0
F807E0
F807E0
F807E0
F807E0
F807E0
F807E0
F807E0
F807E0
F807E0
F807E0
F807E0
F807E0
F807E0
FC0FE0
FE1FE0
FFFFE0
7FFBE0
3FF3E0
0FC3E0
ENDCHAR
STARTCHAR 0172
ENCODING 370
SWIDTH 720 0
DWIDTH 29 0
BBX 23 37 3 -8
BITMAP
FC007E
FC007E
FC007E
FC007E
FC007E
FC007E
FC007E
FC007E
FC007E
FC007E
FC007E
FC007E
FC007E
FC007E
FC007E
FC007E
FC007E
FC007E
FC007E
FC007E
FC007C
FC00FC
FE00FC
7F83FC
7FFFF8
3FFFF8
1FFFF0
0FFFC0
01FF00
007000
007000
007000
007000
007800
007F80
003F80
001F80
ENDCHAR
STARTCHAR 0173
ENCODING 371
SWIDTH 595 0
DWIDTH 24 0
BBX 22 29 3 -8
BITMAP
F807E0
F807E0
F807E0
F807E0
F807E0
F807E0
F807E0
F807E0
F807E0
F807E0
F807E0
F807E0
F807E0
F807E0
F807E0
FC0FE0
FE1FE0
FFFFE0
7FFBE0
3FF3E0
0FC3E0
000700
000700
000700
000700
000780
0007FC
0003FC
0001F8
ENDCHAR
STARTCHAR 0174
ENCODING 372
SWIDTH 943 0
DWIDTH 38 0
BBX 38 37 0 0
BITMAP
0000FC0000
0001FC0000
0001FE0000
0003DF0000
0007CF0000
0007878000
0000000000
0000000000
FC01FE00FC
FC01FE00F8
7E01FE01F8
7E01FE01F8
7E03FF01F8
7E03FF01F0
3E03FF03F0
3F03FF03F0
3F07FF83F0
3F07CF83E0
1F07CF83E0
1F87CF87E0
1F8FCFC7E0
1F8F87C7C0
0F8F87C7C0
0F8F87C7C0
0FDF87EFC0
0FDF03EFC0
0FDF03EF80
07FF03EF80
07FE03FF80
07FE01FF80
07FE01FF00
03FE01FF00
03FC01FF00
03FC00FF00
03FC00FE00
01FC00FE00
01F800FE00
ENDCHAR
STARTCHAR 0175
ENCODING 373
SWIDTH 769 0
DWIDTH 31 0
BBX 31 29 0 0
BITMAP
0007C000
000FE000
001FF000
001EF800
003C7800
007C7C00
00000000
00000000
FC07C03E
7C07E07E
7C0FE07C
7E0FE07C
3E0FE0FC
3E0FF0F8
3E1FF0F8
1F1FF0F8
1F1EF1F0
1F3EF9F0
1F3EF9F0
0FBE7BE0
0FBC7BE0
0FFC7FE0
07FC7FE0
07FC3FC0
07F83FC0
03F83FC0
03F81F80
03F01F80
01F01F80
ENDCHAR
STARTCHAR 0176
ENCODING 374
SWIDTH 670 0
DWIDTH 27 0
BBX 26 37 0 0
BITMAP
001F0000
003F8000
007FC000
007BC000
00F1E000
01F1F000
00000000
00000000
FE000FC0
7F001FC0
7F001F80
3F803F80
1F807F00
1FC07E00
0FE0FE00
07E0FC00
07F1F800
03F1F800
03FBF000
01FFF000
00FFE000
00FFC000
007FC000
003F8000
003F0000
003F0000
003F0000
003F0000
003F0000
003F0000
003F0000
003F0000
003F0000
003F0000
003F0000
003F0000
003F0000
ENDCHAR
STARTCHAR 0177
ENCODING 375
SWIDTH 546 0
DWIDTH 22 0
BBX 21 37 0 -8
BITMAP
00FC00
00FE00
01FE00
03FF00
03CF80
078780
000000
000000
FC00F8
7E01F8
7E01F8
3E01F0
3F03F0
3F03F0
1F03E0
1F87E0
1F87E0
0F87C0
0FCFC0
07CF80
07CF80
07EF80
03FF00
03FF00
03FF00
01FE00
01FE00
00FE00
00FC00
00FC00
00F800
01F800
03F800
3FF000
3FF000
3FE000
3F8000
ENDCHAR
STARTCHAR 0178
ENCODING 376
SWIDTH 670 0
DWIDTH 27 0
BBX 26 35 0 0
BITMAP
01F1F000
01F1F000
01F1F000
01F1F000
00000000
00000000
FE000FC0
7F001FC0
7F001F80
3F803F80
1F807F00
1FC07E00
0FE0FE00
07E0FC00
07F1F800
03F1F800
03FBF000
01FFF000
00FFE000
00FFC000
007FC000
003F8000
003F0000
003F0000
003F0000
003F0000
003F0000
003F0000
003F0000
003F0000
003F0000
003F0000
003F0000
003F0000
003F0000
ENDCHAR
STARTCHAR 0179
ENCODING 377
SWIDTH 595 0
DWIDTH 24 0
BBX 24 37 0 0
BITMAP
001F80
003F00
003E00
003C00
007800
007000
000000
000000
3FFFFE
3FFFFE
3FFFFE
3FFFFE
3FFFFE
0001FC
0003F8
0007F0
0007F0
000FE0
001FC0
003F80
003F00
007F00
00FE00
01FC00
03F800
03F800
07F000
0FE000
1FC000
3F8000
3F8000
7F0000
FFFFFF
FFFFFF
FFFFFF
FFFFFF
FFFFFF
ENDCHAR
STARTCHAR 017A
ENCODING 378
SWIDTH 496 0
DWIDTH 20 0
BBX 18 29 1 0
BITMAP
00FC00
01F800
01F000
03E000
03C000
078000
000000
000000
FFFFC0
FFFFC0
FFFFC0
FFFFC0
003F80
007F00
00FF00
01FE00
01FC00
03F800
07F000
0FF000
1FE000
3FC000
3F8000
7F0000
FE0000
FFFFC0
FFFFC0
FFFFC0
FFFFC0
ENDCHAR
STARTCHAR 017B
ENCODING 379
SWIDTH 595 0
DWIDTH 24 0
BBX 24 36 0 0
BITMAP
003E00
003E00
003E00
003E00
003E00
000000
000000
3FFFFE
3FFFFE
3FFFFE
3FFFFE
3FFFFE
0001FC
0003F8
0007F0
0007F0
000FE0
001FC0
003F80
003F00
007F00
00FE00
01FC00
03F800
03F800
07F000
0FE000
1FC000
3F8000
3F8000
7F0000
FFFFFF
FFFFFF
FFFFFF
FFFFFF
FFFFFF
ENDCHAR
STARTCHAR 017C
ENCODING 380
SWIDTH 496 0
DWIDTH 20 0
BBX 18 28 1 0
BITMAP
03E000
03E000
03E000
03E000
03E000
000000
000000
FFFFC0
FFFFC0
FFFFC0
FFFFC0
003F80
007F00
00FF00
01FE00
01FC00
03F800
07F000
0FF000
1FE000
3FC000
3F8000
7F0000
FE0000
FFFFC0
FFFFC0
FFFFC0
FFFFC0
ENDCHAR
STARTCHAR 017D
ENCODING 381
SWIDTH 595 0
DWIDTH 24 0
BBX 24 37 0 0
BITMAP
03C3C0
03E7C0
01FF80
00FF00
00FE00
007E00
000000
000000
3FFFFE
3FFFFE
3FFFFE
3FFFFE
3FFFFE
0001FC
0003F8
0007F0
0007F0
000FE0
001FC0
003F80
003F00
007F00
00FE00
01FC00
03F800
03F800
07F000
0FE000
1FC000
3F8000
3F8000
7F0000
FFFFFF
FFFFFF
FFFFFF
FFFFFF
FFFFFF
ENDCHAR
STARTCHAR 017E
ENCODING 382
SWIDTH 496 0
DWIDTH 20 0
BBX 18 29 1 0
BITMAP
1E1E00
1F3E00
0FFC00
07F800
07F800
03F000
000000
000000
FFFFC0
FFFFC0
FFFFC0
FFFFC0
003F80
007F00
00FF00
01FE00
01FC00
03F800
07F000
0FF000
1FE000
3FC000
3F8000
7F0000
FE0000
FFFFC0
FFFFC0
FFFFC0
FFFFC0
ENDCHAR
STARTCHAR 017F
ENCODING 383
SWIDTH 273 0
DWIDTH 11 0
BBX 11 29 3 0
BITMAP
1F80
7FE0
7FC0
FFC0
FC00
F800
F800
F800
F800
F800
F800
F800
F800
F800
F800
F800
F800
F800
F800
F800
F800
F800
F800
F800
F800
F800
F800
F800
F800
ENDCHAR
STARTCHAR 018F
ENCODING 399
SWIDTH 720 0
DWIDTH 29 0
BBX 25 29 2 0
BITMAP
00FF0000
03FFE000
0FFFF000
1FFFF800
3FFFFC00
3FC1FE00
7F007F00
7E003F00
7E003F00
0C001F80
00001F80
00001F80
FFFFFF80
FFFFFF80
FFFFFF80
FFFFFF80
FFFFFF80
FC001F80
FC001F80
FC001F80
7E003F80
7E003F00
3F007F00
3FC1FE00
1FFFFC00
0FFFFC00
07FFF000
03FFE000
007F0000
ENDCHAR
STARTCHAR 0192
ENCODING 402
SWIDTH 546 0
DWIDTH 22 0
BBX 22 37 0 -8
BITMAP
0003F8
000FFC
001FFC
001FFC
001FFC
001F88
003F00
003F00
03FFF0
03FFE0
03FFE0
03FFE0
07FFE0
007E00
007E00
007C00
007C00
00FC00
00FC00
00FC00
00F800
00F800
00F800
01F800
01F800
01F800
01F000
01F000
03F000
03F000
03F000
47E000
FFE000
FFE000
FFE000
FFC000
7F0000
ENDCHAR
STARTCHAR 01A0
ENCODING 416
SWIDTH 844 0
DWIDTH 34 0
BBX 32 29 2 0
BITMAP
007FC01F
01FFF01F
07FFFC1F
0FFFFE1F
1FFFFF1F
3FE07F9F
3F803FC7
7F000FC7
7E000FC6
FE0007EE
FC0007FC
FC0007F0
FC0007E0
FC0007E0
FC0003F0
FC0007F0
FC0007E0
FC0007E0
FC0007E0
FE0007E0
7E000FE0
7F001FC0
7F803FC0
3FE07F80
1FFFFF00
0FFFFE00
07FFFC00
01FFF800
007FC000
ENDCHAR
STARTCHAR 01A1
ENCODING 417
SWIDTH 695 0
DWIDTH 28 0
BBX 26 21 2 0
BITMAP
01FC07C0
0FFF07C0
1FFF87C0
3FFFC7C0
7F0FE7C0
7E03F7C0
FC03F0C0
FC01F9C0
F801F9C0
F801FB80
F801FF00
F801FC00
F801F800
FC01F800
FC03F000
7E03F000
7F0FE000
3FFFC000
1FFF8000
0FFF0000
01FC0000
ENDCHAR
STARTCHAR 01AF
ENCODING 431
SWIDTH 819 0
DWIDTH 33 0
BBX 30 29 3 0
BITMAP
FC007E7C
FC007E7C
FC007E7C
FC007E7C
FC007E7C
FC007E7C
FC007E1C
FC007E1C
FC007E1C
FC007E38
FC007EF0
FC007FE0
FC007F80
FC007E00
FC007E00
FC007E00
FC007E00
FC007E00
FC007E00
FC007E00
FC007E00
FC00FC00
FE00FC00
7F83FC00
7FFFFC00
3FFFF800
1FFFF000
0FFFC000
01FF0000
ENDCHAR
STARTCHAR 01B0
ENCODING 432
SWIDTH 720 0
DWIDTH 29 0
BBX 26 21 3 0
BITMAP
F807EFC0
F807EFC0
F807EFC0
F807EFC0
F807EFC0
F807EFC0
F807E1C0
F807E1C0
F807E180
F807E380
F807EF00
F807FE00
F807F800
F807E000
F807E000
FC0FE000
FE1FE000
FFFFE000
7FFBE000
3FF3E000
0FC3E000
ENDCHAR
STARTCHAR 01CD
ENCODING 461
SWIDTH 720 0
DWIDTH 29 0
BBX 29 37 0 0
BITMAP
00F0F000
0079F000
007DE000
003FC000
001FC000
001F8000
00000000
00000000
001F8000
001FC000
003FC000
003FE000
007FE000
007FE000
007DF000
00F9F000
00F9F800
01F8F800
01F0F800
01F0FC00
03F07C00
03E07E00
03E07E00
07E03E00
07C03F00
0FFFFF00
0FFFFF80
0FFFFF80
1FFFFF80
1FFFFFC0
3F000FC0
3F000FE0
3F0007E0
7E0007E0
7E0003F0
7E0003F0
FC0003F8
ENDCHAR
STARTCHAR 01CE
ENCODING 462
SWIDTH 546 0
DWIDTH 22 0
BBX 20 29 1 0
BITMAP
0F0F00
079F00
07FE00
03FC00
01FC00
01F800
000000
000000
03FC00
0FFF80
1FFFC0
3FFFC0
3F0FC0
7E07E0
1C07E0
0007E0
000FE0
01FFE0
0FFFE0
3FE7E0
7E07E0
7C07E0
FC07E0
FC0FE0
7E1FE0
7FFFE0
7FFFE0
3FF3E0
0FC3F0
ENDCHAR
STARTCHAR 01CF
ENCODING 463
SWIDTH 273 0
DWIDTH 11 0
BBX 13 37 -1 0
BITMAP
F8F8
78F0
3DE0
3FE0
1FC0
0F80
0000
0000
0FC0
0FC0
0FC0
0FC0
0FC0
0FC0
0FC0
0FC0
0FC0
0FC0
0FC0
0FC0
0FC0
0FC0
0FC0
0FC0
0FC0
0FC0
0FC0
0FC0
0FC0
0FC0
0FC0
0FC0
0FC0
0FC0
0FC0
0FC0
0FC0
ENDCHAR
STARTCHAR 01D0
ENCODING 464
SWIDTH 273 0
DWIDTH 11 0
BBX 13 29 -1 0
BITMAP
F8F8
78F0
3DE0
3FE0
1FC0
0F80
0000
0000
0F80
0F80
0F80
0F80
0F80
0F80
0F80
0F80
0F80
0F80
0F80
0F80
0F80
0F80
0F80
0F80
0F80
0F80
0F80
0F80
0F80
ENDCHAR
STARTCHAR 01D1
ENCODING 465
SWIDTH 769 0
DWIDTH 31 0
BBX 28 37 2 0
BITMAP
01F1F000
00F1E000
007BC000
007FC000
003F8000
001F0000
00000000
00000000
007FC000
01FFF800
07FFFC00
0FFFFE00
1FFFFF00
3FE07F80
3F803FC0
7F001FC0
7E000FE0
FE0007E0
FC0007E0
FC0007E0
FC0007E0
FC0007E0
FC0003F0
FC0007F0
FC0007E0
FC0007E0
FC0007E0
FE0007E0
7E000FE0
7F001FC0
7F803FC0
3FE0FF80
1FFFFF00
0FFFFE00
07FFFC00
01FFF800
007FC000
ENDCHAR
STARTCHAR 01D2
ENCODING 466
SWIDTH 595 0
DWIDTH 24 0
BBX 21 29 2 0
BITMAP
0F0F00
079F00
07DE00
03FC00
01FC00
01F800
000000
000000
01FC00
0FFF00
1FFF80
3FFFE0
7F0FE0
7E03F0
FC03F0
FC01F8
F801F8
F801F8
F801F8
F801F8
F801F8
FC01F8
FC03F0
7E03F0
7F0FE0
3FFFC0
1FFF80
0FFF00
01FC00
ENDCHAR
STARTCHAR 01D3
ENCODING 467
SWIDTH 720 0
DWIDTH 29 0
BBX 23 37 3 0
BITMAP
07C7C0
03C780
01EF00
01FF00
00FE00
007C00
000000
000000
FC007E
FC007E
FC007E
FC007E
FC007E
FC007E
FC007E
FC007E
FC007E
FC007E
FC007E
FC007E
FC007E
FC007E
FC007E
FC007E
FC007E
FC007E
FC007E
FC007E
FC007C
FC00FC
FE00FC
7F83FC
7FFFF8
3FFFF8
1FFFF0
0FFFC0
01FF00
ENDCHAR
STARTCHAR 01D4
ENCODING 468
SWIDTH 595 0
DWIDTH 24 0
BBX 19 29 3 0
BITMAP
1E1E00
0F3E00
0FBC00
07F800
03F800
03F000
000000
000000
F807E0
F807E0
F807E0
F807E0
F807E0
F807E0
F807E0
F807E0
F807E0
F807E0
F807E0
F807E0
F807E0
F807E0
F807E0
FC0FE0
FE1FE0
FFFFE0
7FFBE0
3FF3E0
0FC3E0
ENDCHAR
STARTCHAR 01D5
ENCODING 469
SWIDTH 720 0
DWIDTH 29 0
BBX 23 37 3 0
BITMAP
03FF00
03FF00
000000
038300
038300
038300
000000
000000
FC007E
FC007E
FC007E
FC007E
FC007E
FC007E
FC007E
FC007E
FC007E
FC007E
FC007E
FC007E
FC007E
FC007E
FC007E
FC007E
FC007E
FC007E
FC007E
FC007E
FC007C
FC00FC
FE00FC
7F83FC
7FFFF8
3FFFF8
1FFFF0
0FFFC0
01FF00
ENDCHAR
STARTCHAR 01D6
ENCODING 470
SWIDTH 595 0
DWIDTH 24 0
BBX 19 37 3 0
BITMAP
1FFF00
1FFF00
1FFF00
1FFF00
000000
000000
000000
000000
000000
000000
1E1F00
1E1F00
1E1F00
1E1F00
000000
000000
F807E0
F807E0
F807E0
F807E0
F807E0
F807E0
F807E0
F807E0
F807E0
F807E0
F807E0
F807E0
F807E0
F807E0
F807E0
FC0FE0
FE1FE0
FFFFE0
7FFBE0
3FF3E0
0FC3E0
ENDCHAR
STARTCHAR 01D7
ENCODING 471
SWIDTH 720 0
DWIDTH 29 0
BBX 23 36 3 0
BITMAP
001F00
003C00
003800
038300
038300
038300
000000
FC007E
FC007E
FC007E
FC007E
FC007E
FC007E
FC007E
FC007E
FC007E
FC007E
FC007E
FC007E
FC007E
FC007E
FC007E
FC007E
FC007E
FC007E
FC007E
FC007E
FC007C
FC00FC
FE00FC
7F83FC
7FFFF8
3FFFF8
1FFFF0
0FFFC0
01FF00
ENDCHAR
STARTCHAR 01D8
ENCODING 472
SWIDTH 595 0
DWIDTH 24 0
BBX 19 36 3 0
BITMAP
007E00
00FC00
00F800
00F000
01E000
01C000
000000
000000
000000
1E1F00
1E1F00
1E1F00
1E1F00
000000
000000
F807E0
F807E0
F807E0
F807E0
F807E0
F807E0
F807E0
F807E0
F807E0
F807E0
F807E0
F807E0
F807E0
F807E0
F807E0
FC0FE0
FE1FE0
FFFFE0
7FFBE0
3FF3E0
0FC3E0
ENDCHAR
STARTCHAR 01D9
ENCODING 473
SWIDTH 720 0
DWIDTH 29 0
BBX 23 36 3 0
BITMAP
01CF00
00FE00
007C00
038300
038300
038300
000000
FC007E
FC007E
FC007E
FC007E
FC007E
FC007E
FC007E
FC007E
FC007E
FC007E
FC007E
FC007E
FC007E
FC007E
FC007E
FC007E
FC007E
FC007E
FC007E
FC007E
FC007C
FC00FC
FE00FC
7F83FC
7FFFF8
3FFFF8
1FFFF0
0FFFC0
01FF00
ENDCHAR
STARTCHAR 01DA
ENCODING 474
SWIDTH 595 0
DWIDTH 24 0
BBX 19 36 3 0
BITMAP
1E1E00
0F3E00
0FBC00
07F800
03F800
03F000
000000
000000
000000
1E1F00
1E1F00
1E1F00
1E1F00
000000
000000
F807E0
F807E0
F807E0
F807E0
F807E0
F807E0
F807E0
F807E0
F807E0
F807E0
F807E0
F807E0
F807E0
F807E0
F807E0
FC0FE0
FE1FE0
FFFFE0
7FFBE0
3FF3E0
0FC3E0
ENDCHAR
STARTCHAR 01DB
ENCODING 475
SWIDTH 720 0
DWIDTH 29 0
BBX 23 36 3 0
BITMAP
01E000
00F000
003800
038300
038300
038300
000000
FC007E
FC007E
FC007E
FC007E
FC007E
FC007E
FC007E
FC007E
FC007E
FC007E
FC007E
FC007E
FC007E
FC007E
FC007E
FC007E
FC007E
FC007E
FC007E
FC007E
FC007C
FC00FC
FE00FC
7F83FC
7FFFF8
3FFFF8
1FFFF0
0FFFC0
01FF00
ENDCHAR
STARTCHAR 01DC
ENCODING 476
SWIDTH 595 0
DWIDTH 24 0
BBX 19 36 3 0
BITMAP
0F8000
0FC000
07C000
03E000
01E000
00F000
000000
000000
000000
1E1F00
1E1F00
1E1F00
1E1F00
000000
000000
F807E0
F807E0
F807E0
F807E0
F807E0
F807E0
F807E0
F807E0
F807E0
F807E0
F807E0
F807E0
F807E0
F807E0
F807E0
FC0FE0
FE1FE0
FFFFE0
7FFBE0
3FF3E0
0FC3E0
ENDCHAR
STARTCHAR 01FA
ENCODING 506
SWIDTH 720 0
DWIDTH 29 0
BBX 29 42 0 0
BITMAP
0003F000
0007E000
0007C000
00078000
000F0000
000E0000
00000000
000F0000
001F8000
0019C000
0030C000
0030C000
0019C000
001F8000
001FC000
003FC000
003FE000
007FE000
007FE000
007DF000
00F9F000
00F9F800
01F8F800
01F0F800
01F0FC00
03F07C00
03E07E00
03E07E00
07E03E00
07C03F00
0FFFFF00
0FFFFF80
0FFFFF80
1FFFFF80
1FFFFFC0
3F000FC0
3F000FE0
3F0007E0
7E0007E0
7E0003F0
7E0003F0
FC0003F8
ENDCHAR
STARTCHAR 01FB
ENCODING 507
SWIDTH 546 0
DWIDTH 22 0
BBX 20 37 1 0
BITMAP
003F00
007E00
007C00
00F800
00F000
01E000
000000
00F000
01F800
019C00
030C00
030C00
019C00
01F800
00F000
000000
03FC00
0FFF80
1FFFC0
3FFFC0
3F0FC0
7E07E0
1C07E0
0007E0
000FE0
01FFE0
0FFFE0
3FE7E0
7E07E0
7C07E0
FC07E0
FC0FE0
7E1FE0
7FFFE0
7FFFE0
3FF3E0
0FC3F0
ENDCHAR
STARTCHAR 01FC
ENCODING 508
SWIDTH 993 0
DWIDTH 40 0
BBX 39 37 -1 0
BITMAP
00000FC000
00000FC000
00000F8000
00001F0000
00001E0000
00003C0000
0000000000
0000000000
000FFFFFFE
000FFFFFFE
000FFFFFFE
001FFFFFFE
001F1FFFFE
003F1F0000
003E1F0000
007E1F0000
007C1F0000
00FC1F0000
00FC1F0000
01F81FFFF8
01F81FFFF8
03F01FFFF8
03F01FFFF8
03E01FFFF8
07E01F0000
07FFFF0000
0FFFFF0000
0FFFFF0000
1FFFFF0000
1FFFFF0000
3F001F0000
3F001F0000
7F001FFFFE
7E001FFFFE
FE001FFFFE
FC001FFFFE
FC001FFFFE
ENDCHAR
STARTCHAR 01FD
ENCODING 509
SWIDTH 893 0
DWIDTH 36 0
BBX 32 29 2 0
BITMAP
0001F800
0001F000
0003E000
0003C000
0007C000
00078000
00000000
00000000
03FC1F80
1FFF7FE0
3FFFFFF8
7FFFFFFC
7E1FF0FC
FC0FE07E
180FC03E
000FC03E
001FC03E
03FFFFFF
1FFFFFFF
7FFFFFFF
FFCFC000
FC0FC000
F80FE000
F80FE038
FC1FF07E
FFFFFFFE
7FFFFFFC
3FF8FFF0
1FC01FC0
ENDCHAR
STARTCHAR 01FE
ENCODING 510
SWIDTH 769 0
DWIDTH 31 0
BBX 29 38 1 -2
BITMAP
0003F000
0003E000
0007C000
00078000
000F0000
000E0000
00000000
00000070
003FE078
00FFFCF0
03FFFFE0
07FFFFE0
0FFFFFC0
1FF03FC0
1FC00FE0
3F801FE0
3F003FF0
7F007FF0
7E00FBF0
7E01F3F0
7E03E3F0
7E07C3F0
7E0F83F8
7E1F03F0
7E3E03F0
7E3C03F0
7E7803F0
7EF003F0
3FF007F0
3FE00FE0
3FC01FE0
1FF07FC0
0FFFFF80
1FFFFF00
3FFFFE00
7DFFF800
F83FE000
30000000
ENDCHAR
STARTCHAR 01FF
ENCODING 511
SWIDTH 595 0
DWIDTH 24 0
BBX 21 29 2 -1
BITMAP
003F00
007E00
007C00
00F800
00F000
01E000
000000
000000
01FC30
07FF78
1FFFF0
3FFFE0
7F0FE0
7E07F0
FC0FF0
FC1FF8
F83DF8
F878F8
F8F0F8
F8E0F8
F9E1F8
FFC1F8
FF81F0
7F03F0
7F07E0
3FFFE0
7FFF80
FFFF00
61FC00
ENDCHAR
STARTCHAR 0259
ENCODING 601
SWIDTH 546 0
DWIDTH 22 0
BBX 19 21 2 0
BITMAP
07F800
1FFE00
3FFF00
7FFF80
7E1FC0
FC0FC0
3C07C0
0007E0
0007E0
FFFFE0
FFFFE0
FFFFE0
FFFFE0
F807E0
F807C0
7C0FC0
7E1F80
3FFF80
1FFF00
0FFE00
03F800
ENDCHAR
STARTCHAR 02C6
ENCODING 710
SWIDTH 322 0
DWIDTH 13 0
BBX 13 6 0 23
BITMAP
0FC0
1FC0
3FE0
3DF0
7CF0
F8F8
ENDCHAR
STARTCHAR 02C7
ENCODING 711
SWIDTH 322 0
DWIDTH 13 0
BBX 13 6 0 23
BITMAP
F8F8
7CF0
3DF0
3FE0
1FC0
0FC0
ENDCHAR
STARTCHAR 02C9
ENCODING 713
SWIDTH 322 0
DWIDTH 13 0
BBX 13 4 0 25
BITMAP
FFF8
FFF8
FFF8
FFF8
ENDCHAR
STARTCHAR 02D8
ENCODING 728
SWIDTH 322 0
DWIDTH 13 0
BBX 12 6 1 23
BITMAP
C070
E060
F0E0
7FE0
7FC0
1F00
ENDCHAR
STARTCHAR 02D9
ENCODING 729
SWIDTH 322 0
DWIDTH 13 0
BBX 5 5 4 24
BITMAP
F8
F8
F8
F8
F8
ENDCHAR
STARTCHAR 02DA
ENCODING 730
SWIDTH 322 0
DWIDTH 13 0
BBX 7 8 3 21
BITMAP
3C
7E
E6
C6
C6
E6
7E
38
ENDCHAR
STARTCHAR 02DB
ENCODING 731
SWIDTH 322 0
DWIDTH 13 0
BBX 9 8 3 -8
BITMAP
7000
E000
E000
F000
F000
FF80
7F80
3F00
ENDCHAR
STARTCHAR 02DC
ENCODING 732
SWIDTH 322 0
DWIDTH 13 0
BBX 13 5 0 24
BITMAP
7818
FE38
FFF8
E7F8
C0F0
ENDCHAR
STARTCHAR 02DD
ENCODING 733
SWIDTH 322 0
DWIDTH 13 0
BBX 15 6 2 23
BITMAP
3F3E
3E7C
7C7C
78F8
78F0
F1E0
ENDCHAR
STARTCHAR 0300
ENCODING 768
SWIDTH 0 0
DWIDTH 0 0
BBX 8 6 -11 31
BITMAP
FC
7C
3E
1E
1F
0F
ENDCHAR
STARTCHAR 0301
ENCODING 769
SWIDTH 0 0
DWIDTH 0 0
BBX 8 6 -8 31
BITMAP
3F
3E
7C
78
F8
F0
ENDCHAR
STARTCHAR 0303
ENCODING 771
SWIDTH 0 0
DWIDTH 0 0
BBX 13 5 -18 31
BITMAP
3C18
7F38
7FF8
E3F0
E0E0
ENDCHAR
STARTCHAR 0309
ENCODING 777
SWIDTH 0 0
DWIDTH 0 0
BBX 8 6 -9 31
BITMAP
FC
FF
07
07
3E
38
ENDCHAR
STARTCHAR 0323
ENCODING 803
SWIDTH 0 0
DWIDTH 0 0
BBX 5 6 -17 -9
BITMAP
F8
F8
F8
F8
F8
F8
ENDCHAR
STARTCHAR 037E
ENCODING 894
SWIDTH 322 0
DWIDTH 13 0
BBX 5 28 4 -7
BITMAP
F8
F8
F8
F8
F8
F8
00
00
00
00
00
00
00
00
00
F8
F8
F8
F8
F8
F8
38
38
38
70
F0
E0
80
ENDCHAR
STARTCHAR 0384
ENCODING 900
SWIDTH 322 0
DWIDTH 13 0
BBX 8 6 4 23
BITMAP
3F
3E
7C
78
F0
F0
ENDCHAR
STARTCHAR 0385
ENCODING 901
SWIDTH 471 0
DWIDTH 19 0
BBX 19 6 0 23
BITMAP
00F800
01F800
F1F3E0
F1E3E0
F3C3E0
F3C3E0
ENDCHAR
STARTCHAR 0386
ENCODING 902
SWIDTH 720 0
DWIDTH 29 0
BBX 29 29 0 0
BITMAP
3F9FC000
3F1FC000
7E3FC000
F83FE000
F07FE000
007FF000
007DF000
00F9F000
00F9F800
00F8F800
01F0FC00
01F0FC00
03F07C00
03F07E00
03E07E00
07E03E00
07E03F00
0FFFFF00
0FFFFF80
0FFFFF80
1FFFFF80
1FFFFFC0
1F000FC0
3F0007E0
3F0007E0
7E0007E0
7E0003F0
7E0003F0
FC0003F8
ENDCHAR
STARTCHAR 0387
ENCODING 903
SWIDTH 322 0
DWIDTH 13 0
BBX 5 6 4 15
BITMAP
F8
F8
F8
F8
F8
F8
ENDCHAR
STARTCHAR 0388
ENCODING 904
SWIDTH 844 0
DWIDTH 34 0
BBX 33 29 -1 0
BITMAP
3F9FFFFF80
3F1FFFFF80
7E1FFFFF80
7C1FFFFF80
F01FFFFF80
001F800000
001F800000
001F800000
001F800000
001F800000
001F800000
001FFFFF00
001FFFFF00
001FFFFF00
001FFFFF00
001FFFFF00
001F800000
001F800000
001F800000
001F800000
001F800000
001F800000
001F800000
001F800000
001FFFFF80
001FFFFF80
001FFFFF80
001FFFFF80
001FFFFF80
ENDCHAR
STARTCHAR 0389
ENCODING 905
SWIDTH 893 0
DWIDTH 36 0
BBX 34 29 -1 0
BITMAP
3F9F800FC0
3F1F800FC0
7E1F800FC0
7C1F800FC0
F01F800FC0
001F800FC0
001F800FC0
001F800FC0
001F800FC0
001F800FC0
001F800FC0
001FFFFFC0
001FFFFFC0
001FFFFFC0
001FFFFFC0
001FFFFFC0
001F800FC0
001F800FC0
001F800FC0
001F800FC0
001F800FC0
001F800FC0
001F800FC0
001F800FC0
001F800FC0
001F800FC0
001F800FC0
001F800FC0
001F800FC0
ENDCHAR
STARTCHAR 038A
ENCODING 906
SWIDTH 471 0
DWIDTH 19 0
BBX 17 29 -1 0
BITMAP
3F9F80
3F1F80
7E1F80
7C1F80
F01F80
001F80
001F80
001F80
001F80
001F80
001F80
001F80
001F80
001F80
001F80
001F80
001F80
001F80
001F80
001F80
001F80
001F80
001F80
001F80
001F80
001F80
001F80
001F80
001F80
ENDCHAR
STARTCHAR 038C
ENCODING 908
SWIDTH 819 0
DWIDTH 33 0
BBX 32 29 -1 0
BITMAP
3F83FE00
7F1FFF80
7C3FFFE0
F87FFFF0
F0FFFFF8
01FF07FC
03FC01FC
03F800FE
07F0007E
07E0003F
07E0003F
07E0003F
07E0003F
07E0003F
07E0003F
07E0003F
07E0003F
07E0003F
07E0003F
07E0007F
07F0007E
03F800FE
03FC01FC
01FF07FC
00FFFFF8
007FFFF0
003FFFE0
001FFF80
0003FE00
ENDCHAR
STARTCHAR 038E
ENCODING 910
SWIDTH 918 0
DWIDTH 37 0
BBX 38 29 -1 0
BITMAP
1FCFC001FC
3F0FE001F8
7E07F003F8
7C03F007F0
F803F807E0
0001F80FE0
0001FC0FC0
0000FC1F80
00007E1F80
00007F3F00
00003F7F00
00001FFE00
00001FFC00
00000FFC00
00000FF800
000007F000
000003F000
000003F000
000003F000
000003F000
000003F000
000003F000
000003F000
000003F000
000003F000
000003F000
000003F000
000003F000
000003F000
ENDCHAR
STARTCHAR 038F
ENCODING 911
SWIDTH 844 0
DWIDTH 34 0
BBX 34 29 -2 0
BITMAP
1FC1FF0000
3F8FFFE000
3E1FFFF000
7C3FFFF800
F87FFFFC00
00FF83FE00
01FE00FF00
01FC007F00
03F8003F80
03F8003F80
03F0001F80
03F0001F80
03F0001F80
03F0001F80
03F0001F80
03F0001F80
03F0001F80
01F0001F00
01F8003F00
00F8003E00
00FC007E00
007E00FC00
003F01F800
003F83F800
07FFCFFFC0
07FFCFFFC0
07FFCFFFC0
07FFCFFFC0
07FFCFFFC0
ENDCHAR
STARTCHAR 0390
ENCODING 912
SWIDTH 273 0
DWIDTH 11 0
BBX 19 29 -4 0
BITMAP
00F800
01F800
F9F3E0
F9E3E0
FBC3E0
FBC3E0
000000
000000
01F000
01F000
01F000
01F000
01F000
01F000
01F000
01F000
01F000
01F000
01F000
01F000
01F000
01F000
01F000
01F000
01F000
01F000
01F000
01F000
01F000
ENDCHAR
STARTCHAR 0391
ENCODING 913
SWIDTH 720 0
DWIDTH 29 0
BBX 29 29 0 0
BITMAP
001F8000
001FC000
003FC000
003FE000
007FE000
007FE000
007DF000
00F9F000
00F9F800
01F8F800
01F0F800
01F0FC00
03F07C00
03E07E00
03E07E00
07E03E00
07C03F00
0FFFFF00
0FFFFF80
0FFFFF80
1FFFFF80
1FFFFFC0
3F000FC0
3F000FE0
3F0007E0
7E0007E0
7E0003F0
7E0003F0
FC0003F8
ENDCHAR
STARTCHAR 0392
ENCODING 914
SWIDTH 720 0
DWIDTH 29 0
BBX 24 29 3 0
BITMAP
FFFF80
FFFFE0
FFFFF8
FFFFF8
FFFFFC
FC01FC
FC00FC
FC007E
FC007C
FC007C
FC00FC
FC01F8
FFFFF8
FFFFF0
FFFFF0
FFFFF8
FFFFFC
FC00FE
FC007F
FC003F
FC003F
FC003F
FC007F
FC00FE
FFFFFE
FFFFFC
FFFFFC
FFFFF8
FFFFC0
ENDCHAR
STARTCHAR 0393
ENCODING 915
SWIDTH 595 0
DWIDTH 24 0
BBX 20 29 3 0
BITMAP
FFFFF0
FFFFF0
FFFFF0
FFFFF0
FFFFF0
FC0000
FC0000
FC0000
FC0000
FC0000
FC0000
FC0000
FC0000
FC0000
FC0000
FC0000
FC0000
FC0000
FC0000
FC0000
FC0000
FC0000
FC0000
FC0000
FC0000
FC0000
FC0000
FC0000
FC0000
ENDCHAR
STARTCHAR 0394
ENCODING 916
SWIDTH 720 0
DWIDTH 29 0
BBX 29 29 0 0
BITMAP
001F8000
001FC000
003FC000
003FE000
007FE000
007FE000
007FF000
00FFF000
00FDF800
01F9F800
01F9F800
01F8FC00
03F0FC00
03F07E00
03E07E00
07E07E00
07E03F00
0FC03F00
0FC03F80
0FC01F80
1F801F80
1F800FC0
3F000FC0
3F000FE0
3FFFFFE0
7FFFFFE0
7FFFFFF0
7FFFFFF0
FFFFFFF8
ENDCHAR
STARTCHAR 0395
ENCODING 917
SWIDTH 670 0
DWIDTH 27 0
BBX 22 29 3 0
BITMAP
FFFFF8
FFFFF8
FFFFF8
FFFFF8
FFFFF8
FC0000
FC0000
FC0000
FC0000
FC0000
FC0000
FFFFF0
FFFFF0
FFFFF0
FFFFF0
FFFFF0
FC0000
FC0000
FC0000
FC0000
FC0000
FC0000
FC0000
FC0000
FFFFFC
FFFFFC
FFFFFC
FFFFFC
FFFFFC
ENDCHAR
STARTCHAR 0396
ENCODING 918
SWIDTH 595 0
DWIDTH 24 0
BBX 24 29 0 0
BITMAP
3FFFFE
3FFFFE
3FFFFE
3FFFFE
3FFFFE
0001FC
0003F8
0007F0
0007F0
000FE0
001FC0
003F80
003F00
007F00
00FE00
01FC00
03F800
03F800
07F000
0FE000
1FC000
3F8000
3F8000
7F0000
FFFFFF
FFFFFF
FFFFFF
FFFFFF
FFFFFF
ENDCHAR
STARTCHAR 0397
ENCODING 919
SWIDTH 720 0
DWIDTH 29 0
BBX 23 29 3 0
BITMAP
FC007E
FC007E
FC007E
FC007E
FC007E
FC007E
FC007E
FC007E
FC007E
FC007E
FC007E
FFFFFE
FFFFFE
FFFFFE
FFFFFE
FFFFFE
FC007E
FC007E
FC007E
FC007E
FC007E
FC007E
FC007E
FC007E
FC007E
FC007E
FC007E
FC007E
FC007E
ENDCHAR
STARTCHAR 0398
ENCODING 920
SWIDTH 769 0
DWIDTH 31 0
BBX 27 29 2 0
BITMAP
007FC000
01FFF800
07FFFC00
0FFFFE00
1FFFFF00
3FE07F80
7F803FC0
7F001FC0
7E000FE0
FC0007E0
FC0007E0
FC0007E0
FC7FC7E0
FC7FC7E0
FC7FC7E0
FC7FC7E0
FC7FC7E0
FC0007E0
FC0007E0
FE0007E0
7E000FE0
7F001FC0
7F803FC0
3FE0FF80
1FFFFF00
0FFFFE00
07FFFC00
03FFF800
007FC000
ENDCHAR
STARTCHAR 0399
ENCODING 921
SWIDTH 273 0
DWIDTH 11 0
BBX 6 29 3 0
BITMAP
FC
FC
FC
FC
FC
FC
FC
FC
FC
FC
FC
FC
FC
FC
FC
FC
FC
FC
FC
FC
FC
FC
FC
FC
FC
FC
FC
FC
FC
ENDCHAR
STARTCHAR 039A
ENCODING 922
SWIDTH 720 0
DWIDTH 29 0
BBX 26 29 3 0
BITMAP
FC007F80
FC00FF00
FC01FE00
FC03FC00
FC07F800
FC0FF000
FC1FE000
FC3FC000
FC7F8000
FCFF0000
FDFE0000
FFFE0000
FFFE0000
FFFF0000
FFFF0000
FFFF8000
FFDFC000
FF8FC000
FF0FE000
FE07F000
FC07F000
FC03F800
FC03FC00
FC01FC00
FC00FE00
FC00FF00
FC007F00
FC007F80
FC003FC0
ENDCHAR
STARTCHAR 039B
ENCODING 923
SWIDTH 670 0
DWIDTH 27 0
BBX 26 29 0 0
BITMAP
003F8000
003F8000
007F8000
007FC000
007FC000
00FFC000
00FFE000
00FFE000
01FBE000
01F3F000
01F3F000
03F1F000
03E1F800
07E1F800
07E0FC00
07C0FC00
0FC0FC00
0FC07E00
0F807E00
1F807E00
1F803F00
1F803F00
3F003F00
3F001F80
3F001F80
7E001F80
7E000FC0
7E000FC0
FC000FC0
ENDCHAR
STARTCHAR 039C
ENCODING 924
SWIDTH 819 0
DWIDTH 33 0
BBX 27 29 3 0
BITMAP
FF801FE0
FF803FE0
FF803FE0
FF803FE0
FFC03FE0
FFC07FE0
FFC07FE0
FBC07FE0
FBE07FE0
FBE0FBE0
FBE0FBE0
F9F0FBE0
F9F0FBE0
F9F1F3E0
F9F1F3E0
F8F9F3E0
F8F9F3E0
F8FBE3E0
F8FBE3E0
F87FE3E0
F87FE3E0
F87FC3E0
F87FC3E0
F83FC3E0
F83FC3E0
F83F83E0
F83F83E0
F81F83E0
F81F83E0
ENDCHAR
STARTCHAR 039D
ENCODING 925
SWIDTH 720 0
DWIDTH 29 0
BBX 23 29 3 0
BITMAP
FC007E
FC007E
FE007E
FF007E
FF007E
FF807E
FF807E
FFC07E
FFC07E
FBE07E
FBF07E
F9F07E
F9F87E
F8F87E
F87C7E
F87C7E
F83E7E
F83F7E
F81F7E
F81FFE
F80FFE
F807FE
F807FE
F803FE
F803FE
F801FE
F801FE
F800FE
F8007E
ENDCHAR
STARTCHAR 039E
ENCODING 926
SWIDTH 645 0
DWIDTH 26 0
BBX 22 29 2 0
BITMAP
7FFFF8
7FFFF8
7FFFF8
7FFFF8
7FFFF8
000000
000000
000000
000000
000000
000000
3FFFF0
3FFFF0
3FFFF0
3FFFF0
3FFFF0
000000
000000
000000
000000
000000
000000
000000
000000
FFFFFC
FFFFFC
FFFFFC
FFFFFC
FFFFFC
ENDCHAR
STARTCHAR 039F
ENCODING 927
SWIDTH 769 0
DWIDTH 31 0
BBX 28 29 2 0
BITMAP
007FC000
01FFF800
07FFFC00
0FFFFE00
1FFFFF00
3FE07F80
3F803FC0
7F001FC0
7E000FE0
FE0007E0
FC0007E0
FC0007E0
FC0007E0
FC0007E0
FC0003F0
FC0007F0
FC0007E0
FC0007E0
FC0007E0
FE0007E0
7E000FE0
7F001FC0
7F803FC0
3FE0FF80
1FFFFF00
0FFFFE00
07FFFC00
01FFF800
007FC000
ENDCHAR
STARTCHAR 03A0
ENCODING 928
SWIDTH 720 0
DWIDTH 29 0
BBX 23 29 3 0
BITMAP
FFFFFE
FFFFFE
FFFFFE
FFFFFE
FFFFFE
FC007E
FC007E
FC007E
FC007E
FC007E
FC007E
FC007E
FC007E
FC007E
FC007E
FC007E
FC007E
FC007E
FC007E
FC007E
FC007E
FC007E
FC007E
FC007E
FC007E
FC007E
FC007E
FC007E
FC007E
ENDCHAR
STARTCHAR 03A1
ENCODING 929
SWIDTH 670 0
DWIDTH 27 0
BBX 22 29 3 0
BITMAP
FFFF00
FFFFC0
FFFFF0
FFFFF0
FFFFF8
FC03F8
FC01FC
FC00FC
FC00FC
FC00FC
FC00FC
FC01FC
FC03F8
FFFFF8
FFFFF0
FFFFE0
FFFFC0
FFFF00
FC0000
FC0000
FC0000
FC0000
FC0000
FC0000
FC0000
FC0000
FC0000
FC0000
FC0000
ENDCHAR
STARTCHAR 03A3
ENCODING 931
SWIDTH 595 0
DWIDTH 24 0
BBX 21 29 2 0
BITMAP
FFFFF0
FFFFF0
FFFFF0
FFFFF0
FFFFF0
7F0000
7F0000
3F8000
1FC000
0FE000
07F000
03F800
03F800
01FC00
01FC00
03F800
07F800
0FF000
1FE000
1FC000
3F8000
7F8000
FF0000
FE0000
FFFFF8
FFFFF8
FFFFF8
FFFFF8
FFFFF8
ENDCHAR
STARTCHAR 03A4
ENCODING 932
SWIDTH 595 0
DWIDTH 24 0
BBX 23 29 1 0
BITMAP
FFFFFE
FFFFFE
FFFFFE
FFFFFE
FFFFFE
00FC00
00FC00
00FC00
00FC00
00FC00
00FC00
00FC00
00FC00
00FC00
00FC00
00FC00
00FC00
00FC00
00FC00
00FC00
00FC00
00FC00
00FC00
00FC00
00FC00
00FC00
00FC00
00FC00
00FC00
ENDCHAR
STARTCHAR 03A5
ENCODING 933
SWIDTH 670 0
DWIDTH 27 0
BBX 26 29 0 0
BITMAP
FE000FC0
7F001FC0
7F001F80
3F803F80
1F807F00
1FC07E00
0FE0FE00
07E0FC00
07F1F800
03F1F800
03FBF000
01FFF000
00FFE000
00FFC000
007FC000
003F8000
003F0000
003F0000
003F0000
003F0000
003F0000
003F0000
003F0000
003F0000
003F0000
003F0000
003F0000
003F0000
003F0000
ENDCHAR
STARTCHAR 03A6
ENCODING 934
SWIDTH 819 0
DWIDTH 33 0
BBX 29 29 2 0
BITMAP
000F8000
000F8000
000F8000
00FFF800
07FFFE00
0FFFFF80
1FFFFFC0
3FFFFFE0
7F8F9FF0
7F0F87F0
FE0F83F8
FC0F81F8
FC0F81F8
FC0F81F8
FC0F81F8
FC0F81F8
FC0F81F8
FC0F81F8
FE0F83F0
7F0F87F0
7F8F9FE0
3FFFFFE0
1FFFFFC0
0FFFFF80
03FFFE00
00FFF800
000F8000
000F8000
000F8000
ENDCHAR
STARTCHAR 03A7
ENCODING 935
SWIDTH 670 0
DWIDTH 27 0
BBX 26 29 0 0
BITMAP
7F001F80
3F803F80
1F807F00
1FC07E00
0FE0FE00
0FE1FC00
07F1FC00
03FBF800
03FFF000
01FFF000
00FFE000
00FFC000
007FC000
003F8000
003F8000
007FC000
00FFC000
00FFE000
01FFF000
03FBF000
03F3F800
07F1FC00
0FE1FC00
0FE0FE00
1FC07F00
3F807F00
3F803F80
7F001FC0
FE001FC0
ENDCHAR
STARTCHAR 03A8
ENCODING 936
SWIDTH 794 0
DWIDTH 32 0
BBX 29 29 2 0
BITMAP
F81F81F8
F81F81F8
F81F81F8
F81F81F8
F81F81F8
F81F81F8
F81F81F8
F81F81F8
F81F81F8
FC1F81F8
FC1F81F8
FC1F81F8
FC1F83F0
FC1F83F0
FE1F87F0
7F9F8FF0
7FFFFFE0
3FFFFFC0
1FFFFF80
07FFFF00
01FFF800
001F8000
001F8000
001F8000
001F8000
001F8000
001F8000
001F8000
001F8000
ENDCHAR
STARTCHAR 03A9
ENCODING 937
SWIDTH 794 0
DWIDTH 32 0
BBX 28 29 2 0
BITMAP
003FC000
01FFF800
07FFFE00
0FFFFF00
1FFFFF80
3FE07FC0
3F801FC0
7F000FE0
7F000FE0
7E0007E0
FE0007F0
FE0007F0
FC0003F0
FC0003F0
FC0003F0
7C0003E0
7E0007E0
7E0007E0
3E0007C0
3F000FC0
1F000F80
1F801F80
0FC03F00
07F0FE00
FFF9FFF0
FFF9FFF0
FFF9FFF0
FFF9FFF0
FFF9FFF0
ENDCHAR
STARTCHAR 03AA
ENCODING 938
SWIDTH 273 0
DWIDTH 11 0
BBX 13 35 -1 0
BITMAP
F8F8
F8F8
F8F8
F8F8
0000
0000
0FC0
0FC0
0FC0
0FC0
0FC0
0FC0
0FC0
0FC0
0FC0
0FC0
0FC0
0FC0
0FC0
0FC0
0FC0
0FC0
0FC0
0FC0
0FC0
0FC0
0FC0
0FC0
0FC0
0FC0
0FC0
0FC0
0FC0
0FC0
0FC0
ENDCHAR
STARTCHAR 03AB
ENCODING 939
SWIDTH 670 0
DWIDTH 27 0
BBX 26 35 0 0
BITMAP
03E1F000
03E1F000
03E1F000
03E1F000
00000000
00000000
FE000FC0
7F001FC0
7F001F80
3F803F80
1F807F00
1FC07E00
0FE0FE00
07E0FC00
07F1F800
03F1F800
03FBF000
01FFF000
00FFE000
00FFC000
007FC000
003F8000
003F0000
003F0000
003F0000
003F0000
003F0000
003F0000
003F0000
003F0000
003F0000
003F0000
003F0000
003F0000
003F0000
ENDCHAR
STARTCHAR 03AC
ENCODING 940
SWIDTH 620 0
DWIDTH 25 0
BBX 21 29 2 0
BITMAP
001F80
003F00
003E00
007C00
007800
00F000
000000
000000
07F0F8
1FF8F8
3FFEF0
7FFFF0
7F1FF0
FE0FF0
FC07E0
FC07E0
F803E0
F803E0
F803E0
F803E0
F803E0
FC07E0
FC07E0
7E07E0
7F1FF0
3FFFF0
1FFEF0
0FFCF0
03F0F8
ENDCHAR
STARTCHAR 03AD
ENCODING 941
SWIDTH 471 0
DWIDTH 19 0
BBX 16 29 2 0
BITMAP
01F8
03F0
03E0
07C0
0780
0700
0000
0000
0FF0
3FFE
7FFE
7FFC
FE18
FC00
FC00
7E00
7FE0
3FE0
3FE0
7FE0
FE00
F800
F800
F808
FC3C
FFFF
7FFF
3FFC
0FE0
ENDCHAR
STARTCHAR 03AE
ENCODING 942
SWIDTH 595 0
DWIDTH 24 0
BBX 19 37 3 -8
BITMAP
007E00
00FC00
00F800
01F000
01E000
03C000
000000
000000
F87E00
F9FF00
FFFF80
FFFFC0
FF0FC0
FC07E0
FC07E0
FC07E0
F807E0
F807E0
F807E0
F807E0
F807E0
F807E0
F807E0
F807E0
F807E0
F807E0
F807E0
F807E0
F807E0
0007E0
0007E0
0007E0
0007E0
0007E0
0007E0
0007E0
0007E0
ENDCHAR
STARTCHAR 03AF
ENCODING 943
SWIDTH 273 0
DWIDTH 11 0
BBX 8 29 3 0
BITMAP
3F
3E
7C
78
F0
F0
00
00
F8
F8
F8
F8
F8
F8
F8
F8
F8
F8
F8
F8
F8
F8
F8
F8
F8
F8
F8
F8
F8
ENDCHAR
STARTCHAR 03B0
ENCODING 944
SWIDTH 571 0
DWIDTH 23 0
BBX 19 29 2 0
BITMAP
00FC00
00F800
F9F3E0
F9E3E0
F9E3E0
FBC3E0
000000
000000
FC07E0
FC07E0
FC07E0
FC07E0
FC07E0
FC07E0
FC07E0
FC07E0
FC07E0
FC07E0
FC07E0
FC07E0
FC07E0
7C07E0
7C07E0
7E07C0
7F0FC0
3FFF80
1FFF00
0FFE00
03F800
ENDCHAR
STARTCHAR 03B1
ENCODING 945
SWIDTH 620 0
DWIDTH 25 0
BBX 21 21 2 0
BITMAP
07F0F8
1FF8F8
3FFEF0
7FFFF0
7F1FF0
FE0FF0
FC07E0
FC07E0
F803E0
F803E0
F803E0
F803E0
F803E0
FC07E0
FC07E0
7E07E0
7F1FF0
3FFFF0
1FFEF0
0FFCF0
03F0F8
ENDCHAR
STARTCHAR 03B2
ENCODING 946
SWIDTH 595 0
DWIDTH 24 0
BBX 20 37 3 -8
BITMAP
03F800
0FFE00
1FFF00
3FFF80
7E1FC0
7C0FC0
FC07C0
FC07C0
F807C0
F807C0
F80F80
F83F80
F8FE00
F8FE00
F8FF80
F81FC0
F807E0
F807E0
F803F0
F803F0
FC03F0
FC03F0
FC03F0
FE07F0
FF8FE0
FFFFE0
FBFFC0
F9FF80
F87E00
F80000
F80000
F80000
F80000
F80000
F80000
F80000
F80000
ENDCHAR
STARTCHAR 03B3
ENCODING 947
SWIDTH 546 0
DWIDTH 22 0
BBX 22 29 0 -8
BITMAP
FC00FC
7E00F8
7E01F8
3E01F8
3F01F0
3F03F0
1F03E0
1F83E0
0F87E0
0F87C0
0FC7C0
07CF80
07CF80
07CF80
03FF00
03FF00
01FF00
01FE00
01FE00
00FC00
00FC00
00FC00
00FC00
00FC00
00FC00
00FC00
00FC00
00FC00
00FC00
ENDCHAR
STARTCHAR 03B4
ENCODING 948
SWIDTH 595 0
DWIDTH 24 0
BBX 21 29 2 0
BITMAP
7FFFE0
7FFFE0
7FFFE0
3FFFE0
1FC000
0FE000
07F000
01FC00
07FE00
0FFF80
3FFFC0
3FFFE0
7F0FE0
FE03F0
FC03F0
F801F0
F801F8
F801F8
F801F8
F801F8
F801F8
F801F0
FC03F0
7C03F0
7F0FE0
3FFFC0
1FFF80
0FFF00
03FC00
ENDCHAR
STARTCHAR 03B5
ENCODING 949
SWIDTH 471 0
DWIDTH 19 0
BBX 16 21 2 0
BITMAP
0FF0
3FFE
7FFE
7FFC
FE18
FC00
FC00
7E00
7FE0
3FE0
3FE0
7FE0
FE00
F800
F800
F808
FC3C
FFFF
7FFF
3FFC
0FE0
ENDCHAR
STARTCHAR 03B6
ENCODING 950
SWIDTH 446 0
DWIDTH 18 0
BBX 16 37 2 -8
BITMAP
3FFF
3FFF
3FFF
3FFF
007C
00F8
01F0
03E0
07C0
0F80
1F00
1F00
3E00
7E00
7C00
FC00
F800
F800
F800
F800
F800
F800
F800
FE00
FFE0
7FF8
7FFC
1FFE
0FFE
007F
003F
003E
007E
01FE
01FC
03F8
03C0
ENDCHAR
STARTCHAR 03B7
ENCODING 951
SWIDTH 595 0
DWIDTH 24 0
BBX 19 29 3 -8
BITMAP
F87E00
F9FF00
FFFF80
FFFFC0
FF0FC0
FC07E0
FC07E0
FC07E0
F807E0
F807E0
F807E0
F807E0
F807E0
F807E0
F807E0
F807E0
F807E0
F807E0
F807E0
F807E0
F807E0
0007E0
0007E0
0007E0
0007E0
0007E0
0007E0
0007E0
0007E0
ENDCHAR
STARTCHAR 03B8
ENCODING 952
SWIDTH 546 0
DWIDTH 22 0
BBX 18 29 2 0
BITMAP
03F000
0FFC00
1FFE00
3FFF00
7E3F00
7C1F80
7C0F80
FC0F80
F80FC0
F80FC0
F80FC0
F80FC0
FFFFC0
FFFFC0
FFFFC0
FFFFC0
F80FC0
F80FC0
F80FC0
F80FC0
FC0FC0
FC0F80
FC0F80
7C1F80
7E3F00
3FFF00
1FFE00
0FFC00
03F000
ENDCHAR
STARTCHAR 03B9
ENCODING 953
SWIDTH 273 0
DWIDTH 11 0
BBX 5 21 3 0
BITMAP
F8
F8
F8
F8
F8
F8
F8
F8
F8
F8
F8
F8
F8
F8
F8
F8
F8
F8
F8
F8
F8
ENDCHAR
STARTCHAR 03BA
ENCODING 954
SWIDTH 546 0
DWIDTH 22 0
BBX 19 21 3 0
BITMAP
F81FC0
F83F80
F87F00
F87E00
F8FC00
F9F800
FBF000
FFE000
FFC000
FFC000
FFE000
FFF000
FFF800
FDF800
F8FC00
F87E00
F87F00
F83F00
F81F80
F80FC0
F80FE0
ENDCHAR
STARTCHAR 03BB
ENCODING 955
SWIDTH 546 0
DWIDTH 22 0
BBX 22 29 0 0
BITMAP
07E000
03E000
03F000
01F000
01F000
01F800
00F800
00FC00
00FC00
00FC00
01FE00
01FE00
01FE00
03FF00
03FF00
07CF80
07CF80
07CF80
0F87C0
0F87C0
0F87E0
1F03E0
1F03E0
3F03F0
3E01F0
3E01F0
7E01F8
7C00F8
FC00FC
ENDCHAR
STARTCHAR 03BC
ENCODING 956
SWIDTH 595 0
DWIDTH 24 0
BBX 19 29 3 -8
BITMAP
F807E0
F807E0
F807E0
F807E0
F807E0
F807E0
F807E0
F807E0
F807E0
F807E0
F807E0
F807E0
F807E0
FC07E0
FC07E0
FC0FE0
FE1FE0
FFFFE0
FFFBE0
FBFBE0
F9E3E0
F80000
F80000
F80000
F80000
F80000
F80000
F80000
F80000
ENDCHAR
STARTCHAR 03BD
ENCODING 957
SWIDTH 546 0
DWIDTH 22 0
BBX 22 21 0 0
BITMAP
FC00FC
7E00F8
7E01F8
3E01F0
3F03F0
3F03F0
1F03E0
1F87E0
0F87C0
0F87C0
0FCFC0
07CF80
07CF80
03FF00
03FF00
03FF00
01FE00
01FE00
00FE00
00FC00
00FC00
ENDCHAR
STARTCHAR 03BE
ENCODING 958
SWIDTH 446 0
DWIDTH 18 0
BBX 16 37 2 -8
BITMAP
07FC
1FFC
3FFC
7FFC
7F00
7E00
FC00
7C00
7C00
7E00
3FF8
1FF8
07F8
0FF8
1FC0
3F00
7E00
FC00
FC00
F800
F800
F800
FC00
FE00
FF80
7FF0
3FFC
1FFE
07FE
007F
003F
003F
007E
01FE
01FC
03F8
03C0
ENDCHAR
STARTCHAR 03BF
ENCODING 959
SWIDTH 595 0
DWIDTH 24 0
BBX 21 21 2 0
BITMAP
01FC00
0FFF00
1FFF80
3FFFE0
7F0FE0
7E03F0
FC03F0
FC01F8
F801F8
F801F8
F801F8
F801F8
F801F8
FC01F8
FC03F0
7E03F0
7F0FE0
3FFFC0
1FFF80
0FFF00
01FC00
ENDCHAR
STARTCHAR 03C0
ENCODING 960
SWIDTH 769 0
DWIDTH 31 0
BBX 29 21 1 0
BITMAP
FFFFFFF8
FFFFFFF8
FFFFFFF8
FFFFFFF8
07E03E00
07E03E00
07E03E00
07E03E00
07E03E00
07E03E00
07E03E00
07E03E00
07E03E00
07E03E00
07E03E00
07E03E00
07E03E00
07E03E00
07E03E00
07E03E00
07E03E00
ENDCHAR
STARTCHAR 03C1
ENCODING 961
SWIDTH 620 0
DWIDTH 25 0
BBX 21 29 2 -8
BITMAP
01FC00
07FF00
1FFFC0
3FFFE0
3F87E0
7E03F0
7E01F0
7C01F8
7C01F8
FC00F8
FC00F8
FC00F8
FC01F8
FC01F8
FE01F8
FE03F0
FF07F0
FFFFE0
FFFFC0
FFFF80
FCFC00
FC0000
FC0000
FC0000
FC0000
FC0000
FC0000
FC0000
FC0000
ENDCHAR
STARTCHAR 03C2
ENCODING 962
SWIDTH 521 0
DWIDTH 21 0
BBX 18 29 2 -8
BITMAP
007F80
03FFC0
0FFFC0
1FFF80
3FC080
7F0000
7E0000
FC0000
F80000
F80000
F80000
F80000
F80000
F80000
FC0000
7F8000
7FF000
3FFC00
0FFF00
01FF80
003F80
000FC0
000FC0
000FC0
001F80
03FF80
03FF00
03FE00
03F800
ENDCHAR
STARTCHAR 03C3
ENCODING 963
SWIDTH 670 0
DWIDTH 27 0
BBX 24 21 2 0
BITMAP
01FFFF
0FFFFF
1FFFFF
3FFFFF
7F0FF0
7E03F0
FC03F0
FC01F8
F801F8
F801F8
F801F8
F801F8
F801F8
FC01F0
FC03F0
7E03F0
7F0FE0
3FFFC0
1FFF80
0FFF00
01FC00
ENDCHAR
STARTCHAR 03C4
ENCODING 964
SWIDTH 446 0
DWIDTH 18 0
BBX 16 21 1 0
BITMAP
FFFF
FFFF
FFFF
FFFF
07E0
07E0
07E0
07E0
07E0
07E0
07E0
07E0
07E0
07E0
07E0
07E0
07E0
07E0
07E0
07E0
07E0
ENDCHAR
STARTCHAR 03C5
ENCODING 965
SWIDTH 571 0
DWIDTH 23 0
BBX 19 21 2 0
BITMAP
FC07E0
FC07E0
FC07E0
FC07E0
FC07E0
FC07E0
FC07E0
FC07E0
FC07E0
FC07E0
FC07E0
FC07E0
FC07E0
7C07E0
7C07E0
7E07C0
7F0FC0
3FFF80
1FFF00
0FFE00
03F800
ENDCHAR
STARTCHAR 03C6
ENCODING 966
SWIDTH 720 0
DWIDTH 29 0
BBX 25 29 2 -8
BITMAP
0387E000
1F9FF800
3FBFFC00
7F3FFE00
7F3F3F00
FE3E1F00
FC3E1F80
FC3E1F80
F83E1F80
F83E1F80
F83E1F80
F83E1F80
F83E1F80
FC3E1F80
FC3E3F00
7E3E7F00
3F3EFE00
3FFFFC00
1FFFF800
07FFE000
01FF8000
003E0000
003E0000
003E0000
003E0000
003E0000
003E0000
003E0000
003E0000
ENDCHAR
STARTCHAR 03C7
ENCODING 967
SWIDTH 571 0
DWIDTH 23 0
BBX 21 29 1 -8
BITMAP
FC01F8
7E01F0
7E03F0
3F03E0
3F07E0
1F07C0
1F8FC0
0F8F80
0FDF80
07DF00
07FF00
03FE00
03FE00
01FC00
01FC00
01FC00
03FE00
03FE00
07FF00
0FDF80
0FDF80
1F8FC0
1F8FC0
3F07E0
3F07E0
7E03F0
7E03F0
FC01F8
FC01F8
ENDCHAR
STARTCHAR 03C8
ENCODING 968
SWIDTH 744 0
DWIDTH 30 0
BBX 26 29 2 -8
BITMAP
FC3F0FC0
FC3F0FC0
FC3F0FC0
FC3F0FC0
FC3F0FC0
FC3F0FC0
FC3F0FC0
FC3F0FC0
FC3F0FC0
FC3F0FC0
FC3F0FC0
FC3F0FC0
FC3F0FC0
7C3F0FC0
7C3F0F80
7E3F1F80
7F3F3F80
3FFFFF00
1FFFFE00
07FFFC00
01FFE000
003F0000
003F0000
003F0000
003F0000
003F0000
003F0000
003F0000
003F0000
ENDCHAR
STARTCHAR 03C9
ENCODING 969
SWIDTH 844 0
DWIDTH 34 0
BBX 30 21 2 0
BITMAP
3E0003F0
3E0001F0
7E0001F8
7C0001F8
7C0000F8
FC0FC0FC
FC0FC0FC
F80FC0FC
F80FC0FC
F80FC07C
F80FC07C
F80FC07C
F80FC07C
F80FC0FC
FC0FC0FC
FC0FC0F8
7E1FE1F8
7FFFFFF0
3FFCFFE0
1FF87FC0
07E01F00
ENDCHAR
STARTCHAR 03CA
ENCODING 970
SWIDTH 273 0
DWIDTH 11 0
BBX 13 27 -1 0
BITMAP
F8F8
F8F8
F8F8
F8F8
0000
0000
0F80
0F80
0F80
0F80
0F80
0F80
0F80
0F80
0F80
0F80
0F80
0F80
0F80
0F80
0F80
0F80
0F80
0F80
0F80
0F80
0F80
ENDCHAR
STARTCHAR 03CB
ENCODING 971
SWIDTH 571 0
DWIDTH 23 0
BBX 19 27 2 0
BITMAP
1F1F00
1F1F00
1F1F00
1F1F00
000000
000000
FC07E0
FC07E0
FC07E0
FC07E0
FC07E0
FC07E0
FC07E0
FC07E0
FC07E0
FC07E0
FC07E0
FC07E0
FC07E0
7C07E0
7C07E0
7E07C0
7F0FC0
3FFF80
1FFF00
0FFE00
03F800
ENDCHAR
STARTCHAR 03CC
ENCODING 972
SWIDTH 595 0
DWIDTH 24 0
BBX 21 29 2 0
BITMAP
003F00
007E00
007C00
00F800
00F000
01E000
000000
000000
01FC00
0FFF00
1FFF80
3FFFE0
7F0FE0
7E03F0
FC03F0
FC01F8
F801F8
F801F8
F801F8
F801F8
F801F8
FC01F8
FC03F0
7E03F0
7F0FE0
3FFFC0
1FFF80
0FFF00
01FC00
ENDCHAR
STARTCHAR 03CD
ENCODING 973
SWIDTH 571 0
DWIDTH 23 0
BBX 19 29 2 0
BITMAP
007E00
007C00
00F800
00F000
01E000
01E000
000000
000000
FC07E0
FC07E0
FC07E0
FC07E0
FC07E0
FC07E0
FC07E0
FC07E0
FC07E0
FC07E0
FC07E0
FC07E0
FC07E0
7C07E0
7C07E0
7E07C0
7F0FC0
3FFF80
1FFF00
0FFE00
03F800
ENDCHAR
STARTCHAR 03CE
ENCODING 974
SWIDTH 844 0
DWIDTH 34 0
BBX 30 29 2 0
BITMAP
0007E000
0007C000
000F8000
000F0000
001E0000
001E0000
00000000
00000000
3E0003F0
3E0001F0
7E0001F8
7C0001F8
7C0000F8
FC0FC0FC
FC0FC0FC
F80FC0FC
F80FC0FC
F80FC07C
F80FC07C
F80FC07C
F80FC07C
F80FC0FC
FC0FC0FC
FC0FC0F8
7E1FE1F8
7FFFFFF0
3FFCFFE0
1FF87FC0
07E01F00
ENDCHAR
STARTCHAR 0401
ENCODING 1025
SWIDTH 670 0
DWIDTH 27 0
BBX 22 35 3 0
BITMAP
0F8F80
0F8F80
0F8F80
0F8F80
000000
000000
FFFFF8
FFFFF8
FFFFF8
FFFFF8
FFFFF8
FC0000
FC0000
FC0000
FC0000
FC0000
FC0000
FFFFF0
FFFFF0
FFFFF0
FFFFF0
FFFFF0
FC0000
FC0000
FC0000
FC0000
FC0000
FC0000
FC0000
FC0000
FFFFFC
FFFFFC
FFFFFC
FFFFFC
FFFFFC
ENDCHAR
STARTCHAR 0402
ENCODING 1026
SWIDTH 868 0
DWIDTH 35 0
BBX 33 29 1 0
BITMAP
FFFFFE0000
FFFFFE0000
FFFFFE0000
FFFFFE0000
FFFFFE0000
00FC000000
00FC000000
00FC000000
00FC000000
00FC000000
00FC3FC000
00FDFFF000
00FFFFFC00
00FFFFFE00
00FFFFFF00
00FFE0FF00
00FF003F00
00FC001F80
00FC001F80
00FC001F80
00FC001F80
00FC001F80
00FC003F00
00FC087F00
00FC0FFF00
00FC0FFE00
00FC0FFC00
00FC0FF800
00FC0FC000
ENDCHAR
STARTCHAR 0403
ENCODING 1027
SWIDTH 595 0
DWIDTH 24 0
BBX 20 37 3 0
BITMAP
007E00
007C00
00F800
00F800
01F000
01E000
000000
000000
FFFFF0
FFFFF0
FFFFF0
FFFFF0
FFFFF0
FC0000
FC0000
FC0000
FC0000
FC0000
FC0000
FC0000
FC0000
FC0000
FC0000
FC0000
FC0000
FC0000
FC0000
FC0000
FC0000
FC0000
FC0000
FC0000
FC0000
FC0000
FC0000
FC0000
FC0000
ENDCHAR
STARTCHAR 0404
ENCODING 1028
SWIDTH 695 0
DWIDTH 28 0
BBX 25 29 2 0
BITMAP
007F8000
03FFE000
07FFF800
0FFFFC00
1FFFFE00
3FC1FE00
3F007F00
7F003F00
7E003F80
FC001C00
FC000000
FC000000
FFFE0000
FFFE0000
FFFE0000
FFFE0000
FFFE0000
FC000000
FC001000
FC001E00
7E003F80
7E003F00
7F007F00
3FC1FE00
1FFFFE00
0FFFFC00
07FFF800
03FFE000
007F8000
ENDCHAR
STARTCHAR 0405
ENCODING 1029
SWIDTH 670 0
DWIDTH 27 0
BBX 23 29 2 0
BITMAP
01FE00
0FFFC0
1FFFE0
3FFFF0
7FFFF8
7F03F8
7C01FC
FC00FC
FC00FC
7E0000
7F8000
7FF800
3FFF80
1FFFE0
0FFFF0
03FFF8
003FFC
0003FC
0000FE
38007E
FC007E
FC007E
FE00FC
FF03FC
7FFFFC
3FFFF8
1FFFF0
0FFFE0
01FF00
ENDCHAR
STARTCHAR 0406
ENCODING 1030
SWIDTH 273 0
DWIDTH 11 0
BBX 6 29 3 0
BITMAP
FC
FC
FC
FC
FC
FC
FC
FC
FC
FC
FC
FC
FC
FC
FC
FC
FC
FC
FC
FC
FC
FC
FC
FC
FC
FC
FC
FC
FC
ENDCHAR
STARTCHAR 0407
ENCODING 1031
SWIDTH 273 0
DWIDTH 11 0
BBX 13 35 -1 0
BITMAP
F8F8
F8F8
F8F8
F8F8
0000
0000
0FC0
0FC0
0FC0
0FC0
0FC0
0FC0
0FC0
0FC0
0FC0
0FC0
0FC0
0FC0
0FC0
0FC0
0FC0
0FC0
0FC0
0FC0
0FC0
0FC0
0FC0
0FC0
0FC0
0FC0
0FC0
0FC0
0FC0
0FC0
0FC0
ENDCHAR
STARTCHAR 0408
ENCODING 1032
SWIDTH 546 0
DWIDTH 22 0
BBX 18 29 1 0
BITMAP
000FC0
000FC0
000FC0
000FC0
000FC0
000FC0
000FC0
000FC0
000FC0
000FC0
000FC0
000FC0
000FC0
000FC0
000FC0
000FC0
000FC0
000FC0
000FC0
380FC0
F80FC0
F80FC0
FC0FC0
FE1F80
FFFF80
7FFF00
3FFF00
1FFC00
07F000
ENDCHAR
STARTCHAR 0409
ENCODING 1033
SWIDTH 1092 0
DWIDTH 44 0
BBX 41 29 1 0
BITMAP
1FFFFE000000
1FFFFE000000
1FFFFE000000
1FFFFE000000
1FFFFE000000
1F807E000000
1F807E000000
1F807E000000
1F807E000000
1F807E000000
1F807E000000
1F807E000000
1F807FFFE000
1F807FFFF800
1F807FFFFC00
1F807FFFFE00
1F807FFFFF00
1F807E007F00
1F807E003F80
1F807E001F80
1F807E001F80
1F807E001F80
1F807E003F80
1F807E007F00
FF807FFFFF00
FF007FFFFE00
FF007FFFFE00
FE007FFFF800
F8007FFFE000
ENDCHAR
STARTCHAR 040A
ENCODING 1034
SWIDTH 1067 0
DWIDTH 43 0
BBX 38 29 3 0
BITMAP
FC03E00000
FC03E00000
FC03E00000
FC03E00000
FC03E00000
FC03E00000
FC03E00000
FC03E00000
FC03E00000
FC03E00000
FC03E00000
FFFFFFFE00
FFFFFFFFC0
FFFFFFFFE0
FFFFFFFFF0
FFFFFFFFF0
FC03E007F8
FC03E001F8
FC03E001F8
FC03E000FC
FC03E001FC
FC03E001F8
FC03E001F8
FC03E007F8
FC03FFFFF8
FC03FFFFF0
FC03FFFFE0
FC03FFFFC0
FC03FFFF00
ENDCHAR
STARTCHAR 040B
ENCODING 1035
SWIDTH 868 0
DWIDTH 35 0
BBX 31 29 1 0
BITMAP
FFFFFE00
FFFFFE00
FFFFFE00
FFFFFE00
FFFFFE00
007C0000
007C0000
007C0000
007C0000
007C0000
007C7F80
007FFFE0
007FFFF8
007FFFFC
007FFFFC
007F81FE
007C00FE
007C007E
007C007E
007C007E
007C007E
007C007E
007C007E
007C007E
007C007E
007C007E
007C007E
007C007E
007C007E
ENDCHAR
STARTCHAR 040C
ENCODING 1036
SWIDTH 595 0
DWIDTH 24 0
BBX 21 37 3 0
BITMAP
007E00
00FC00
00F800
01F000
01E000
03C000
000000
000000
FC00F8
FC03F8
FC07F8
FC0FF8
FC1F80
FC1F00
FC1F00
FC3E00
FC3E00
FC7C00
FC7C00
FCFC00
FFF800
FFF000
FFF800
FFFC00
FCFE00
FC7E00
FC7F00
FC3F00
FC3F80
FC1F80
FC1FC0
FC0FC0
FC0FE0
FC07E0
FC07F0
FC03F0
FC03F8
ENDCHAR
STARTCHAR 040E
ENCODING 1038
SWIDTH 620 0
DWIDTH 25 0
BBX 25 37 0 0
BITMAP
0180E000
01C0E000
01E1C000
00FFC000
007F8000
003E0000
00000000
00000000
FE001F80
7E003F00
7F003F00
3F007E00
3F807E00
1F807C00
0FC0FC00
0FC0FC00
07E1F800
07E1F800
03F3F000
03F3F000
01FBE000
01FFE000
00FFC000
00FFC000
007FC000
007F8000
003F8000
001F0000
003F0000
003E0000
007E0000
00FC0000
0FFC0000
0FF80000
0FF80000
0FF00000
0FC00000
ENDCHAR
STARTCHAR 040F
ENCODING 1039
SWIDTH 720 0
DWIDTH 29 0
BBX 23 37 3 -8
BITMAP
FC007E
FC007E
FC007E
FC007E
FC007E
FC007E
FC007E
FC007E
FC007E
FC007E
FC007E
FC007E
FC007E
FC007E
FC007E
FC007E
FC007E
FC007E
FC007E
FC007E
FC007E
FC007E
FC007E
FC007E
FFFFFE
FFFFFE
FFFFFE
FFFFFE
FFFFFE
007C00
007C00
007C00
007C00
007C00
007C00
007C00
007C00
ENDCHAR
STARTCHAR 0410
ENCODING 1040
SWIDTH 720 0
DWIDTH 29 0
BBX 29 29 0 0
BITMAP
001F8000
001FC000
003FC000
003FE000
007FE000
007FE000
007DF000
00F9F000
00F9F800
01F8F800
01F0F800
01F0FC00
03F07C00
03E07E00
03E07E00
07E03E00
07C03F00
0FFFFF00
0FFFFF80
0FFFFF80
1FFFFF80
1FFFFFC0
3F000FC0
3F000FE0
3F0007E0
7E0007E0
7E0003F0
7E0003F0
FC0003F8
ENDCHAR
STARTCHAR 0411
ENCODING 1041
SWIDTH 720 0
DWIDTH 29 0
BBX 24 29 3 0
BITMAP
FFFFF8
FFFFF8
FFFFF8
FFFFF8
FFFFF8
FC0000
FC0000
FC0000
FC0000
FC0000
FC0000
FC0000
FFFFC0
FFFFF0
FFFFF8
FFFFFC
FFFFFE
FC00FE
FC007F
FC003F
FC003F
FC003F
FC007F
FC00FE
FFFFFE
FFFFFC
FFFFFC
FFFFF0
FFFFC0
ENDCHAR
STARTCHAR 0412
ENCODING 1042
SWIDTH 720 0
DWIDTH 29 0
BBX 24 29 3 0
BITMAP
FFFF80
FFFFE0
FFFFF8
FFFFF8
FFFFFC
FC01FC
FC00FC
FC007E
FC007C
FC007C
FC00FC
FC01F8
FFFFF8
FFFFF0
FFFFF0
FFFFF8
FFFFFC
FC00FE
FC007F
FC003F
FC003F
FC003F
FC007F
FC00FE
FFFFFE
FFFFFC
FFFFFC
FFFFF8
FFFFC0
ENDCHAR
STARTCHAR 0413
ENCODING 1043
SWIDTH 571 0
DWIDTH 23 0
BBX 20 29 3 0
BITMAP
FFFFF0
FFFFF0
FFFFF0
FFFFF0
FFFFF0
FC0000
FC0000
FC0000
FC0000
FC0000
FC0000
FC0000
FC0000
FC0000
FC0000
FC0000
FC0000
FC0000
FC0000
FC0000
FC0000
FC0000
FC0000
FC0000
FC0000
FC0000
FC0000
FC0000
FC0000
ENDCHAR
STARTCHAR 0414
ENCODING 1044
SWIDTH 720 0
DWIDTH 29 0
BBX 28 35 0 -6
BITMAP
07FFFF80
07FFFF80
07FFFF80
07FFFF80
07FFFF80
07E01F80
07E01F80
07E01F80
07E01F80
07E01F80
07E01F80
07E01F80
07C01F80
07C01F80
07C01F80
07C01F80
0FC01F80
0FC01F80
0FC01F80
0FC01F80
0F801F80
1F801F80
1F801F80
1F801F80
FFFFFFF0
FFFFFFF0
FFFFFFF0
FFFFFFF0
FFFFFFF0
F80001F0
F80001F0
F80001F0
F80001F0
F80001F0
F80001F0
ENDCHAR
STARTCHAR 0415
ENCODING 1045
SWIDTH 670 0
DWIDTH 27 0
BBX 22 29 3 0
BITMAP
FFFFF8
FFFFF8
FFFFF8
FFFFF8
FFFFF8
FC0000
FC0000
FC0000
FC0000
FC0000
FC0000
FFFFF0
FFFFF0
FFFFF0
FFFFF0
FFFFF0
FC0000
FC0000
FC0000
FC0000
FC0000
FC0000
FC0000
FC0000
FFFFFC
FFFFFC
FFFFFC
FFFFFC
FFFFFC
ENDCHAR
STARTCHAR 0416
ENCODING 1046
SWIDTH 893 0
DWIDTH 36 0
BBX 34 29 1 0
BITMAP
F803F007C0
FE03F01FC0
FF03F03FC0
FF03F03FC0
1F83F07E00
0F83F07C00
07C3F0F800
07C3F0F800
03E3F1F000
03E3F1F000
03F3F3F000
01FBF7E000
00FFFFC000
007FFF8000
00FFFFC000
01FFFFF000
03FBF7F000
07F3F3F800
07E3F1FC00
0FE3F1FC00
0FC3F0FE00
1FC3F07E00
1F83F07F00
3F83F07F00
3F03F03F80
7F03F03F80
7E03F01FC0
FE03F01FC0
FC03F00FC0
ENDCHAR
STARTCHAR 0417
ENCODING 1047
SWIDTH 620 0
DWIDTH 25 0
BBX 22 29 1 0
BITMAP
01FE00
07FF80
1FFFE0
3FFFF0
3FFFF0
7F07F8
7E03F8
FE01F8
1C01F8
0001F0
0003F0
0007E0
007F80
007F80
007FE0
007FF0
0007F8
0001F8
0000FC
0000FC
0800FC
7C00FC
FC01FC
FF03F8
7FFFF8
3FFFF0
3FFFE0
0FFFC0
03FE00
ENDCHAR
STARTCHAR 0418
ENCODING 1048
SWIDTH 720 0
DWIDTH 29 0
BBX 23 29 3 0
BITMAP
F8007E
F800FE
F800FE
F801FE
F803FE
F803FE
F807FE
F807FE
F80FFE
F80FFE
F81F7E
F83F7E
F83E7E
F87E7E
F87C7E
F8F87E
F8F87E
F9F07E
FBF07E
FBE07E
FFE07E
FFC07E
FF807E
FF807E
FF007E
FF007E
FE007E
FE007E
FC007E
ENDCHAR
STARTCHAR 0419
ENCODING 1049
SWIDTH 720 0
DWIDTH 29 0
BBX 23 37 3 0
BITMAP
070180
030380
038780
03FF00
01FF00
007C00
000000
000000
F8007E
F800FE
F800FE
F801FE
F803FE
F803FE
F807FE
F807FE
F80FFE
F80FFE
F81F7E
F83F7E
F83E7E
F87E7E
F87C7E
F8F87E
F8F87E
F9F07E
FBF07E
FBE07E
FFE07E
FFC07E
FF807E
FF807E
FF007E
FF007E
FE007E
FE007E
FC007E
ENDCHAR
STARTCHAR 041A
ENCODING 1050
SWIDTH 595 0
DWIDTH 24 0
BBX 21 29 3 0
BITMAP
FC00F8
FC03F8
FC07F8
FC0FF8
FC1F80
FC1F00
FC1F00
FC3E00
FC3E00
FC7C00
FC7C00
FCFC00
FFF800
FFF000
FFF800
FFFC00
FCFE00
FC7E00
FC7F00
FC3F00
FC3F80
FC1F80
FC1FC0
FC0FC0
FC0FE0
FC07E0
FC07F0
FC03F0
FC03F8
ENDCHAR
STARTCHAR 041B
ENCODING 1051
SWIDTH 695 0
DWIDTH 28 0
BBX 24 29 1 0
BITMAP
0FFFFF
0FFFFF
0FFFFF
0FFFFF
0FFFFF
0FC03F
0FC03F
0FC03F
0FC03F
0FC03F
0FC03F
0FC03F
0FC03F
0FC03F
0FC03F
0FC03F
0FC03F
0FC03F
0FC03F
0FC03F
0FC03F
0FC03F
0F803F
1F803F
FF803F
FF803F
FF803F
FF003F
FC003F
ENDCHAR
STARTCHAR 041C
ENCODING 1052
SWIDTH 819 0
DWIDTH 33 0
BBX 27 29 3 0
BITMAP
FF801FE0
FF803FE0
FF803FE0
FF803FE0
FFC03FE0
FFC07FE0
FFC07FE0
FBC07FE0
FBE07FE0
FBE0FBE0
FBE0FBE0
F9F0FBE0
F9F0FBE0
F9F1F3E0
F9F1F3E0
F8F9F3E0
F8F9F3E0
F8FBE3E0
F8FBE3E0
F87FE3E0
F87FE3E0
F87FC3E0
F87FC3E0
F83FC3E0
F83FC3E0
F83F83E0
F83F83E0
F81F83E0
F81F83E0
ENDCHAR
STARTCHAR 041D
ENCODING 1053
SWIDTH 720 0
DWIDTH 29 0
BBX 23 29 3 0
BITMAP
FC007E
FC007E
FC007E
FC007E
FC007E
FC007E
FC007E
FC007E
FC007E
FC007E
FC007E
FFFFFE
FFFFFE
FFFFFE
FFFFFE
FFFFFE
FC007E
FC007E
FC007E
FC007E
FC007E
FC007E
FC007E
FC007E
FC007E
FC007E
FC007E
FC007E
FC007E
ENDCHAR
STARTCHAR 041E
ENCODING 1054
SWIDTH 769 0
DWIDTH 31 0
BBX 28 29 2 0
BITMAP
007FC000
01FFF800
07FFFC00
0FFFFE00
1FFFFF00
3FE07F80
3F803FC0
7F001FC0
7E000FE0
FE0007E0
FC0007E0
FC0007E0
FC0007E0
FC0007E0
FC0003F0
FC0007F0
FC0007E0
FC0007E0
FC0007E0
FE0007E0
7E000FE0
7F001FC0
7F803FC0
3FE0FF80
1FFFFF00
0FFFFE00
07FFFC00
01FFF800
007FC000
ENDCHAR
STARTCHAR 041F
ENCODING 1055
SWIDTH 720 0
DWIDTH 29 0
BBX 23 29 3 0
BITMAP
FFFFFE
FFFFFE
FFFFFE
FFFFFE
FFFFFE
FC007E
FC007E
FC007E
FC007E
FC007E
FC007E
FC007E
FC007E
FC007E
FC007E
FC007E
FC007E
FC007E
FC007E
FC007E
FC007E
FC007E
FC007E
FC007E
FC007E
FC007E
FC007E
FC007E
FC007E
ENDCHAR
STARTCHAR 0420
ENCODING 1056
SWIDTH 670 0
DWIDTH 27 0
BBX 22 29 3 0
BITMAP
FFFF00
FFFFC0
FFFFF0
FFFFF0
FFFFF8
FC03F8
FC01FC
FC00FC
FC00FC
FC00FC
FC00FC
FC01FC
FC03F8
FFFFF8
FFFFF0
FFFFE0
FFFFC0
FFFF00
FC0000
FC0000
FC0000
FC0000
FC0000
FC0000
FC0000
FC0000
FC0000
FC0000
FC0000
ENDCHAR
STARTCHAR 0421
ENCODING 1057
SWIDTH 720 0
DWIDTH 29 0
BBX 25 29 2 0
BITMAP
007F8000
01FFE000
07FFF800
0FFFFC00
1FFFFE00
3FC1FE00
3F807F00
7F003F00
7E001F80
FE001C00
FC000000
FC000000
FC000000
FC000000
FC000000
FC000000
FC000000
FC000000
FC001800
FE001E00
7E003F80
7F003F00
3F807F00
3FC1FE00
1FFFFE00
0FFFFC00
07FFF800
01FFE000
007F8000
ENDCHAR
STARTCHAR 0422
ENCODING 1058
SWIDTH 595 0
DWIDTH 24 0
BBX 23 29 1 0
BITMAP
FFFFFE
FFFFFE
FFFFFE
FFFFFE
FFFFFE
00FC00
00FC00
00FC00
00FC00
00FC00
00FC00
00FC00
00FC00
00FC00
00FC00
00FC00
00FC00
00FC00
00FC00
00FC00
00FC00
00FC00
00FC00
00FC00
00FC00
00FC00
00FC00
00FC00
00FC00
ENDCHAR
STARTCHAR 0423
ENCODING 1059
SWIDTH 620 0
DWIDTH 25 0
BBX 25 29 0 0
BITMAP
FE001F80
7E003F00
7F003F00
3F007E00
3F807E00
1F807C00
0FC0FC00
0FC0FC00
07E1F800
07E1F800
03F3F000
03F3F000
01FBE000
01FFE000
00FFC000
00FFC000
007FC000
007F8000
003F8000
001F0000
003F0000
003E0000
007E0000
00FC0000
0FFC0000
0FF80000
0FF80000
0FF00000
0FC00000
ENDCHAR
STARTCHAR 0424
ENCODING 1060
SWIDTH 844 0
DWIDTH 34 0
BBX 30 29 2 0
BITMAP
000FC000
000FC000
000FC000
00FFFC00
07FFFF80
0FFFFFE0
1FFFFFF0
3FFFFFF0
7F8FC7F8
7E0FC1F8
FC0FC0FC
FC0FC0FC
FC0FC07C
F80FC07C
F80FC07C
F80FC07C
F80FC07C
FC0FC0FC
FC0FC0FC
7E0FC1F8
7F8FC7F8
3FFFFFF0
1FFFFFF0
0FFFFFE0
07FFFF80
00FFFC00
000FC000
000FC000
000FC000
ENDCHAR
STARTCHAR 0425
ENCODING 1061
SWIDTH 670 0
DWIDTH 27 0
BBX 26 29 0 0
BITMAP
7F001F80
3F803F80
1F807F00
1FC07E00
0FE0FE00
0FE1FC00
07F1FC00
03FBF800
03FFF000
01FFF000
00FFE000
00FFC000
007FC000
003F8000
003F8000
007FC000
00FFC000
00FFE000
01FFF000
03FBF000
03F3F800
07F1FC00
0FE1FC00
0FE0FE00
1FC07F00
3F807F00
3F803F80
7F001FC0
FE001FC0
ENDCHAR
STARTCHAR 0426
ENCODING 1062
SWIDTH 720 0
DWIDTH 29 0
BBX 25 35 3 -6
BITMAP
FC007E00
FC007E00
FC007E00
FC007E00
FC007E00
FC007E00
FC007E00
FC007E00
FC007E00
FC007E00
FC007E00
FC007E00
FC007E00
FC007E00
FC007E00
FC007E00
FC007E00
FC007E00
FC007E00
FC007E00
FC007E00
FC007E00
FC007E00
FC007E00
FFFFFF80
FFFFFF80
FFFFFF80
FFFFFF80
FFFFFF80
00000F80
00000F80
00000F80
00000F80
00000F80
00000F80
ENDCHAR
STARTCHAR 0427
ENCODING 1063
SWIDTH 695 0
DWIDTH 28 0
BBX 23 29 2 0
BITMAP
FC007E
FC007E
FC007E
FC007E
FC007E
FC007E
FC007E
FC007E
FC007E
FC007E
FC007E
7E007E
7E007E
7F01FE
7FFFFE
3FFFFE
1FFFFE
0FFFFE
01FC7E
00007E
00007E
00007E
00007E
00007E
00007E
00007E
00007E
00007E
00007E
ENDCHAR
STARTCHAR 0428
ENCODING 1064
SWIDTH 993 0
DWIDTH 40 0
BBX 34 29 3 0
BITMAP
FC03F00FC0
FC03F00FC0
FC03F00FC0
FC03F00FC0
FC03F00FC0
FC03F00FC0
FC03F00FC0
FC03F00FC0
FC03F00FC0
FC03F00FC0
FC03F00FC0
FC03F00FC0
FC03F00FC0
FC03F00FC0
FC03F00FC0
FC03F00FC0
FC03F00FC0
FC03F00FC0
FC03F00FC0
FC03F00FC0
FC03F00FC0
FC03F00FC0
FC03F00FC0
FC03F00FC0
FFFFFFFFC0
FFFFFFFFC0
FFFFFFFFC0
FFFFFFFFC0
FFFFFFFFC0
ENDCHAR
STARTCHAR 0429
ENCODING 1065
SWIDTH 1017 0
DWIDTH 41 0
BBX 37 35 3 -6
BITMAP
FC03F00FC0
FC03F00FC0
FC03F00FC0
FC03F00FC0
FC03F00FC0
FC03F00FC0
FC03F00FC0
FC03F00FC0
FC03F00FC0
FC03F00FC0
FC03F00FC0
FC03F00FC0
FC03F00FC0
FC03F00FC0
FC03F00FC0
FC03F00FC0
FC03F00FC0
FC03F00FC0
FC03F00FC0
FC03F00FC0
FC03F00FC0
FC03F00FC0
FC03F00FC0
FC03F00FC0
FFFFFFFFF8
FFFFFFFFF8
FFFFFFFFF8
FFFFFFFFF8
FFFFFFFFF8
00000000F8
00000000F8
00000000F8
00000000F8
00000000F8
00000000F8
ENDCHAR
STARTCHAR 042A
ENCODING 1066
SWIDTH 868 0
DWIDTH 35 0
BBX 32 29 1 0
BITMAP
FFFC0000
FFFC0000
FFFC0000
FFFC0000
FFFC0000
00FC0000
00FC0000
00FC0000
00FC0000
00FC0000
00FC0000
00FC0000
00FFFFC0
00FFFFF0
00FFFFF8
00FFFFFC
00FFFFFE
00FC00FE
00FC007F
00FC003F
00FC003F
00FC003F
00FC007F
00FC00FE
00FFFFFE
00FFFFFC
00FFFFFC
00FFFFF0
00FFFFC0
ENDCHAR
STARTCHAR 042B
ENCODING 1067
SWIDTH 968 0
DWIDTH 39 0
BBX 33 29 3 0
BITMAP
FC00001F80
FC00001F80
FC00001F80
FC00001F80
FC00001F80
FC00001F80
FC00001F80
FC00001F80
FC00001F80
FC00001F80
FC00001F80
FC00001F80
FFFFC01F80
FFFFF01F80
FFFFF81F80
FFFFFC1F80
FFFFFE1F80
FC00FE1F80
FC007F1F80
FC003F1F80
FC003F1F80
FC003F1F80
FC007F1F80
FC00FF1F80
FFFFFE1F80
FFFFFC1F80
FFFFFC1F80
FFFFF81F80
FFFFC01F80
ENDCHAR
STARTCHAR 042C
ENCODING 1068
SWIDTH 720 0
DWIDTH 29 0
BBX 24 29 3 0
BITMAP
FC0000
FC0000
FC0000
FC0000
FC0000
FC0000
FC0000
FC0000
FC0000
FC0000
FC0000
FC0000
FFFFC0
FFFFF0
FFFFF8
FFFFFC
FFFFFE
FC00FE
FC007F
FC003F
FC003F
FC003F
FC007F
FC00FE
FFFFFE
FFFFFC
FFFFFC
FFFFF0
FFFFC0
ENDCHAR
STARTCHAR 042D
ENCODING 1069
SWIDTH 695 0
DWIDTH 28 0
BBX 25 29 2 0
BITMAP
00FE0000
07FFC000
0FFFF000
1FFFF800
3FFFFC00
7F83FC00
7F00FE00
FE007E00
FC003F00
1C003F00
00003F00
00001F00
003FFF80
003FFF80
003FFF80
003FFF80
003FFF80
00001F80
0C003F00
7C003F00
FC003F00
FE007E00
7F00FE00
7F81FC00
3FFFFC00
3FFFF800
1FFFF000
07FFC000
00FF0000
ENDCHAR
STARTCHAR 042E
ENCODING 1070
SWIDTH 1017 0
DWIDTH 41 0
BBX 36 29 3 0
BITMAP
FC001FE000
FC007FFC00
FC01FFFF00
FC03FFFF80
FC07FFFFC0
FC0FF83FC0
FC0FE00FE0
FC1FC007E0
FC1F8007F0
FC1F8003F0
FC1F8003F0
FC3F0003F0
FFFF0003F0
FFFF0003F0
FFFF0003F0
FFFF0003F0
FFFF0003F0
FC3F0003F0
FC1F8003F0
FC1F8003F0
FC1F8007F0
FC1FC007E0
FC0FE00FE0
FC07F83FC0
FC07FFFF80
FC03FFFF80
FC01FFFF00
FC00FFFC00
FC001FF000
ENDCHAR
STARTCHAR 042F
ENCODING 1071
SWIDTH 720 0
DWIDTH 29 0
BBX 26 29 0 0
BITMAP
00FFFFC0
03FFFFC0
0FFFFFC0
0FFFFFC0
1FFFFFC0
1FC00FC0
1F800FC0
3F000FC0
3F000FC0
3F000FC0
1F800FC0
1FC00FC0
0FFFFFC0
0FFFFFC0
07FFFFC0
01FFFFC0
003FFFC0
00FF0FC0
01FC0FC0
03F80FC0
07F80FC0
07F00FC0
0FE00FC0
1FE00FC0
1FC00FC0
3F800FC0
3F800FC0
7F000FC0
FE000FC0
ENDCHAR
STARTCHAR 0430
ENCODING 1072
SWIDTH 546 0
DWIDTH 22 0
BBX 20 21 1 0
BITMAP
03FC00
0FFF80
1FFFC0
3FFFC0
3F0FC0
7E07E0
1C07E0
0007E0
000FE0
01FFE0
0FFFE0
3FE7E0
7E07E0
7C07E0
FC07E0
FC0FE0
7E1FE0
7FFFE0
7FFFE0
3FF3E0
0FC3F0
ENDCHAR
STARTCHAR 0431
ENCODING 1073
SWIDTH 620 0
DWIDTH 25 0
BBX 21 30 2 0
BITMAP
0000F0
01FFF0
07FFF0
1FFFE0
3FFF80
3F0000
7C0000
780000
F00000
F0FC00
F3FF00
F7FFC0
FFFFC0
FF0FE0
FE03F0
FC03F0
FC01F8
FC01F8
F801F8
F801F8
F801F8
FC01F8
FC01F8
7C03F0
7E03F0
3F0FE0
3FFFC0
1FFF80
07FF00
01FC00
ENDCHAR
STARTCHAR 0432
ENCODING 1074
SWIDTH 620 0
DWIDTH 25 0
BBX 20 21 3 0
BITMAP
FFFF00
FFFFC0
FFFFE0
FFFFE0
F807E0
F803E0
F803E0
F807E0
FFFFC0
FFFF80
FFFF80
FFFFE0
F807E0
F803F0
F803F0
F803F0
F807F0
FFFFF0
FFFFE0
FFFFC0
FFFF00
ENDCHAR
STARTCHAR 0433
ENCODING 1075
SWIDTH 422 0
DWIDTH 17 0
BBX 14 21 3 0
BITMAP
FFFC
FFFC
FFFC
FFFC
F800
F800
F800
F800
F800
F800
F800
F800
F800
F800
F800
F800
F800
F800
F800
F800
F800
ENDCHAR
STARTCHAR 0434
ENCODING 1076
SWIDTH 620 0
DWIDTH 25 0
BBX 25 26 0 -5
BITMAP
03FFFC00
07FFFC00
07FFFC00
07FFFC00
07C07C00
07C07C00
07C07C00
07C07C00
07C07C00
07C07C00
07C07C00
07807C00
0F807C00
0F807C00
0F807C00
1F007C00
3F007C00
FFFFFF80
FFFFFF80
FFFFFF80
FFFFFF80
F0000F80
F0000F80
F0000F80
F0000F80
F0000F80
ENDCHAR
STARTCHAR 0435
ENCODING 1077
SWIDTH 546 0
DWIDTH 22 0
BBX 20 21 1 0
BITMAP
01F800
07FE00
1FFF80
3FFFC0
3F0FC0
7E07E0
7C03E0
7C03E0
FC03E0
FFFFF0
FFFFF0
FFFFF0
FC0000
7C0000
7C0000
7E0380
3F07E0
3FFFE0
1FFFC0
0FFF00
01FC00
ENDCHAR
STARTCHAR 0436
ENCODING 1078
SWIDTH 695 0
DWIDTH 28 0
BBX 28 21 0 0
BITMAP
7C1F81F0
7E1F87F0
7F1F87F0
7F1F8FF0
0F9F8F80
0F9F9F00
079F9F00
07DFBE00
03FFFE00
01FFFC00
03FFFC00
07FFFE00
0FDFBF00
0F9F9F80
1F9F8F80
1F1F8FC0
3F1F87C0
3E1F87E0
7E1F87E0
7E1F83F0
FC1F83F0
ENDCHAR
STARTCHAR 0437
ENCODING 1079
SWIDTH 496 0
DWIDTH 20 0
BBX 17 21 1 0
BITMAP
07F000
1FFC00
3FFE00
7FFF00
7E3F00
FC1F00
181F00
003F00
01FE00
01F800
01FE00
01FF00
001F80
000F80
380F80
F80F80
FC1F80
7FFF80
7FFF00
1FFE00
07F000
ENDCHAR
STARTCHAR 0438
ENCODING 1080
SWIDTH 620 0
DWIDTH 25 0
BBX 19 21 3 0
BITMAP
F807E0
F807E0
F80FE0
F81FE0
F81FE0
F83FE0
F87FE0
F87BE0
F8FBE0
F8F3E0
F9E3E0
FBE3E0
FBC3E0
FFC3E0
FF83E0
FF03E0
FF03E0
FE03E0
FE03E0
FC03E0
F803E0
ENDCHAR
STARTCHAR 0439
ENCODING 1081
SWIDTH 620 0
DWIDTH 25 0
BBX 19 29 3 0
BITMAP
1C0700
0C0E00
0E0E00
0FFC00
07FC00
01F000
000000
000000
F807E0
F807E0
F80FE0
F81FE0
F81FE0
F83FE0
F87FE0
F87BE0
F8FBE0
F8F3E0
F9E3E0
FBE3E0
FBC3E0
FFC3E0
FF83E0
FF03E0
FF03E0
FE03E0
FE03E0
FC03E0
F803E0
ENDCHAR
STARTCHAR 043A
ENCODING 1082
SWIDTH 496 0
DWIDTH 20 0
BBX 17 21 3 0
BITMAP
F81F00
F83F00
F87F00
F87F00
F87800
F8F800
F8F000
F9F000
F9F000
FFE000
FFC000
FFE000
FFF000
F9F800
F8FC00
F8FC00
F87E00
F87E00
F83F00
F83F00
F81F80
ENDCHAR
STARTCHAR 043B
ENCODING 1083
SWIDTH 620 0
DWIDTH 25 0
BBX 23 21 0 0
BITMAP
0FFFFE
0FFFFE
0FFFFE
0FFFFE
0FC07E
0FC07E
0FC07E
0FC07E
0FC07E
0FC07E
0FC07E
0FC07E
0FC07E
0FC07E
0FC07E
0FC07E
0FC07E
FF807E
FF807E
FF007E
FE007E
ENDCHAR
STARTCHAR 043C
ENCODING 1084
SWIDTH 744 0
DWIDTH 30 0
BBX 24 21 3 0
BITMAP
FE007F
FE007F
FF00FF
FF00FF
FF00FF
FF81FF
FF81FF
FF83FF
FFC3FF
FBC3DF
FBE7DF
FBE7DF
F9E79F
F9FF9F
F9FF9F
F8FF1F
F8FF1F
F8FF1F
F87E1F
F87E1F
F87C1F
ENDCHAR
STARTCHAR 043D
ENCODING 1085
SWIDTH 595 0
DWIDTH 24 0
BBX 19 21 3 0
BITMAP
F807E0
F807E0
F807E0
F807E0
F807E0
F807E0
F807E0
F807E0
FFFFE0
FFFFE0
FFFFE0
FFFFE0
F807E0
F807E0
F807E0
F807E0
F807E0
F807E0
F807E0
F807E0
F807E0
ENDCHAR
STARTCHAR 043E
ENCODING 1086
SWIDTH 595 0
DWIDTH 24 0
BBX 21 21 2 0
BITMAP
01FC00
0FFF00
1FFF80
3FFFE0
7F0FE0
7E03F0
FC03F0
FC01F8
F801F8
F801F8
F801F8
F801F8
F801F8
FC01F8
FC03F0
7E03F0
7F0FE0
3FFFC0
1FFF80
0FFF00
01FC00
ENDCHAR
STARTCHAR 043F
ENCODING 1087
SWIDTH 595 0
DWIDTH 24 0
BBX 18 21 3 0
BITMAP
FFFFC0
FFFFC0
FFFFC0
FFFFC0
F807C0
F807C0
F807C0
F807C0
F807C0
F807C0
F807C0
F807C0
F807C0
F807C0
F807C0
F807C0
F807C0
F807C0
F807C0
F807C0
F807C0
ENDCHAR
STARTCHAR 0440
ENCODING 1088
SWIDTH 595 0
DWIDTH 24 0
BBX 20 29 3 -8
BITMAP
F8FC00
FBFF00
FFFF80
FFFFC0
FF0FE0
FE07E0
FC03E0
F803F0
F803F0
F803F0
F803F0
F803F0
F803F0
FC03F0
FC03E0
FE07E0
FF0FE0
FFFFC0
FBFF80
F9FF00
F87C00
F80000
F80000
F80000
F80000
F80000
F80000
F80000
F80000
ENDCHAR
STARTCHAR 0441
ENCODING 1089
SWIDTH 546 0
DWIDTH 22 0
BBX 19 21 2 0
BITMAP
03FC00
0FFF00
1FFF80
3FFFC0
7F0FC0
7C07E0
FC0700
FC0000
F80000
F80000
F80000
F80000
F80000
FC0380
FC07E0
7E07E0
7F0FC0
3FFFC0
1FFF80
0FFF00
03F800
ENDCHAR
STARTCHAR 0442
ENCODING 1090
SWIDTH 496 0
DWIDTH 20 0
BBX 19 21 0 0
BITMAP
FFFFE0
FFFFE0
FFFFE0
FFFFE0
01F800
01F800
01F800
01F800
01F800
01F800
01F800
01F800
01F800
01F800
01F800
01F800
01F800
01F800
01F800
01F800
01F800
ENDCHAR
STARTCHAR 0443
ENCODING 1091
SWIDTH 546 0
DWIDTH 22 0
BBX 21 29 0 -8
BITMAP
FC00F8
7E01F8
7E01F8
3E01F0
3F03F0
3F03F0
1F03E0
1F87E0
1F87E0
0F87C0
0FCFC0
07CF80
07CF80
07EF80
03FF00
03FF00
03FF00
01FE00
01FE00
00FE00
00FC00
00FC00
00F800
01F800
03F800
3FF000
3FF000
3FE000
3F8000
ENDCHAR
STARTCHAR 0444
ENCODING 1092
SWIDTH 868 0
DWIDTH 35 0
BBX 31 37 2 -8
BITMAP
0007C000
0007C000
0007C000
0007C000
0007C000
0007C000
0007C000
0007C000
07C7C7C0
0FE7CFF0
1FF7DFF8
3FFFFFF8
7F1FF0FC
7E0FE0FC
FC0FE07E
FC07E07E
F807C03E
F807C03E
F807C03E
F807C03E
F807C03E
FC0FC07E
FC0FE07E
FE0FE0FC
7F1FF1FC
7FFFFFF8
3FF7DFF8
1FE7CFF0
07C7C7C0
0007C000
0007C000
0007C000
0007C000
0007C000
0007C000
0007C000
0007C000
ENDCHAR
STARTCHAR 0445
ENCODING 1093
SWIDTH 546 0
DWIDTH 22 0
BBX 21 21 1 0
BITMAP
FE07F0
7E07E0
7F0FC0
3F1FC0
1F9F80
1FFF00
0FFF00
07FE00
03FC00
03FC00
03FC00
03FC00
07FE00
0FFF00
0FFF00
1F9F80
3F9FC0
3F0FC0
7E07E0
FE07F0
FC03F8
ENDCHAR
STARTCHAR 0446
ENCODING 1094
SWIDTH 620 0
DWIDTH 25 0
BBX 21 26 3 -5
BITMAP
F807C0
F807C0
F807C0
F807C0
F807C0
F807C0
F807C0
F807C0
F807C0
F807C0
F807C0
F807C0
F807C0
F807C0
F807C0
F807C0
F807C0
FFFFF8
FFFFF8
FFFFF8
FFFFF8
0000F8
0000F8
0000F8
0000F8
0000F8
ENDCHAR
STARTCHAR 0447
ENCODING 1095
SWIDTH 571 0
DWIDTH 23 0
BBX 19 21 2 0
BITMAP
FC07E0
FC07E0
FC07E0
FC07E0
FC07E0
FC07E0
FC07E0
FC07E0
7F07E0
7FFFE0
3FFFE0
1FFFE0
07F7E0
0007E0
0007E0
0007E0
0007E0
0007E0
0007E0
0007E0
0007E0
ENDCHAR
STARTCHAR 0448
ENCODING 1096
SWIDTH 819 0
DWIDTH 33 0
BBX 28 21 3 0
BITMAP
F81F01F0
F81F01F0
F81F01F0
F81F01F0
F81F01F0
F81F01F0
F81F01F0
F81F01F0
F81F01F0
F81F01F0
F81F01F0
F81F01F0
F81F01F0
F81F01F0
F81F01F0
F81F01F0
F81F01F0
FFFFFFF0
FFFFFFF0
FFFFFFF0
FFFFFFF0
ENDCHAR
STARTCHAR 0449
ENCODING 1097
SWIDTH 844 0
DWIDTH 34 0
BBX 30 26 3 -5
BITMAP
F81F01F0
F81F01F0
F81F01F0
F81F01F0
F81F01F0
F81F01F0
F81F01F0
F81F01F0
F81F01F0
F81F01F0
F81F01F0
F81F01F0
F81F01F0
F81F01F0
F81F01F0
F81F01F0
F81F01F0
FFFFFFFC
FFFFFFFC
FFFFFFFC
FFFFFFFC
0000007C
0000007C
0000007C
0000007C
0000007C
ENDCHAR
STARTCHAR 044A
ENCODING 1098
SWIDTH 720 0
DWIDTH 29 0
BBX 27 21 1 0
BITMAP
FFF00000
FFF00000
FFF00000
FFF00000
01F00000
01F00000
01F00000
01F00000
01F00000
01FFFE00
01FFFF00
01FFFF80
01FFFFC0
01F00FC0
01F007E0
01F007E0
01F00FC0
01FFFFC0
01FFFFC0
01FFFF80
01FFFE00
ENDCHAR
STARTCHAR 044B
ENCODING 1099
SWIDTH 844 0
DWIDTH 34 0
BBX 29 21 3 0
BITMAP
F80001F8
F80001F8
F80001F8
F80001F8
F80001F8
F80001F8
F80001F8
F80001F8
F80001F8
FFFF01F8
FFFFC1F8
FFFFE1F8
FFFFE1F8
F807F1F8
F803F1F8
F803F1F8
F807F1F8
FFFFE1F8
FFFFE1F8
FFFFC1F8
FFFF01F8
ENDCHAR
STARTCHAR 044C
ENCODING 1100
SWIDTH 620 0
DWIDTH 25 0
BBX 20 21 3 0
BITMAP
F80000
F80000
F80000
F80000
F80000
F80000
F80000
F80000
F80000
FFFF00
FFFFC0
FFFFE0
FFFFE0
F807F0
F803F0
F803F0
F807F0
FFFFF0
FFFFE0
FFFFC0
FFFF00
ENDCHAR
STARTCHAR 044D
ENCODING 1101
SWIDTH 546 0
DWIDTH 22 0
BBX 19 21 1 0
BITMAP
03F800
0FFE00
1FFF80
3FFF80
7F0FC0
7E07E0
1C07E0
0003E0
00FFE0
00FFE0
00FFE0
00FFE0
0003E0
0007E0
1C07E0
FC0FE0
7E1FC0
7FFFC0
3FFF80
1FFE00
03F800
ENDCHAR
STARTCHAR 044E
ENCODING 1102
SWIDTH 844 0
DWIDTH 34 0
BBX 30 21 3 0
BITMAP
F800FE00
F803FF80
F80FFFE0
F81FFFE0
F81F83F0
F83F01F8
F83F01F8
F83E00F8
FFFE00F8
FFFE00FC
FFFE00FC
FFFE00FC
F83E00F8
F83E00F8
F83F01F8
F81F01F8
F81F83F0
F80FFFF0
F807FFE0
F803FFC0
F800FE00
ENDCHAR
STARTCHAR 044F
ENCODING 1103
SWIDTH 571 0
DWIDTH 23 0
BBX 21 21 0 0
BITMAP
07FFF8
0FFFF8
1FFFF8
3FFFF8
3F01F8
3F01F8
3E01F8
3F01F8
3F81F8
3FFFF8
1FFFF8
0FFFF8
01FFF8
07F1F8
0FE1F8
0FC1F8
1F81F8
3F81F8
3F01F8
7E01F8
FE01F8
ENDCHAR
STARTCHAR 0451
ENCODING 1105
SWIDTH 546 0
DWIDTH 22 0
BBX 20 27 1 0
BITMAP
1F0F80
1F0F80
1F0F80
1F0F80
000000
000000
01F800
07FE00
1FFF80
3FFFC0
3F0FC0
7E07E0
7C03E0
7C03E0
FC03E0
FFFFF0
FFFFF0
FFFFF0
FC0000
7C0000
7C0000
7E0380
3F07E0
3FFFE0
1FFFC0
0FFF00
01FC00
ENDCHAR
STARTCHAR 0452
ENCODING 1106
SWIDTH 595 0
DWIDTH 24 0
BBX 22 37 0 -8
BITMAP
1F0000
1F0000
1F0000
FFFE00
FFFE00
FFFE00
1F0000
1F0000
1F0FC0
1F3FE0
1F7FF0
1FFFF8
1FE1F8
1F80FC
1F80FC
1F80FC
1F00FC
1F00FC
1F00FC
1F00FC
1F00FC
1F00FC
1F00FC
1F00FC
1F00FC
1F00FC
1F00FC
1F00FC
1F00FC
0000FC
0000FC
0000FC
0000FC
000FF8
000FF8
000FF0
000FE0
ENDCHAR
STARTCHAR 0453
ENCODING 1107
SWIDTH 422 0
DWIDTH 17 0
BBX 14 29 3 0
BITMAP
07E0
0FC0
0F80
1F00
1E00
1C00
0000
0000
FFFC
FFFC
FFFC
FFFC
F800
F800
F800
F800
F800
F800
F800
F800
F800
F800
F800
F800
F800
F800
F800
F800
F800
ENDCHAR
STARTCHAR 0454
ENCODING 1108
SWIDTH 546 0
DWIDTH 22 0
BBX 19 21 2 0
BITMAP
03F800
0FFE00
3FFF00
3FFF80
7E1FC0
FC07C0
FC0700
F80000
FFE000
FFE000
FFE000
FFE000
F80000
FC0000
FC0700
FE07E0
7F0FC0
7FFFC0
3FFF80
0FFF00
03F800
ENDCHAR
STARTCHAR 0455
ENCODING 1109
SWIDTH 546 0
DWIDTH 22 0
BBX 19 21 1 0
BITMAP
07FC00
1FFF00
3FFF80
7FFFC0
7E0FC0
7C0700
7C0000
7E0000
7FC000
3FFC00
1FFF80
07FFC0
00FFE0
0007E0
0003E0
1C03E0
FE07E0
7FFFC0
3FFFC0
1FFF00
07FC00
ENDCHAR
STARTCHAR 0456
ENCODING 1110
SWIDTH 273 0
DWIDTH 11 0
BBX 5 29 3 0
BITMAP
F8
F8
F8
F8
00
00
00
00
F8
F8
F8
F8
F8
F8
F8
F8
F8
F8
F8
F8
F8
F8
F8
F8
F8
F8
F8
F8
F8
ENDCHAR
STARTCHAR 0457
ENCODING 1111
SWIDTH 273 0
DWIDTH 11 0
BBX 13 27 -1 0
BITMAP
F8F8
F8F8
F8F8
F8F8
0000
0000
0F80
0F80
0F80
0F80
0F80
0F80
0F80
0F80
0F80
0F80
0F80
0F80
0F80
0F80
0F80
0F80
0F80
0F80
0F80
0F80
0F80
ENDCHAR
STARTCHAR 0458
ENCODING 1112
SWIDTH 273 0
DWIDTH 11 0
BBX 10 37 -2 -8
BITMAP
07C0
07C0
07C0
07C0
0000
0000
0000
0000
07C0
07C0
07C0
07C0
07C0
07C0
07C0
07C0
07C0
07C0
07C0
07C0
07C0
07C0
07C0
07C0
07C0
07C0
07C0
07C0
07C0
07C0
07C0
07C0
0FC0
7FC0
7F80
FF80
FE00
ENDCHAR
STARTCHAR 0459
ENCODING 1113
SWIDTH 968 0
DWIDTH 39 0
BBX 37 21 0 0
BITMAP
0FFFFE0000
0FFFFE0000
0FFFFE0000
0FFFFE0000
0FC07E0000
0FC07E0000
0FC07E0000
0FC07E0000
0FC07E0000
0FC07FFF80
0FC07FFFE0
0FC07FFFF0
0FC07FFFF8
0FC07E03F8
0FC07E00F8
0FC07E00F8
0FC07E01F8
FF807FFFF8
FF807FFFF0
FF007FFFE0
FE007FFF80
ENDCHAR
STARTCHAR 045A
ENCODING 1114
SWIDTH 893 0
DWIDTH 36 0
BBX 32 21 3 0
BITMAP
F80F8000
F80F8000
F80F8000
F80F8000
F80F8000
F80F8000
F80F8000
F80F8000
FFFFFFE0
FFFFFFFC
FFFFFFFC
FFFFFFFE
F80F807E
F80F803F
F80F803F
F80F803F
F80F807E
F80FFFFE
F80FFFFE
F80FFFFC
F80FFFF0
ENDCHAR
STARTCHAR 045B
ENCODING 1115
SWIDTH 595 0
DWIDTH 24 0
BBX 22 29 0 0
BITMAP
1F0000
1F0000
1F0000
FFFE00
FFFE00
FFFE00
1F0000
1F0000
1F0FC0
1F3FE0
1F7FF0
1FFFF8
1FE1F8
1F80FC
1F80FC
1F80FC
1F00FC
1F00FC
1F00FC
1F00FC
1F00FC
1F00FC
1F00FC
1F00FC
1F00FC
1F00FC
1F00FC
1F00FC
1F00FC
ENDCHAR
STARTCHAR 045C
ENCODING 1116
SWIDTH 496 0
DWIDTH 20 0
BBX 17 29 3 0
BITMAP
01F800
01F000
03E000
03C000
078000
070000
000000
000000
F81F00
F83F00
F87F00
F87F00
F87800
F8F800
F8F000
F9F000
F9F000
FFE000
FFC000
FFE000
FFF000
F9F800
F8FC00
F8FC00
F87E00
F87E00
F83F00
F83F00
F81F80
ENDCHAR
STARTCHAR 045E
ENCODING 1118
SWIDTH 546 0
DWIDTH 22 0
BBX 21 37 0 -8
BITMAP
070380
070380
038780
03FF00
01FE00
007C00
000000
000000
FC00F8
7E01F8
7E01F8
3E01F0
3F03F0
3F03F0
1F03E0
1F87E0
1F87E0
0F87C0
0FCFC0
07CF80
07CF80
07EF80
03FF00
03FF00
03FF00
01FE00
01FE00
00FE00
00FC00
00FC00
00F800
01F800
03F800
3FF000
3FF000
3FE000
3F8000
ENDCHAR
STARTCHAR 045F
ENCODING 1119
SWIDTH 595 0
DWIDTH 24 0
BBX 18 26 3 -5
BITMAP
F807C0
F807C0
F807C0
F807C0
F807C0
F807C0
F807C0
F807C0
F807C0
F807C0
F807C0
F807C0
F807C0
F807C0
F807C0
F807C0
F807C0
FFFFC0
FFFFC0
FFFFC0
FFFFC0
01E000
01E000
01E000
01E000
01E000
ENDCHAR
STARTCHAR 0490
ENCODING 1168
SWIDTH 471 0
DWIDTH 19 0
BBX 15 35 3 0
BITMAP
001E
001E
001E
001E
001E
001E
FFFE
FFFE
FFFE
FFFE
FFFE
FC00
FC00
FC00
FC00
FC00
FC00
FC00
FC00
FC00
FC00
FC00
FC00
FC00
FC00
FC00
FC00
FC00
FC00
FC00
FC00
FC00
FC00
FC00
FC00
ENDCHAR
STARTCHAR 0491
ENCODING 1169
SWIDTH 446 0
DWIDTH 18 0
BBX 14 26 3 0
BITMAP
007C
007C
007C
007C
007C
FFFC
FFFC
FFFC
FFFC
F800
F800
F800
F800
F800
F800
F800
F800
F800
F800
F800
F800
F800
F800
F800
F800
F800
ENDCHAR
STARTCHAR 0492
ENCODING 1170
SWIDTH 571 0
DWIDTH 23 0
BBX 23 29 0 0
BITMAP
1FFFFE
1FFFFE
1FFFFE
1FFFFE
1F8000
1F8000
1F8000
1F8000
1F8000
1F8000
1F8000
1F8000
FFFE00
FFFE00
FFFE00
FFFE00
1F8000
1F8000
1F8000
1F8000
1F8000
1F8000
1F8000
1F8000
1F8000
1F8000
1F8000
1F8000
1F8000
ENDCHAR
STARTCHAR 0493
ENCODING 1171
SWIDTH 422 0
DWIDTH 17 0
BBX 17 21 0 0
BITMAP
1FFF80
1FFF80
1FFF80
1FFF80
1F0000
1F0000
1F0000
1F0000
1F0000
FFF000
FFF000
FFF000
FFF000
1F0000
1F0000
1F0000
1F0000
1F0000
1F0000
1F0000
1F0000
ENDCHAR
STARTCHAR 0496
ENCODING 1174
SWIDTH 893 0
DWIDTH 36 0
BBX 35 35 1 -6
BITMAP
F803F007C0
FE03F01FC0
FF03F03FC0
FF83F07FC0
FF83F07FC0
1FC3F0FE00
0FC3F0FC00
07E3F0F800
07E3F1F800
03F3F3F000
03FBF7F000
01FFFFE000
00FFFFC000
007FFFC000
01FFFFE000
03FFFFF000
07FBF7F800
07F3F3F800
0FE3F1FC00
0FE3F0FC00
1FC3F0FE00
1FC3F07E00
3F83F07F00
3F83F07F00
7F03F03FE0
7F03F03FE0
7E03F01FE0
FE03F01FE0
FC03F00FE0
00000003E0
00000003E0
00000003E0
00000003E0
00000003E0
00000003E0
ENDCHAR
STARTCHAR 0497
ENCODING 1175
SWIDTH 695 0
DWIDTH 28 0
BBX 28 26 0 -5
BITMAP
7C1F81F0
7E1F87F0
7F1F87F0
7F1F8FF0
0F9F8F80
0F9F9F00
079F9F00
07DFBE00
03FFFE00
01FFFC00
03FFFC00
07FFFE00
0FDFBF00
0F9F9F80
1F9F8F80
1F1F8F80
3F1F87C0
3E1F87F0
7E1F87F0
7E1F83F0
FC1F83F0
000000F0
000000F0
000000F0
000000F0
000000F0
ENDCHAR
STARTCHAR 049A
ENCODING 1178
SWIDTH 595 0
DWIDTH 24 0
BBX 21 35 3 -6
BITMAP
FC00F8
FC07F8
FC07F8
FC0FF8
FC1FF8
FC1F80
FC3F00
FC3F00
FC7E00
FC7E00
FCFC00
FFFC00
FFF800
FFF000
FFFC00
FFFC00
FCFE00
FC7F00
FC7F00
FC3F80
FC3F80
FC1FC0
FC1FC0
FC0FC0
FC0FF8
FC07F8
FC07F8
FC03F8
FC03F8
0000F8
0000F8
0000F8
0000F8
0000F8
0000F8
ENDCHAR
STARTCHAR 049B
ENCODING 1179
SWIDTH 496 0
DWIDTH 20 0
BBX 17 26 3 -5
BITMAP
F81F00
F83F00
F87F00
F87F00
F8F800
F8F800
F8F000
F9F000
FFE000
FFC000
FFE000
FFF000
F9F000
F8F800
F8FC00
F87C00
F87C00
F83F80
F83F80
F83F80
F81F80
000780
000780
000780
000780
000780
ENDCHAR
STARTCHAR 049C
ENCODING 1180
SWIDTH 595 0
DWIDTH 24 0
BBX 21 29 3 0
BITMAP
FC00F8
FC07F8
FC07F8
FC0FF8
FCDFF8
FCDF80
FCFF00
FCFF00
FCFE00
FCFE00
FCFC00
FFFC00
FFF800
FFF000
FFFC00
FFFC00
FCFE00
FCFF00
FCFF00
FCFF80
FCFF80
FCDFC0
FCDFC0
FCCFE0
FCCFE0
FC07E0
FC07F0
FC03F0
FC03F8
ENDCHAR
STARTCHAR 049D
ENCODING 1181
SWIDTH 496 0
DWIDTH 20 0
BBX 17 21 3 0
BITMAP
F81F00
F83F00
FB7F00
FB7F00
FBF800
FBF800
FBF000
FBF000
FFE000
FFC000
FFE000
FFF000
FBF800
FBF800
FBFC00
FB7C00
FB7E00
FB3E00
F83F00
F83F00
F81F80
ENDCHAR
STARTCHAR 04A2
ENCODING 1186
SWIDTH 720 0
DWIDTH 29 0
BBX 25 35 3 -6
BITMAP
FC007E00
FC007E00
FC007E00
FC007E00
FC007E00
FC007E00
FC007E00
FC007E00
FC007E00
FC007E00
FC007E00
FFFFFE00
FFFFFE00
FFFFFE00
FFFFFE00
FFFFFE00
FC007E00
FC007E00
FC007E00
FC007E00
FC007E00
FC007E00
FC007E00
FC007E00
FC007F80
FC007F80
FC007F80
FC007F80
FC007F80
00000F80
00000F80
00000F80
00000F80
00000F80
00000F80
ENDCHAR
STARTCHAR 04A3
ENCODING 1187
SWIDTH 595 0
DWIDTH 24 0
BBX 21 26 3 -5
BITMAP
F807E0
F807E0
F807E0
F807E0
F807E0
F807E0
F807E0
F807E0
FFFFE0
FFFFE0
FFFFE0
FFFFE0
F807E0
F807E0
F807E0
F807E0
F807E0
F807F8
F807F8
F807F8
F807F8
0000F8
0000F8
0000F8
0000F8
0000F8
ENDCHAR
STARTCHAR 04AE
ENCODING 1198
SWIDTH 546 0
DWIDTH 22 0
BBX 22 29 0 0
BITMAP
FC00FC
7E01F8
7E01F8
3F03F0
3F03F0
1F87E0
1F87E0
0FCFC0
0FCFC0
07FF80
07FF80
03FF00
03FF00
01FE00
01FE00
00FC00
00FC00
00FC00
00FC00
00FC00
00FC00
00FC00
00FC00
00FC00
00FC00
00FC00
00FC00
00FC00
00FC00
ENDCHAR
STARTCHAR 04AF
ENCODING 1199
SWIDTH 546 0
DWIDTH 22 0
BBX 21 29 1 -8
BITMAP
F801F8
FC01F0
FC03F0
7C03F0
7E03E0
7E07E0
3E07C0
3F07C0
1F0FC0
1F0F80
1F9F80
0F9F80
0FDF00
07FF00
07FE00
07FE00
03FE00
03FC00
01FC00
01FC00
01F800
01F800
01F800
01F800
01F800
01F800
01F800
01F800
01F800
ENDCHAR
STARTCHAR 04B0
ENCODING 1200
SWIDTH 546 0
DWIDTH 22 0
BBX 22 29 0 0
BITMAP
FC00FC
7E01F8
7E01F8
3F03F0
3F03F0
1F87E0
1F87E0
0FCFC0
0FCFC0
07FF80
07FF80
03FF00
7FFFF8
7FFFF8
7FFFF8
7FFFF8
7FFFF8
00FC00
00FC00
00FC00
00FC00
00FC00
00FC00
00FC00
00FC00
00FC00
00FC00
00FC00
00FC00
ENDCHAR
STARTCHAR 04B1
ENCODING 1201
SWIDTH 546 0
DWIDTH 22 0
BBX 21 29 1 -8
BITMAP
F801F8
FC01F0
FC03F0
7C03F0
7E03E0
7E07E0
3E07C0
3F07C0
1F0FC0
1F0F80
1F9F80
0F9F80
0FDF00
07FF00
07FE00
07FE00
03FE00
03FC00
01FC00
01FC00
01F800
7FFFE0
7FFFE0
7FFFE0
7FFFE0
01F800
01F800
01F800
01F800
ENDCHAR
STARTCHAR 04B2
ENCODING 1202
SWIDTH 670 0
DWIDTH 27 0
BBX 27 35 0 -6
BITMAP
7F001F80
3F803F80
1F807F00
1FC07E00
0FE0FE00
0FE1FC00
07F1FC00
03FBF800
03FFF000
01FFF000
00FFE000
00FFC000
007FC000
003F8000
003F8000
007FC000
00FFE000
00FFE000
01FFF000
03FBF800
03F3F800
07F1FC00
0FE1FC00
0FE0FE00
1FC07FE0
3F807FE0
3F803FE0
7F001FE0
FE001FE0
000003E0
000003E0
000003E0
000003E0
000003E0
000003E0
ENDCHAR
STARTCHAR 04B3
ENCODING 1203
SWIDTH 546 0
DWIDTH 22 0
BBX 21 26 1 -5
BITMAP
FE07F0
7E07E0
7F0FE0
3F9FC0
1F9F80
1FFF00
0FFF00
07FE00
07FC00
03FC00
03F800
03FC00
07FE00
0FFE00
0FFF00
1FBF80
3F9FC0
3F0FF8
7E0FF8
FE07F8
FC03F8
0000F8
0000F8
0000F8
0000F8
0000F8
ENDCHAR
STARTCHAR 04B8
ENCODING 1208
SWIDTH 695 0
DWIDTH 28 0
BBX 23 29 2 0
BITMAP
FC007E
FC007E
FC007E
FC007E
FC007E
FC007E
FC3C7E
FC3C7E
FC3C7E
FC3C7E
FC3C7E
7E3C7E
7E3C7E
7F3DFE
7FFFFE
3FFFFE
1FFFFE
0FFFFE
03FC7E
003C7E
003C7E
003C7E
003C7E
003C7E
003C7E
00007E
00007E
00007E
00007E
ENDCHAR
STARTCHAR 04B9
ENCODING 1209
SWIDTH 571 0
DWIDTH 23 0
BBX 19 21 2 0
BITMAP
FC07E0
FC07E0
FC07E0
FC07E0
FCE7E0
FCE7E0
FCE7E0
FCE7E0
7EE7E0
7FFFE0
3FFFE0
1FFFE0
07F7E0
00E7E0
00E7E0
00E7E0
00E7E0
00E7E0
0007E0
0007E0
0007E0
ENDCHAR
STARTCHAR 04BA
ENCODING 1210
SWIDTH 695 0
DWIDTH 28 0
BBX 23 29 3 0
BITMAP
FC0000
FC0000
FC0000
FC0000
FC0000
FC0000
FC0000
FC0000
FC0000
FC0000
FC7F80
FFFFE0
FFFFF0
FFFFF8
FFFFFC
FF01FC
FC00FC
FC007E
FC007E
FC007E
FC007E
FC007E
FC007E
FC007E
FC007E
FC007E
FC007E
FC007E
FC007E
ENDCHAR
STARTCHAR 04BB
ENCODING 1211
SWIDTH 571 0
DWIDTH 23 0
BBX 18 21 3 0
BITMAP
F80000
F80000
F80000
F80000
F80000
F80000
F80000
F80000
F9F800
FFFE00
FFFF00
FFFF80
FC1FC0
F80FC0
F80FC0
F80FC0
F80FC0
F80FC0
F80FC0
F80FC0
F80FC0
ENDCHAR
STARTCHAR 04D8
ENCODING 1240
SWIDTH 720 0
DWIDTH 29 0
BBX 25 29 2 0
BITMAP
00FF0000
03FFE000
0FFFF000
1FFFF800
3FFFFC00
3FC1FE00
7F007F00
7E003F00
7E003F00
0C001F80
00001F80
00001F80
FFFFFF80
FFFFFF80
FFFFFF80
FFFFFF80
FFFFFF80
FC001F80
FC001F80
FC001F80
7E003F80
7E003F00
3F007F00
3FC1FE00
1FFFFC00
0FFFFC00
07FFF000
03FFE000
007F0000
ENDCHAR
STARTCHAR 04D9
ENCODING 1241
SWIDTH 546 0
DWIDTH 22 0
BBX 19 21 2 0
BITMAP
07F800
1FFE00
3FFF00
7FFF80
7E1FC0
FC0FC0
3C07C0
0007E0
0007E0
FFFFE0
FFFFE0
FFFFE0
FFFFE0
F807E0
F807C0
7C0FC0
7E1F80
3FFF80
1FFF00
0FFE00
03F800
ENDCHAR
STARTCHAR 04E8
ENCODING 1256
SWIDTH 769 0
DWIDTH 31 0
BBX 27 29 2 0
BITMAP
007FC000
01FFF800
07FFFC00
0FFFFE00
1FFFFF00
3FE07F80
7F803FC0
7F001FC0
7E000FC0
FC0007E0
FC0007E0
FC0007E0
FFFFFFE0
FFFFFFE0
FFFFFFE0
FFFFFFE0
FFFFFFE0
FC0007E0
FC0007E0
FC0007E0
7E000FE0
7F001FC0
3F803FC0
3FE0FF80
1FFFFF00
0FFFFE00
07FFFC00
01FFF800
007FC000
ENDCHAR
STARTCHAR 04E9
ENCODING 1257
SWIDTH 595 0
DWIDTH 24 0
BBX 21 21 2 0
BITMAP
01FC00
0FFF00
1FFFC0
3FFFE0
7F07E0
7E03F0
FC01F0
F801F8
FFFFF8
FFFFF8
FFFFF8
FFFFF8
F801F8
FC01F8
FC03F0
7E03F0
7F0FE0
3FFFC0
1FFF80
0FFF00
01FC00
ENDCHAR
STARTCHAR 05B0
ENCODING 1456
SWIDTH 322 0
DWIDTH 13 0
BBX 3 7 5 -8
BITMAP
E0
E0
E0
00
E0
E0
E0
ENDCHAR
STARTCHAR 05B1
ENCODING 1457
SWIDTH 322 0
DWIDTH 13 0
BBX 12 7 1 -8
BITMAP
CE60
EEF0
CE60
0000
3860
38F0
3860
ENDCHAR
STARTCHAR 05B2
ENCODING 1458
SWIDTH 322 0
DWIDTH 13 0
BBX 11 7 1 -8
BITMAP
FEE0
FEE0
0060
0000
00E0
00E0
00E0
ENDCHAR
STARTCHAR 05B3
ENCODING 1459
SWIDTH 322 0
DWIDTH 13 0
BBX 11 7 1 -8
BITMAP
FEE0
FEE0
3060
3000
30E0
00E0
00E0
ENDCHAR
STARTCHAR 05B4
ENCODING 1460
SWIDTH 322 0
DWIDTH 13 0
BBX 3 3 5 -7
BITMAP
E0
E0
E0
ENDCHAR
STARTCHAR 05B5
ENCODING 1461
SWIDTH 322 0
DWIDTH 13 0
BBX 9 3 2 -7
BITMAP
6300
F380
6300
ENDCHAR
STARTCHAR 05B6
ENCODING 1462
SWIDTH 322 0
DWIDTH 13 0
BBX 9 7 2 -8
BITMAP
6300
F380
6300
0000
1C00
1C00
1C00
ENDCHAR
STARTCHAR 05B7
ENCODING 1463
SWIDTH 322 0
DWIDTH 13 0
BBX 8 2 3 -6
BITMAP
FF
FF
ENDCHAR
STARTCHAR 05B8
ENCODING 1464
SWIDTH 322 0
DWIDTH 13 0
BBX 8 5 3 -8
BITMAP
FF
FF
18
18
18
ENDCHAR
STARTCHAR 05B9
ENCODING 1465
SWIDTH 322 0
DWIDTH 13 0
BBX 3 3 5 23
BITMAP
E0
E0
E0
ENDCHAR
STARTCHAR 05BB
ENCODING 1467
SWIDTH 322 0
DWIDTH 13 0
BBX 13 7 0 -8
BITMAP
6000
F000
6700
0700
0738
0038
0038
ENDCHAR
STARTCHAR 05BC
ENCODING 1468
SWIDTH 322 0
DWIDTH 13 0
BBX 3 3 5 10
BITMAP
E0
E0
E0
ENDCHAR
STARTCHAR 05BD
ENCODING 1469
SWIDTH 322 0
DWIDTH 13 0
BBX 2 7 6 -8
BITMAP
C0
C0
C0
C0
C0
C0
C0
ENDCHAR
STARTCHAR 05BE
ENCODING 1470
SWIDTH 446 0
DWIDTH 18 0
BBX 13 4 2 17
BITMAP
FFF8
FFF8
FFF8
FFF8
ENDCHAR
STARTCHAR 05BF
ENCODING 1471
SWIDTH 322 0
DWIDTH 13 0
BBX 8 2 3 23
BITMAP
FF
FF
ENDCHAR
STARTCHAR 05C0
ENCODING 1472
SWIDTH 297 0
DWIDTH 12 0
BBX 4 29 4 -4
BITMAP
F0
F0
F0
F0
F0
F0
F0
F0
F0
F0
F0
F0
F0
F0
F0
F0
F0
F0
F0
F0
F0
F0
F0
F0
F0
F0
F0
F0
F0
ENDCHAR
STARTCHAR 05C1
ENCODING 1473
SWIDTH 322 0
DWIDTH 13 0
BBX 3 3 15 23
BITMAP
E0
E0
E0
ENDCHAR
STARTCHAR 05C2
ENCODING 1474
SWIDTH 322 0
DWIDTH 13 0
BBX 3 3 -5 23
BITMAP
E0
E0
E0
ENDCHAR
STARTCHAR 05C3
ENCODING 1475
SWIDTH 322 0
DWIDTH 13 0
BBX 5 21 4 0
BITMAP
F8
F8
F8
F8
F8
F8
00
00
00
00
00
00
00
00
00
F8
F8
F8
F8
F8
F8
ENDCHAR
STARTCHAR 05D0
ENCODING 1488
SWIDTH 571 0
DWIDTH 23 0
BBX 20 21 2 0
BITMAP
FE03E0
7E03E0
7F03E0
3F83E0
1F83E0
0FC3E0
0FE7E0
0FE7C0
1FFFC0
3FFF80
7FFF00
7EFE00
7CFE00
7C7F00
FC3F00
FC1F80
F81FC0
F80FC0
F807E0
F807F0
F803F0
ENDCHAR
STARTCHAR 05D1
ENCODING 1489
SWIDTH 571 0
DWIDTH 23 0
BBX 21 21 1 0
BITMAP
3FE000
FFFC00
FFFE00
7FFF00
007F00
003F80
001F80
000F80
000F80
000F80
000F80
000F80
000F80
000F80
000F80
000F80
7FFFF8
7FFFF8
7FFFF8
7FFFF8
7FFFF8
ENDCHAR
STARTCHAR 05D2
ENCODING 1490
SWIDTH 446 0
DWIDTH 18 0
BBX 17 21 0 0
BITMAP
1FE000
1FF800
0FFC00
0FFC00
00FC00
007E00
007E00
007E00
007E00
007E00
007E00
007E00
01FE00
07FE00
0FFE00
1FFF00
3FBF00
3F1F00
7E1F00
7C1F80
FC1F80
ENDCHAR
STARTCHAR 05D3
ENCODING 1491
SWIDTH 546 0
DWIDTH 22 0
BBX 20 21 1 0
BITMAP
FFFFF0
FFFFF0
FFFFF0
FFFFF0
FFFFF0
001F80
001F80
001F80
001F80
001F80
001F80
001F80
001F80
001F80
001F80
001F80
001F80
001F80
001F80
001F80
001F80
ENDCHAR
STARTCHAR 05D4
ENCODING 1492
SWIDTH 620 0
DWIDTH 25 0
BBX 19 21 3 0
BITMAP
3FF000
FFFE00
FFFF00
FFFF80
C03FC0
000FC0
0007E0
0007E0
0007E0
0003E0
F803E0
F803E0
F803E0
F803E0
F803E0
F803E0
F803E0
F803E0
F803E0
F803E0
F803E0
ENDCHAR
STARTCHAR 05D5
ENCODING 1493
SWIDTH 273 0
DWIDTH 11 0
BBX 5 21 3 0
BITMAP
F8
F8
F8
F8
F8
F8
F8
F8
F8
F8
F8
F8
F8
F8
F8
F8
F8
F8
F8
F8
F8
ENDCHAR
STARTCHAR 05D6
ENCODING 1494
SWIDTH 422 0
DWIDTH 17 0
BBX 14 21 2 0
BITMAP
FFFC
FFFC
FFFC
FFFC
FFE0
0780
0F00
1F00
1F00
1F00
1F00
1F00
1F00
1F00
1F00
1F00
1F80
1F80
1F80
1F80
1F80
ENDCHAR
STARTCHAR 05D7
ENCODING 1495
SWIDTH 620 0
DWIDTH 25 0
BBX 19 21 3 0
BITMAP
3FF000
FFFE00
FFFF80
FFFF80
F81FC0
F80FC0
F807E0
F807E0
F807E0
F803E0
F803E0
F803E0
F803E0
F803E0
F803E0
F803E0
F803E0
F803E0
F803E0
F803E0
F803E0
ENDCHAR
STARTCHAR 05D8
ENCODING 1496
SWIDTH 620 0
DWIDTH 25 0
BBX 21 21 2 0
BITMAP
FC0F80
FC1FC0
FC3FE0
FC7FF0
FC7FF0
FC33F0
FC21F8
FC01F8
FC01F8
FC01F8
FC01F8
7C01F8
7C01F8
7C01F0
7E01F0
7E03F0
3F87E0
1FFFE0
0FFFC0
07FF80
01FC00
ENDCHAR
STARTCHAR 05D9
ENCODING 1497
SWIDTH 273 0
DWIDTH 11 0
BBX 5 12 3 9
BITMAP
F8
F8
F8
F8
F8
F8
F8
F8
F8
F8
F8
F8
ENDCHAR
STARTCHAR 05DA
ENCODING 1498
SWIDTH 521 0
DWIDTH 21 0
BBX 17 29 1 -8
BITMAP
3FE000
FFF800
FFFE00
FFFF00
C0FF00
003F80
001F80
000F80
000F80
000F80
000F80
000F80
000F80
000F80
000F80
000F80
000F80
000F80
000F80
000F80
000F80
000F80
000F80
000F80
000F80
000F80
000F80
000F80
000F80
ENDCHAR
STARTCHAR 05DB
ENCODING 1499
SWIDTH 496 0
DWIDTH 20 0
BBX 16 21 2 0
BITMAP
7F80
FFE0
FFF8
FFFC
81FC
00FE
007E
003F
003F
003F
003F
003F
003F
003F
007E
00FE
81FC
FFFC
FFF8
FFE0
7F80
ENDCHAR
STARTCHAR 05DC
ENCODING 1500
SWIDTH 496 0
DWIDTH 20 0
BBX 17 29 1 0
BITMAP
FC0000
FC0000
FC0000
FC0000
FC0000
FC0000
FC0000
FC0000
FFFF80
FFFF80
FFFF80
FFFF80
FFFF80
001F80
001F80
001F80
001F80
001F80
001F00
003F00
007E00
007E00
00FC00
00FC00
00F800
00F800
00F800
00F800
00F800
ENDCHAR
STARTCHAR 05DD
ENCODING 1501
SWIDTH 595 0
DWIDTH 24 0
BBX 19 21 3 0
BITMAP
3FF000
FFFE00
FFFF80
FFFF80
F81FC0
F80FC0
F807E0
F807E0
F807E0
F803E0
F803E0
F803E0
F803E0
F803E0
F803E0
F803E0
FFFFE0
FFFFE0
FFFFE0
FFFFE0
FFFFE0
ENDCHAR
STARTCHAR 05DE
ENCODING 1502
SWIDTH 620 0
DWIDTH 25 0
BBX 22 21 1 0
BITMAP
F81F00
787FC0
7CFFE0
7DFFF0
3FFFF0
3FF1F8
3FE0F8
1FC0F8
1FC0F8
1F80FC
0F80FC
1F80FC
1F00FC
1F00FC
3F00FC
3F00FC
3F1FFC
3E1FFC
3E1FFC
7E1FFC
7E1FFC
ENDCHAR
STARTCHAR 05DF
ENCODING 1503
SWIDTH 273 0
DWIDTH 11 0
BBX 5 29 3 -8
BITMAP
F8
F8
F8
F8
F8
F8
F8
F8
F8
F8
F8
F8
F8
F8
F8
F8
F8
F8
F8
F8
F8
F8
F8
F8
F8
F8
F8
F8
F8
ENDCHAR
STARTCHAR 05E0
ENCODING 1504
SWIDTH 372 0
DWIDTH 15 0
BBX 11 21 2 0
BITMAP
FE00
FF80
FFC0
FFC0
0FE0
07E0
07E0
07E0
03E0
03E0
03E0
03E0
03E0
03E0
03E0
03E0
FFE0
FFE0
FFE0
FFE0
FFE0
ENDCHAR
STARTCHAR 05E1
ENCODING 1505
SWIDTH 620 0
DWIDTH 25 0
BBX 21 21 2 0
BITMAP
01FC00
0FFF00
1FFFC0
3FFFE0
7F0FE0
7E03F0
FC03F0
FC01F8
F801F8
F801F8
F801F8
F801F8
F801F8
FC01F8
FC03F0
7E03F0
7F0FE0
3FFFC0
1FFF80
0FFF00
01FC00
ENDCHAR
STARTCHAR 05E2
ENCODING 1506
SWIDTH 546 0
DWIDTH 22 0
BBX 20 24 0 -3
BITMAP
3F03F0
3F03F0
3F03F0
1F03F0
1F03F0
1F03E0
1F83E0
1F83E0
0F83E0
0F83E0
0F83E0
0F83E0
0FC3E0
07C3E0
07C7E0
07C7C0
07CFC0
07FF80
03FF00
1FFE00
FFF800
FFE000
7F0000
700000
ENDCHAR
STARTCHAR 05E3
ENCODING 1507
SWIDTH 595 0
DWIDTH 24 0
BBX 19 29 2 -8
BITMAP
3FF800
FFFE00
FFFF80
FFFFC0
F81FC0
F80FE0
F807E0
F803E0
F803E0
F803E0
FC03E0
FF03E0
7F83E0
3F83E0
1F83E0
0003E0
0003E0
0003E0
0003E0
0003E0
0003E0
0003E0
0003E0
0003E0
0003E0
0003E0
0003E0
0003E0
0003E0
ENDCHAR
STARTCHAR 05E4
ENCODING 1508
SWIDTH 571 0
DWIDTH 23 0
BBX 20 21 2 0
BITMAP
1FF000
FFFE00
FFFF00
FFFF80
FC1FC0
FC0FE0
FC07E0
7C03F0
7C03F0
7F83F0
7F83F0
3F83F0
0F83F0
0003E0
0007E0
000FE0
603FC0
7FFF80
FFFF00
FFFC00
3FF000
ENDCHAR
STARTCHAR 05E5
ENCODING 1509
SWIDTH 496 0
DWIDTH 20 0
BBX 18 29 0 -8
BITMAP
FC07C0
7E07C0
7E07C0
3F07C0
3F07C0
1F87C0
1F8FC0
0FCFC0
0FCF80
07DF80
07FF00
03FF00
03FE00
03F800
03F000
03F000
03F000
03F000
03F000
03F000
03F000
03F000
03F000
03F000
03F000
03F000
03F000
03F000
03F000
ENDCHAR
STARTCHAR 05E6
ENCODING 1510
SWIDTH 496 0
DWIDTH 20 0
BBX 17 21 1 0
BITMAP
F80F80
FC0F80
7E0F80
7E0F80
3F0F80
1F8F80
1F8F80
0FDF80
07FF00
07FF00
03FE00
01F800
01F800
00FC00
007C00
007E00
FFFF00
FFFF00
FFFF80
FFFF80
FFFF80
ENDCHAR
STARTCHAR 05E7
ENCODING 1511
SWIDTH 571 0
DWIDTH 23 0
BBX 18 29 3 -8
BITMAP
FFFFC0
FFFFC0
FFFFC0
FFFFC0
FFFFC0
000FC0
000FC0
000FC0
000FC0
000FC0
F80F80
F81F80
F83F00
F83F00
F87E00
F87E00
F87C00
F87C00
F87C00
F87C00
F87C00
F80000
F80000
F80000
F80000
F80000
F80000
F80000
F80000
ENDCHAR
STARTCHAR 05E8
ENCODING 1512
SWIDTH 521 0
DWIDTH 21 0
BBX 17 21 1 0
BITMAP
3FE000
FFF800
FFFE00
FFFF00
C0FF00
003F80
001F80
000F80
000F80
000F80
000F80
000F80
000F80
000F80
000F80
000F80
000F80
000F80
000F80
000F80
000F80
ENDCHAR
STARTCHAR 05E9
ENCODING 1513
SWIDTH 720 0
DWIDTH 29 0
BBX 25 21 2 0
BITMAP
F83E0F80
F83E0F80
F83E1F80
F83E1F80
F87E1F80
F87E1F80
F87E1F00
F87E1F00
F8FC1F00
FFFC1F00
FFF81F00
FFF03F00
7F803F00
7C003E00
7E007E00
3F00FE00
3F81FC00
1FFFF800
0FFFF000
03FFC000
00FF0000
ENDCHAR
STARTCHAR 05EA
ENCODING 1514
SWIDTH 670 0
DWIDTH 27 0
BBX 23 21 1 0
BITMAP
1FFF80
FFFFF0
FFFFF8
FFFFFC
67C1FC
07C07E
07C07E
07C03E
07C03E
07C03E
07C03E
07C03E
07C03E
07C03E
07C03E
07C03E
0FC03E
7FC03E
FFC03E
FF803E
7F003E
ENDCHAR
STARTCHAR 05F0
ENCODING 1520
SWIDTH 546 0
DWIDTH 22 0
BBX 16 29 3 -8
BITMAP
F81F
F81F
F81F
F81F
F81F
F81F
F81F
F81F
F81F
F81F
F81F
F81F
F81F
F81F
F81F
F81F
F81F
F81F
F81F
F81F
F81F
F81F
F81F
F81F
F81F
F81F
F81F
F81F
F81F
ENDCHAR
STARTCHAR 05F1
ENCODING 1521
SWIDTH 546 0
DWIDTH 22 0
BBX 16 29 3 -8
BITMAP
F81F
F81F
F81F
F81F
F81F
F81F
F81F
F81F
F81F
F81F
F81F
F81F
001F
001F
001F
001F
001F
001F
001F
001F
001F
001F
001F
001F
001F
001F
001F
001F
001F
ENDCHAR
STARTCHAR 05F2
ENCODING 1522
SWIDTH 546 0
DWIDTH 22 0
BBX 16 12 3 9
BITMAP
F81F
F81F
F81F
F81F
F81F
F81F
F81F
F81F
F81F
F81F
F81F
F81F
ENDCHAR
STARTCHAR 05F3
ENCODING 1523
SWIDTH 273 0
DWIDTH 11 0
BBX 7 8 2 13
BITMAP
3E
7E
7C
7C
F8
F8
F0
F0
ENDCHAR
STARTCHAR 05F4
ENCODING 1524
SWIDTH 496 0
DWIDTH 20 0
BBX 17 8 2 13
BITMAP
3E1F80
7E3F00
7C3E00
7C3E00
F83C00
F87C00
F07800
F07800
ENDCHAR
STARTCHAR 060C
ENCODING 1548
SWIDTH 322 0
DWIDTH 13 0
BBX 7 12 3 5
BITMAP
08
18
30
60
40
E0
F8
FC
FE
7E
7C
38
ENDCHAR
STARTCHAR 061B
ENCODING 1563
SWIDTH 322 0
DWIDTH 13 0
BBX 6 19 3 5
BITMAP
08
30
20
60
40
C0
F0
FC
FC
7C
7C
38
00
00
38
7C
7C
3C
38
ENDCHAR
STARTCHAR 061F
ENCODING 1567
SWIDTH 347 0
DWIDTH 14 0
BBX 12 23 1 5
BITMAP
0F80
3860
7060
70F0
F1F0
F9F0
F9F0
FCE0
7C00
3E00
1E00
0E00
0600
0200
0200
0200
0000
0000
0700
0F00
0F00
0F00
0700
ENDCHAR
STARTCHAR 0621
ENCODING 1569
SWIDTH 471 0
DWIDTH 19 0
BBX 15 18 2 2
BITMAP
07C0
0FF0
1FE0
1FE0
3FC0
78C0
7800
780E
FE7C
7FFC
3FFC
3FF8
1FE0
1F00
3C00
7800
7000
6000
ENDCHAR
STARTCHAR 0622
ENCODING 1570
SWIDTH 248 0
DWIDTH 10 0
BBX 9 29 0 4
BITMAP
7080
9F00
0000
0000
0000
0800
0800
1C00
1C00
1C00
1C00
1C00
1C00
1E00
1E00
0E00
0E00
0E00
0E00
0E00
0E00
0E00
0E00
0E00
0600
0E00
0C00
0C00
0800
ENDCHAR
STARTCHAR 0623
ENCODING 1571
SWIDTH 223 0
DWIDTH 9 0
BBX 5 32 2 4
BITMAP
30
50
40
60
78
C0
00
00
20
20
70
70
70
70
70
70
78
38
38
38
38
38
38
38
38
38
18
18
18
30
30
30
ENDCHAR
STARTCHAR 0624
ENCODING 1572
SWIDTH 446 0
DWIDTH 18 0
BBX 18 29 1 -3
BITMAP
00C000
014000
010000
038000
01E000
030000
000000
000700
000F80
000FC0
001FC0
001FC0
0039C0
0038C0
0038C0
003FC0
003FC0
003FC0
001FC0
000FC0
0001C0
0003C0
0007C0
400F80
F03F80
3FFF00
0FFE00
07FC00
01F000
ENDCHAR
STARTCHAR 0625
ENCODING 1573
SWIDTH 223 0
DWIDTH 9 0
BBX 5 32 2 -3
BITMAP
20
20
70
70
70
70
70
70
78
78
38
38
38
38
38
38
38
38
38
18
38
30
30
20
00
00
30
50
40
60
78
C0
ENDCHAR
STARTCHAR 0626
ENCODING 1574
SWIDTH 645 0
DWIDTH 26 0
BBX 20 24 3 -2
BITMAP
180000
280000
200000
700000
3C00E0
6003F0
0007F0
000FF0
080FF0
101E30
303820
203000
603FE0
403FE0
C03FE0
C01FE0
C00060
C001C0
C007C0
F03F80
FFFF00
7FFE00
7FF800
1FC000
ENDCHAR
STARTCHAR 0627
ENCODING 1575
SWIDTH 223 0
DWIDTH 9 0
BBX 4 24 3 5
BITMAP
40
40
E0
E0
E0
E0
E0
E0
F0
F0
70
70
70
70
70
70
70
70
70
30
70
60
60
40
ENDCHAR
STARTCHAR 0628
ENCODING 1576
SWIDTH 645 0
DWIDTH 26 0
BBX 25 23 2 -3
BITMAP
10000200
30000300
20000300
60000380
60000780
60000380
E0000180
E0000180
78000180
7FFFFF80
7FFFFF80
3FFFFF80
3FFFFF80
0FFFFF80
00000000
00000000
00040000
000F0000
000FC000
001F8000
001F8000
00070000
00030000
ENDCHAR
STARTCHAR 0629
ENCODING 1577
SWIDTH 347 0
DWIDTH 14 0
BBX 10 24 2 5
BITMAP
0600
4780
FF80
FF00
F200
2000
0000
0000
1000
3C00
3E00
7F00
7F80
3FC0
7FC0
67C0
C3C0
C1C0
C3C0
FFC0
FF80
FF80
FE00
7800
ENDCHAR
STARTCHAR 062A
ENCODING 1578
SWIDTH 645 0
DWIDTH 26 0
BBX 25 19 2 6
BITMAP
00010000
0023C000
007FC000
007F8000
00798000
10100200
30000300
20000300
60000380
60000780
60000380
E0000180
E0000180
78000180
7FFFFF80
7FFFFF80
3FFFFF80
3FFFFF80
0FFFFF80
ENDCHAR
STARTCHAR 062B
ENCODING 1579
SWIDTH 645 0
DWIDTH 26 0
BBX 24 23 3 6
BITMAP
002000
007800
007800
00F800
001600
004780
00FF80
00FF00
00F300
202004
600006
400006
C00007
C0000F
C00007
C00003
E00003
F00003
FFFFFF
FFFFFF
7FFFFF
3FFFFF
1FFFFF
ENDCHAR
STARTCHAR 062C
ENCODING 1580
SWIDTH 571 0
DWIDTH 23 0
BBX 21 29 1 -8
BITMAP
0FF000
3FFFE0
3FFFE0
7FFFE0
7FFFE0
F3FFC0
87FE00
0FE000
1F8000
1E0000
380000
300000
701000
603C00
607E00
E07E00
E0FC00
E03C00
E00800
F00000
700000
780000
7E0000
7FC000
3FFFF8
1FFFF8
0FFFE0
03FF80
007E00
ENDCHAR
STARTCHAR 062D
ENCODING 1581
SWIDTH 571 0
DWIDTH 23 0
BBX 21 29 1 -8
BITMAP
0FF000
3FFFE0
3FFFE0
7FFFE0
7FFFE0
F3FFC0
87FE00
0FE000
1F8000
1E0000
380000
300000
700000
600000
600000
E00000
E00000
E00000
E00000
F00000
700000
780000
7E0000
7FC000
3FFFF8
1FFFF8
0FFFE0
03FF80
007E00
ENDCHAR
STARTCHAR 062E
ENCODING 1582
SWIDTH 571 0
DWIDTH 23 0
BBX 21 38 1 -8
BITMAP
008000
00E000
01F800
01F000
03F000
00E000
002000
000000
000000
0FF000
3FFFE0
3FFFE0
7FFFE0
7FFFE0
F3FFC0
87FE00
0FE000
1F8000
1E0000
380000
300000
700000
600000
600000
E00000
E00000
E00000
E00000
F00000
700000
780000
7E0000
7FC000
3FFFF8
1FFFF8
0FFFE0
03FF80
007E00
ENDCHAR
STARTCHAR 062F
ENCODING 1583
SWIDTH 347 0
DWIDTH 14 0
BBX 12 18 3 6
BITMAP
0100
0180
01C0
01E0
01E0
03E0
03F0
00F0
00F0
0070
0030
0030
4030
7FF0
FFF0
FFF0
7FF0
7FF0
ENDCHAR
STARTCHAR 0630
ENCODING 1584
SWIDTH 347 0
DWIDTH 14 0
BBX 12 28 3 6
BITMAP
0800
1E00
1F80
3F00
3F00
0E00
0600
0000
0000
0000
0100
0180
01C0
01E0
01E0
03E0
03F0
00F0
00F0
0070
0030
0030
4030
7FF0
FFF0
FFF0
7FF0
7FF0
ENDCHAR
STARTCHAR 0631
ENCODING 1585
SWIDTH 422 0
DWIDTH 17 0
BBX 17 21 2 -3
BITMAP
000400
000200
000700
000700
000700
000780
000380
000380
000180
000180
000180
000380
000780
000F80
001F00
803F00
E0FE00
7FFC00
3FF800
0FF000
03C000
ENDCHAR
STARTCHAR 0632
ENCODING 1586
SWIDTH 422 0
DWIDTH 17 0
BBX 17 30 2 -3
BITMAP
001000
003C00
003F00
007E00
007E00
001C00
000C00
000000
000000
000400
000200
000700
000700
000700
000780
000380
000380
000180
000180
000180
000380
000780
000F80
001F00
803F00
E0FE00
7FFC00
3FF800
0FF000
03C000
ENDCHAR
STARTCHAR 0633
ENCODING 1587
SWIDTH 893 0
DWIDTH 36 0
BBX 34 21 3 -3
BITMAP
0000000040
00006008C0
00006018C0
08007019C0
1800F019C0
3000F018C0
2000707CC0
60007FFFC0
60003FFFC0
C0003FFFC0
C0003FFFC0
C0003FE3C0
C000300000
E000700000
F000F00000
FC03F00000
FFFFE00000
FFFFE00000
7FFFC00000
1FFF000000
07FC000000
ENDCHAR
STARTCHAR 0634
ENCODING 1588
SWIDTH 893 0
DWIDTH 36 0
BBX 34 32 3 -3
BITMAP
0000004000
000000F800
000000F000
000000F000
0000002400
000000CF00
000000FF00
000001FF00
000001E200
0000006000
0000000000
0000000040
00006008C0
00006018C0
08007019C0
1800F019C0
3000F018C0
2000707CC0
60007FFFC0
60003FFFC0
C0003FFFC0
C0003FFFC0
C0003FE3C0
C000300000
E000700000
F000F00000
FC03F00000
FFFFE00000
FFFFE00000
7FFFC00000
1FFF000000
07FC000000
ENDCHAR
STARTCHAR 0635
ENCODING 1589
SWIDTH 1067 0
DWIDTH 43 0
BBX 41 23 3 -3
BITMAP
000000003C00
00000000FE00
00000001FF00
00006007FF00
0000600FFF80
0800703F0780
1800F07C0380
3000F0F80380
200073E00780
60007FFFFF80
60003FFFFF80
C0003FFFFF80
C0003FFFFF80
C0003FFFFF80
C00030000000
E00070000000
F000F0000000
FC03F0000000
FFFFE0000000
FFFFE0000000
7FFFC0000000
1FFF80000000
07FC00000000
ENDCHAR
STARTCHAR 0636
ENCODING 1590
SWIDTH 1067 0
DWIDTH 43 0
BBX 42 32 2 -3
BITMAP
000000100000
0000003C0000
0000003F0000
0000007E0000
0000007E0000
0000003C0000
0000000C0000
000000000000
000000000000
000000001E00
000000007F00
00002001FF80
00002003FF80
00003007FF80
0C00301F83C0
0800783E01C0
180078F801C0
100079F007C0
30003FFFFFC0
20003FFFFFC0
60001FFFFFC0
60001FFFFFC0
60001FFFFFC0
600018000000
F00038000000
F80078000000
7E01F0000000
7FFFF0000000
7FFFE0000000
3FFFE0000000
1FFF80000000
03FE00000000
ENDCHAR
STARTCHAR 0637
ENCODING 1591
SWIDTH 521 0
DWIDTH 21 0
BBX 22 27 0 6
BITMAP
020000
020000
078000
07E000
07E000
0FE000
03C000
03C000
038000
038000
018000
01C000
01C000
01C1F0
01C7F8
01CFFC
01DFFC
01FFFC
01F83C
03F01C
07C01C
0F803C
FFFFFC
FFFFFC
FFFFFC
FFFFFC
FFFFFC
ENDCHAR
STARTCHAR 0638
ENCODING 1592
SWIDTH 521 0
DWIDTH 21 0
BBX 22 27 0 6
BITMAP
020000
020000
078000
07E000
07E300
0FE380
03C7E0
03C7E0
038FC0
0383C0
018080
01C000
01C000
01C1F0
01C7F8
01CFFC
01DFFC
01FFFC
01F83C
03F01C
07C01C
0F803C
FFFFFC
FFFFFC
FFFFFC
FFFFFC
FFFFFC
ENDCHAR
STARTCHAR 0639
ENCODING 1593
SWIDTH 546 0
DWIDTH 22 0
BBX 20 32 1 -8
BITMAP
03E000
0FF800
1FFC00
1FFE00
3F0000
380000
700000
780180
7C1F80
7F7F00
3FFF00
3FFE00
1FF800
1FC000
3F0000
3C0000
780000
700000
600000
E00000
C00000
C00000
C00000
E00000
F00000
FC0000
7F8000
7FFFF0
3FFFE0
1FFFC0
0FFF00
01FC00
ENDCHAR
STARTCHAR 063A
ENCODING 1594
SWIDTH 546 0
DWIDTH 22 0
BBX 20 41 1 -8
BITMAP
020000
078000
07E000
0FC000
0FC000
038000
018000
000000
000000
03E000
0FF800
1FFC00
1FFE00
3F0000
380000
700000
780180
7C1F80
7F7F00
3FFF00
3FFE00
1FF800
1FC000
3F0000
3C0000
780000
700000
600000
E00000
C00000
C00000
C00000
E00000
F00000
FC0000
7F8000
7FFFF0
3FFFE0
1FFFC0
0FFF00
01FC00
ENDCHAR
STARTCHAR 0640
ENCODING 1600
SWIDTH 198 0
DWIDTH 8 0
BBX 9 5 0 6
BITMAP
FF80
FF80
FF80
FF80
FF80
ENDCHAR
STARTCHAR 0641
ENCODING 1601
SWIDTH 744 0
DWIDTH 30 0
BBX 30 26 2 5
BITMAP
00000180
000001C0
000003F0
000003F0
000007E0
000001E0
00000040
00000000
00000000
000000E0
000001F0
300003F8
300003F8
200007F8
60000778
60000E38
60000F3C
E0000FBC
E0000FFC
F80007FC
FFFFFFFC
FFFFFFFC
7FFFFFFC
7FFFFFFC
3FFFFFFC
0FFE0000
ENDCHAR
STARTCHAR 0642
ENCODING 1602
SWIDTH 620 0
DWIDTH 25 0
BBX 24 30 2 -5
BITMAP
000018
00013E
0003FE
0007FC
0007C8
000180
000000
000038
00007C
0000FE
0000FE
0001FE
0C019E
08018F
1803FF
3003FF
2001FF
6001FF
6000FF
600003
E00003
E00003
E00007
F8001F
FE00FF
7FFFFE
7FFFFC
3FFFF8
1FFFE0
03FF00
ENDCHAR
STARTCHAR 0643
ENCODING 1603
SWIDTH 546 0
DWIDTH 22 0
BBX 21 25 2 6
BITMAP
000040
0000C0
0000E0
0009F8
0019F8
0039F0
0030F0
0060F0
007C60
007C60
007C60
007C70
301C70
201C30
607830
63E030
600030
E00038
E00038
F80018
FFFFF8
FFFFF8
7FFFF8
3FFFF8
0FFFF8
ENDCHAR
STARTCHAR 0644
ENCODING 1604
SWIDTH 446 0
DWIDTH 18 0
BBX 17 32 2 -1
BITMAP
000400
000400
000E00
000F80
000F80
000F80
000780
000700
000600
000700
000700
000300
000300
000300
000380
080380
100380
300180
200180
600180
600180
400180
C00180
C00180
C00380
E00780
F01F80
FFFF00
7FFF00
7FFE00
3FF800
0FE000
ENDCHAR
STARTCHAR 0645
ENCODING 1605
SWIDTH 347 0
DWIDTH 14 0
BBX 14 25 2 -8
BITMAP
0380
07C0
0FE0
1FF0
1FF0
19F8
30F8
00FC
1FFC
3FFC
7FFC
7FFC
FC00
C000
C000
E000
6000
6000
7000
3000
3000
3000
3000
1000
1000
ENDCHAR
STARTCHAR 0646
ENCODING 1606
SWIDTH 546 0
DWIDTH 22 0
BBX 20 27 3 -3
BITMAP
004000
00F000
00FC00
01F800
01F800
007000
003000
000060
000060
080060
1800F0
3000F0
200070
600070
400030
C00030
C00030
C00030
C00030
E00070
F000F0
FC03F0
FFFFE0
FFFFE0
7FFFC0
3FFF80
07FC00
ENDCHAR
STARTCHAR 0647
ENCODING 1607
SWIDTH 347 0
DWIDTH 14 0
BBX 10 16 2 5
BITMAP
1000
3C00
3E00
7F00
7F80
3FC0
7FC0
67C0
C3C0
C1C0
C3C0
FFC0
FF80
FF80
FE00
7800
ENDCHAR
STARTCHAR 0648
ENCODING 1608
SWIDTH 446 0
DWIDTH 18 0
BBX 18 22 1 -3
BITMAP
000700
000F80
000FC0
001FC0
001FC0
0039C0
0038C0
0038C0
003FC0
003FC0
003FC0
001FC0
000FC0
0001C0
0003C0
0007C0
400F80
F03F80
3FFF00
0FFE00
07FC00
01F000
ENDCHAR
STARTCHAR 0649
ENCODING 1609
SWIDTH 645 0
DWIDTH 26 0
BBX 20 20 3 -2
BITMAP
0000E0
0003F0
0007F0
000FF0
080FF0
101E30
303820
203000
603FE0
403FE0
C03FE0
C01FE0
C00060
C001C0
C007C0
F03F80
FFFF00
7FFE00
7FF800
1FC000
ENDCHAR
STARTCHAR 064A
ENCODING 1610
SWIDTH 645 0
DWIDTH 26 0
BBX 20 26 3 -8
BITMAP
0000E0
0003F0
0007F0
000FF0
080FF0
101E30
303820
203000
603FE0
403FE0
C03FE0
C01FE0
C00060
C001C0
C007C0
F03F80
FFFF00
7FFE00
7FF800
1FC000
000000
001800
011E00
03FC00
03CC00
008000
ENDCHAR
STARTCHAR 064B
ENCODING 1611
SWIDTH 198 0
DWIDTH 8 0
BBX 7 7 1 27
BITMAP
02
1C
78
C2
1E
78
C0
ENDCHAR
STARTCHAR 064C
ENCODING 1612
SWIDTH 223 0
DWIDTH 9 0
BBX 8 8 1 27
BITMAP
03
05
65
67
A7
27
3D
30
ENDCHAR
STARTCHAR 064D
ENCODING 1613
SWIDTH 198 0
DWIDTH 8 0
BBX 7 7 1 -5
BITMAP
02
1C
78
C2
1C
78
C0
ENDCHAR
STARTCHAR 064E
ENCODING 1614
SWIDTH 198 0
DWIDTH 8 0
BBX 7 4 1 27
BITMAP
02
1E
78
C0
ENDCHAR
STARTCHAR 064F
ENCODING 1615
SWIDTH 198 0
DWIDTH 8 0
BBX 6 8 2 27
BITMAP
0C
1C
24
1C
1C
14
20
C0
ENDCHAR
STARTCHAR 0650
ENCODING 1616
SWIDTH 198 0
DWIDTH 8 0
BBX 7 4 1 -2
BITMAP
02
1C
78
C0
ENDCHAR
STARTCHAR 0651
ENCODING 1617
SWIDTH 198 0
DWIDTH 8 0
BBX 7 6 1 27
BITMAP
02
12
9A
9E
FE
60
ENDCHAR
STARTCHAR 0652
ENCODING 1618
SWIDTH 173 0
DWIDTH 7 0
BBX 6 7 1 27
BITMAP
30
78
58
8C
C8
F8
70
ENDCHAR
STARTCHAR 0660
ENCODING 1632
SWIDTH 546 0
DWIDTH 22 0
BBX 6 10 8 8
BITMAP
40
60
78
FC
FC
FC
FC
78
38
08
ENDCHAR
STARTCHAR 0661
ENCODING 1633
SWIDTH 546 0
DWIDTH 22 0
BBX 7 22 7 6
BITMAP
40
60
70
F8
F8
FC
FC
7C
3E
3E
1E
1E
0E
0E
0E
06
06
06
06
06
06
06
ENDCHAR
STARTCHAR 0662
ENCODING 1634
SWIDTH 546 0
DWIDTH 22 0
BBX 12 22 5 6
BITMAP
4030
6030
7870
7FF0
FFF0
FFF0
7FE0
3FC0
3F80
1E00
1F00
0F00
0F00
0700
0700
0300
0300
0300
0300
0100
0100
0100
ENDCHAR
STARTCHAR 0663
ENCODING 1635
SWIDTH 546 0
DWIDTH 22 0
BBX 16 22 3 6
BITMAP
0021
6021
7073
78FF
FFFF
FFFF
7FFF
7FFE
3FFE
1F3C
1E00
0E00
0E00
0E00
0E00
0600
0600
0600
0600
0600
0600
0400
ENDCHAR
STARTCHAR 0664
ENCODING 1636
SWIDTH 546 0
DWIDTH 22 0
BBX 10 22 6 6
BITMAP
0100
0300
0600
0E00
1E00
3C00
7000
F800
FF00
FF80
7F00
1E00
0C00
1800
3000
7E00
7FC0
7FC0
7F80
7F80
3F80
0380
ENDCHAR
STARTCHAR 0665
ENCODING 1637
SWIDTH 546 0
DWIDTH 22 0
BBX 13 16 5 9
BITMAP
0F00
1FC0
1FE0
3FF0
3FF0
7FF8
63F8
C0F8
C038
F038
FFF0
FFF0
FFE0
FFE0
7FC0
3E00
ENDCHAR
STARTCHAR 0666
ENCODING 1638
SWIDTH 546 0
DWIDTH 22 0
BBX 13 23 4 6
BITMAP
8000
C0C0
FFC0
FFC0
FFC0
FF80
FF80
7F80
00C0
00C0
00C0
00C0
00C0
00E0
00E0
00F0
00F8
00F8
00F8
0078
0070
0030
0010
ENDCHAR
STARTCHAR 0667
ENCODING 1639
SWIDTH 546 0
DWIDTH 22 0
BBX 15 22 3 6
BITMAP
8002
4006
6006
F00E
F00E
F81E
F81E
FC1E
7C3C
7C38
3E38
1E30
0E60
0760
0760
0340
03C0
03C0
01C0
01C0
0180
0080
ENDCHAR
STARTCHAR 0668
ENCODING 1640
SWIDTH 546 0
DWIDTH 22 0
BBX 15 22 4 6
BITMAP
0200
0300
0700
0700
0780
0780
0580
0DC0
0DC0
1CE0
18F0
38F8
3878
787C
F07E
F03E
F03E
E01E
E01E
C00C
C004
8004
ENDCHAR
STARTCHAR 0669
ENCODING 1641
SWIDTH 546 0
DWIDTH 22 0
BBX 12 23 5 6
BITMAP
0F00
1F00
3F80
7F80
7F80
E380
C180
FF80
FF80
FF80
FF80
7F80
3FC0
01C0
01C0
01E0
01F0
00F0
00F0
00E0
00E0
0060
0020
ENDCHAR
STARTCHAR 066A
ENCODING 1642
SWIDTH 521 0
DWIDTH 21 0
BBX 15 27 3 4
BITMAP
7806
780E
FC0C
781C
7018
0038
0030
0070
0060
00E0
00C0
01C0
0180
0380
0300
0700
0600
0E00
0C00
1C00
1800
3800
301C
703C
607E
E03C
C03C
ENDCHAR
STARTCHAR 066B
ENCODING 1643
SWIDTH 322 0
DWIDTH 13 0
BBX 5 9 4 1
BITMAP
70
F8
F8
F8
78
30
30
E0
80
ENDCHAR
STARTCHAR 066D
ENCODING 1645
SWIDTH 521 0
DWIDTH 21 0
BBX 13 14 4 16
BITMAP
0600
0600
7660
76E0
3BC0
0B00
F6F8
FFF8
0B00
3AC0
76E0
7660
0600
0600
ENDCHAR
STARTCHAR 0671
ENCODING 1649
SWIDTH 744 0
DWIDTH 30 0
BBX 20 25 5 0
BITMAP
FFFFF0
800010
800010
800010
800010
800010
800010
800010
800010
800010
800010
800010
800010
800010
800010
800010
800010
800010
800010
800010
800010
800010
800010
800010
FFFFF0
ENDCHAR
STARTCHAR 067E
ENCODING 1662
SWIDTH 645 0
DWIDTH 26 0
BBX 25 26 2 -6
BITMAP
10000200
30000300
20000300
60000380
60000780
60000380
E0000180
E0000180
78000180
7FFFFF80
7FFFFF80
3FFFFF80
3FFFFF80
0FFFFF80
00000000
00000000
00010000
0033C000
003FC000
007FC000
00798000
00120000
0007C000
00078000
000F8000
00010000
ENDCHAR
STARTCHAR 0686
ENCODING 1670
SWIDTH 571 0
DWIDTH 23 0
BBX 21 29 1 -8
BITMAP
0FF000
3FFFE0
3FFFE0
7FFFE0
7FFFE0
F3FFC0
87FE00
0FE000
1F8000
1E0000
380000
300C00
708F00
61FF00
61FE00
E1E600
E04800
E01E00
E01E00
F03E00
700C00
780000
7E0000
7FC000
3FFFF8
1FFFF8
0FFFE0
03FF80
007E00
ENDCHAR
STARTCHAR 0698
ENCODING 1688
SWIDTH 422 0
DWIDTH 17 0
BBX 17 33 2 -3
BITMAP
002000
007800
00F800
00F000
003600
004780
00FF80
00FF00
00F200
002000
000000
000000
000400
000200
000700
000700
000700
000780
000380
000380
000180
000180
000180
000380
000780
000F80
001F00
803F00
E0FE00
7FFC00
3FF800
0FF000
03C000
ENDCHAR
STARTCHAR 06A4
ENCODING 1700
SWIDTH 744 0
DWIDTH 30 0
BBX 20 25 5 0
BITMAP
FFFFF0
800010
800010
800010
800010
800010
800010
800010
800010
800010
800010
800010
800010
800010
800010
800010
800010
800010
800010
800010
800010
800010
800010
800010
FFFFF0
ENDCHAR
STARTCHAR 06A9
ENCODING 1705
SWIDTH 744 0
DWIDTH 30 0
BBX 30 22 2 6
BITMAP
00000010
000000F0
000003F0
00000FF0
00001FF0
00003FC0
00003E00
00003C00
00003E00
30003F00
20003F80
60001FC0
60000BC0
600001E0
E00000F0
E0000078
F8000038
FFFFFFFC
FFFFFFFC
7FFFFFFC
3FFFFFFC
0FFFFFFC
ENDCHAR
STARTCHAR 06AF
ENCODING 1711
SWIDTH 744 0
DWIDTH 30 0
BBX 30 28 2 6
BITMAP
00000010
000000F0
000003F0
00000FF0
00003FC0
00007F00
0000F810
0000E0F0
000083F0
00000FF0
00001FF0
00003FC0
00003E00
00003C00
00003E00
30003F00
20003F80
60001FC0
60000BC0
600001E0
E00000F0
E0000078
F8000038
FFFFFFFC
FFFFFFFC
7FFFFFFC
3FFFFFFC
0FFFFFFC
ENDCHAR
STARTCHAR 06CC
ENCODING 1740
SWIDTH 645 0
DWIDTH 26 0
BBX 20 20 3 -2
BITMAP
0000E0
0003F0
0007F0
000FF0
080FF0
101E30
303820
203000
603FE0
403FE0
C03FE0
C01FE0
C00060
C001C0
C007C0
F03F80
FFFF00
7FFE00
7FF800
1FC000
ENDCHAR
STARTCHAR 06D5
ENCODING 1749
SWIDTH 347 0
DWIDTH 14 0
BBX 10 16 2 5
BITMAP
1000
3C00
3E00
7F00
7F80
3FC0
7FC0
67C0
C3C0
C1C0
C3C0
FFC0
FF80
FF80
FE00
7800
ENDCHAR
STARTCHAR 06F0
ENCODING 1776
SWIDTH 546 0
DWIDTH 22 0
BBX 6 10 8 8
BITMAP
40
60
78
FC
FC
FC
FC
78
38
08
ENDCHAR
STARTCHAR 06F1
ENCODING 1777
SWIDTH 546 0
DWIDTH 22 0
BBX 7 22 7 6
BITMAP
40
60
70
F8
F8
FC
FC
7C
3E
3E
1E
1E
0E
0E
0E
06
06
06
06
06
06
06
ENDCHAR
STARTCHAR 06F2
ENCODING 1778
SWIDTH 546 0
DWIDTH 22 0
BBX 12 22 5 6
BITMAP
4030
6030
7870
7FF0
FFF0
FFF0
7FE0
3FC0
3F80
1E00
1F00
0F00
0F00
0700
0700
0300
0300
0300
0300
0100
0100
0100
ENDCHAR
STARTCHAR 06F3
ENCODING 1779
SWIDTH 546 0
DWIDTH 22 0
BBX 16 22 3 6
BITMAP
0021
6021
7073
78FF
FFFF
FFFF
7FFF
7FFE
3FFE
1F3C
1E00
0E00
0E00
0E00
0E00
0600
0600
0600
0600
0600
0600
0400
ENDCHAR
STARTCHAR 06F4
ENCODING 1780
SWIDTH 546 0
DWIDTH 22 0
BBX 16 23 3 6
BITMAP
0078
20FC
21FE
71C0
7980
7D01
FF07
7FFE
3FFE
3FFE
1FFC
0FF8
0FF0
0700
0700
0700
0700
0300
0300
0300
0300
0200
0200
ENDCHAR
STARTCHAR 06F5
ENCODING 1781
SWIDTH 546 0
DWIDTH 22 0
BBX 14 22 4 6
BITMAP
0400
0700
0700
0780
07C0
07E0
03F0
07F0
0CF8
1878
183C
301C
701C
700C
E00C
F0CC
F1FC
FFFC
FFF8
FFF8
7FF0
3C00
ENDCHAR
STARTCHAR 06F6
ENCODING 1782
SWIDTH 546 0
DWIDTH 22 0
BBX 14 23 4 6
BITMAP
0380
07E0
0FF0
1FF0
3818
3000
6000
700C
FFFC
FFF8
FFF8
7FF8
1FF0
07C0
0780
0F00
0E00
0C00
0C00
1C00
1800
1800
1800
ENDCHAR
STARTCHAR 06F7
ENCODING 1783
SWIDTH 546 0
DWIDTH 22 0
BBX 15 22 3 6
BITMAP
8002
4006
6006
F00E
F00E
F81E
F81E
FC1E
7C3C
7C38
3E38
1E30
0E60
0760
0760
0340
03C0
03C0
01C0
01C0
0180
0080
ENDCHAR
STARTCHAR 06F8
ENCODING 1784
SWIDTH 546 0
DWIDTH 22 0
BBX 15 22 4 6
BITMAP
0200
0300
0700
0700
0780
0780
0580
0DC0
0DC0
1CE0
18F0
38F8
3878
787C
F07E
F03E
F03E
E01E
E01E
C00C
C004
8004
ENDCHAR
STARTCHAR 06F9
ENCODING 1785
SWIDTH 546 0
DWIDTH 22 0
BBX 12 23 5 6
BITMAP
0F00
1F00
3F80
7F80
7F80
E380
C180
FF80
FF80
FF80
FF80
7F80
3FC0
01C0
01C0
01E0
01F0
00F0
00F0
00E0
00E0
0060
0020
ENDCHAR
STARTCHAR 1E80
ENCODING 7808
SWIDTH 943 0
DWIDTH 38 0
BBX 38 37 0 0
BITMAP
0007E00000
0003F00000
0001F00000
0000F80000
0000780000
00003C0000
0000000000
0000000000
FC01FE00FC
FC01FE00F8
7E01FE01F8
7E01FE01F8
7E03FF01F8
7E03FF01F0
3E03FF03F0
3F03FF03F0
3F07FF83F0
3F07CF83E0
1F07CF83E0
1F87CF87E0
1F8FCFC7E0
1F8F87C7C0
0F8F87C7C0
0F8F87C7C0
0FDF87EFC0
0FDF03EFC0
0FDF03EF80
07FF03EF80
07FE03FF80
07FE01FF80
07FE01FF00
03FE01FF00
03FC01FF00
03FC00FF00
03FC00FE00
01FC00FE00
01F800FE00
ENDCHAR
STARTCHAR 1E81
ENCODING 7809
SWIDTH 769 0
DWIDTH 31 0
BBX 31 29 0 0
BITMAP
003F0000
001F8000
000F8000
00078000
0003C000
0001C000
00000000
00000000
FC07C03E
7C07E07E
7C0FE07C
7E0FE07C
3E0FE0FC
3E0FF0F8
3E1FF0F8
1F1FF0F8
1F1EF1F0
1F3EF9F0
1F3EF9F0
0FBE7BE0
0FBC7BE0
0FFC7FE0
07FC7FE0
07FC3FC0
07F83FC0
03F83FC0
03F81F80
03F01F80
01F01F80
ENDCHAR
STARTCHAR 1E82
ENCODING 7810
SWIDTH 943 0
DWIDTH 38 0
BBX 38 37 0 0
BITMAP
00003F0000
00003E0000
00007C0000
00007C0000
0000780000
0000F00000
0000000000
0000000000
FC01FE00FC
FC01FE00F8
7E01FE01F8
7E01FE01F8
7E03FF01F8
7E03FF01F0
3E03FF03F0
3F03FF03F0
3F07FF83F0
3F07CF83E0
1F07CF83E0
1F87CF87E0
1F8FCFC7E0
1F8F87C7C0
0F8F87C7C0
0F8F87C7C0
0FDF87EFC0
0FDF03EFC0
0FDF03EF80
07FF03EF80
07FE03FF80
07FE01FF80
07FE01FF00
03FE01FF00
03FC01FF00
03FC00FF00
03FC00FE00
01FC00FE00
01F800FE00
ENDCHAR
STARTCHAR 1E83
ENCODING 7811
SWIDTH 769 0
DWIDTH 31 0
BBX 31 29 0 0
BITMAP
0001F800
0001F000
0003E000
0003C000
00078000
00070000
00000000
00000000
FC07C03E
7C07E07E
7C0FE07C
7E0FE07C
3E0FE0FC
3E0FF0F8
3E1FF0F8
1F1FF0F8
1F1EF1F0
1F3EF9F0
1F3EF9F0
0FBE7BE0
0FBC7BE0
0FFC7FE0
07FC7FE0
07FC3FC0
07F83FC0
03F83FC0
03F81F80
03F01F80
01F01F80
ENDCHAR
STARTCHAR 1E84
ENCODING 7812
SWIDTH 943 0
DWIDTH 38 0
BBX 38 35 0 0
BITMAP
000F878000
000F878000
000F878000
000F878000
0000000000
0000000000
FC01FE00FC
FC01FE00F8
7E01FE01F8
7E01FE01F8
7E03FF01F8
7E03FF01F0
3E03FF03F0
3F03FF03F0
3F07FF83F0
3F07CF83E0
1F07CF83E0
1F87CF87E0
1F8FCFC7E0
1F8F87C7C0
0F8F87C7C0
0F8F87C7C0
0FDF87EFC0
0FDF03EFC0
0FDF03EF80
07FF03EF80
07FE03FF80
07FE01FF80
07FE01FF00
03FE01FF00
03FC01FF00
03FC00FF00
03FC00FE00
01FC00FE00
01F800FE00
ENDCHAR
STARTCHAR 1E85
ENCODING 7813
SWIDTH 769 0
DWIDTH 31 0
BBX 31 27 0 0
BITMAP
007C7C00
007C7C00
007C7C00
007C7C00
00000000
00000000
FC07C03E
7C07E07E
7C0FE07C
7E0FE07C
3E0FE0FC
3E0FF0F8
3E1FF0F8
1F1FF0F8
1F1EF1F0
1F3EF9F0
1F3EF9F0
0FBE7BE0
0FBC7BE0
0FFC7FE0
07FC7FE0
07FC3FC0
07F83FC0
03F83FC0
03F81F80
03F01F80
01F01F80
ENDCHAR
STARTCHAR 1EA0
ENCODING 7840
SWIDTH 720 0
DWIDTH 29 0
BBX 29 38 0 -9
BITMAP
001F8000
001FC000
003FC000
003FE000
007FE000
007FE000
007DF000
00F9F000
00F9F800
01F8F800
01F0F800
01F0FC00
03F07C00
03E07E00
03E07E00
07E03E00
07C03F00
0FFFFF00
0FFFFF80
0FFFFF80
1FFFFF80
1FFFFFC0
3F000FC0
3F000FE0
3F0007E0
7E0007E0
7E0003F0
7E0003F0
FC0003F8
00000000
00000000
00000000
001F8000
001F8000
001F8000
001F8000
001F8000
001F8000
ENDCHAR
STARTCHAR 1EA1
ENCODING 7841
SWIDTH 546 0
DWIDTH 22 0
BBX 20 30 1 -9
BITMAP
03FC00
0FFF80
1FFFC0
3FFFC0
3F0FC0
7E07E0
1C07E0
0007E0
000FE0
01FFE0
0FFFE0
3FE7E0
7E07E0
7C07E0
FC07E0
FC0FE0
7E1FE0
7FFFE0
7FFFE0
3FF3E0
0FC3F0
000000
000000
000000
01F000
01F000
01F000
01F000
01F000
01F000
ENDCHAR
STARTCHAR 1EA2
ENCODING 7842
SWIDTH 720 0
DWIDTH 29 0
BBX 29 37 0 0
BITMAP
003F8000
001FC000
0001E000
0001E000
00078000
00060000
00000000
00000000
001F8000
001FC000
003FC000
003FE000
007FE000
007FE000
007DF000
00F9F000
00F9F800
01F8F800
01F0F800
01F0FC00
03F07C00
03E07E00
03E07E00
07E03E00
07C03F00
0FFFFF00
0FFFFF80
0FFFFF80
1FFFFF80
1FFFFFC0
3F000FC0
3F000FE0
3F0007E0
7E0007E0
7E0003F0
7E0003F0
FC0003F8
ENDCHAR
STARTCHAR 1EA3
ENCODING 7843
SWIDTH 546 0
DWIDTH 22 0
BBX 20 29 1 0
BITMAP
03F000
03FC00
001E00
001C00
007800
006000
000000
000000
03FC00
0FFF80
1FFFC0
3FFFC0
3F0FC0
7E07E0
1C07E0
0007E0
000FE0
01FFE0
0FFFE0
3FE7E0
7E07E0
7C07E0
FC07E0
FC0FE0
7E1FE0
7FFFE0
7FFFE0
3FF3E0
0FC3F0
ENDCHAR
STARTCHAR 1EA4
ENCODING 7844
SWIDTH 720 0
DWIDTH 29 0
BBX 29 36 0 0
BITMAP
0003E000
0007C000
000F0000
00000000
001F8000
0079E000
00000000
001F8000
001FC000
003FC000
003FE000
007FE000
007FE000
007DF000
00F9F000
00F9F800
01F8F800
01F0F800
01F0FC00
03F07C00
03E07E00
03E07E00
07E03E00
07C03F00
0FFFFF00
0FFFFF80
0FFFFF80
1FFFFF80
1FFFFFC0
3F000FC0
3F000FE0
3F0007E0
7E0007E0
7E0003F0
7E0003F0
FC0003F8
ENDCHAR
STARTCHAR 1EA5
ENCODING 7845
SWIDTH 546 0
DWIDTH 22 0
BBX 20 37 1 0
BITMAP
003F00
007E00
007C00
007800
00F000
00F000
000000
000000
01F800
01FC00
03FC00
07FE00
079F00
0F0F00
000000
000000
03FC00
0FFF80
1FFFC0
3FFFC0
3F0FC0
7E07E0
1C07E0
0007E0
000FE0
01FFE0
0FFFE0
3FE7E0
7E07E0
7C07E0
FC07E0
FC0FE0
7E1FE0
7FFFE0
7FFFE0
3FF3E0
0FC3F0
ENDCHAR
STARTCHAR 1EA6
ENCODING 7846
SWIDTH 720 0
DWIDTH 29 0
BBX 29 36 0 0
BITMAP
007E0000
003E0000
000F0000
00000000
001F8000
0079E000
00000000
001F8000
001FC000
003FC000
003FE000
007FE000
007FE000
007DF000
00F9F000
00F9F800
01F8F800
01F0F800
01F0FC00
03F07C00
03E07E00
03E07E00
07E03E00
07C03F00
0FFFFF00
0FFFFF80
0FFFFF80
1FFFFF80
1FFFFFC0
3F000FC0
3F000FE0
3F0007E0
7E0007E0
7E0003F0
7E0003F0
FC0003F8
ENDCHAR
STARTCHAR 1EA7
ENCODING 7847
SWIDTH 546 0
DWIDTH 22 0
BBX 20 37 1 0
BITMAP
0FC000
07E000
03E000
01F000
00F000
007800
000000
000000
01F800
01FC00
03FC00
07FE00
079F00
0F0F00
000000
000000
03FC00
0FFF80
1FFFC0
3FFFC0
3F0FC0
7E07E0
1C07E0
0007E0
000FE0
01FFE0
0FFFE0
3FE7E0
7E07E0
7C07E0
FC07E0
FC0FE0
7E1FE0
7FFFE0
7FFFE0
3FF3E0
0FC3F0
ENDCHAR
STARTCHAR 1EA8
ENCODING 7848
SWIDTH 720 0
DWIDTH 29 0
BBX 29 36 0 0
BITMAP
001F8000
0001C000
00078000
00000000
001F8000
0079E000
00000000
001F8000
001FC000
003FC000
003FE000
007FE000
007FE000
007DF000
00F9F000
00F9F800
01F8F800
01F0F800
01F0FC00
03F07C00
03E07E00
03E07E00
07E03E00
07C03F00
0FFFFF00
0FFFFF80
0FFFFF80
1FFFFF80
1FFFFFC0
3F000FC0
3F000FE0
3F0007E0
7E0007E0
7E0003F0
7E0003F0
FC0003F8
ENDCHAR
STARTCHAR 1EA9
ENCODING 7849
SWIDTH 546 0
DWIDTH 22 0
BBX 20 37 1 0
BITMAP
03F000
03FC00
001E00
001E00
007800
006000
000000
000000
01F800
01FC00
03FC00
07FE00
079F00
0F0F00
000000
000000
03FC00
0FFF80
1FFFC0
3FFFC0
3F0FC0
7E07E0
1C07E0
0007E0
000FE0
01FFE0
0FFFE0
3FE7E0
7E07E0
7C07E0
FC07E0
FC0FE0
7E1FE0
7FFFE0
7FFFE0
3FF3E0
0FC3F0
ENDCHAR
STARTCHAR 1EAA
ENCODING 7850
SWIDTH 720 0
DWIDTH 29 0
BBX 29 36 0 0
BITMAP
00783800
00C63000
00C1E000
00000000
001F8000
0079E000
00000000
001F8000
001FC000
003FC000
003FE000
007FE000
007FE000
007DF000
00F9F000
00F9F800
01F8F800
01F0F800
01F0FC00
03F07C00
03E07E00
03E07E00
07E03E00
07C03F00
0FFFFF00
0FFFFF80
0FFFFF80
1FFFFF80
1FFFFFC0
3F000FC0
3F000FE0
3F0007E0
7E0007E0
7E0003F0
7E0003F0
FC0003F8
ENDCHAR
STARTCHAR 1EAB
ENCODING 7851
SWIDTH 546 0
DWIDTH 22 0
BBX 20 36 1 0
BITMAP
038380
07E380
0FFF00
0E7F00
0C1E00
000000
000000
01F800
01FC00
03FC00
07FE00
079F00
0F0F00
000000
000000
03FC00
0FFF80
1FFFC0
3FFFC0
3F0FC0
7E07E0
1C07E0
0007E0
000FE0
01FFE0
0FFFE0
3FE7E0
7E07E0
7C07E0
FC07E0
FC0FE0
7E1FE0
7FFFE0
7FFFE0
3FF3E0
0FC3F0
ENDCHAR
STARTCHAR 1EAC
ENCODING 7852
SWIDTH 720 0
DWIDTH 29 0
BBX 29 42 0 -9
BITMAP
001F8000
0079E000
00000000
00000000
001F8000
001FC000
003FC000
003FE000
007FE000
007FE000
007DF000
00F9F000
00F9F800
01F8F800
01F0F800
01F0FC00
03F07C00
03E07E00
03E07E00
07E03E00
07C03F00
0FFFFF00
0FFFFF80
0FFFFF80
1FFFFF80
1FFFFFC0
3F000FC0
3F000FE0
3F0007E0
7E0007E0
7E0003F0
7E0003F0
FC0003F8
00000000
00000000
00000000
001F8000
001F8000
001F8000
001F8000
001F8000
001F8000
ENDCHAR
STARTCHAR 1EAD
ENCODING 7853
SWIDTH 546 0
DWIDTH 22 0
BBX 20 38 1 -9
BITMAP
01F800
01FC00
03FC00
07FE00
079F00
0F0F00
000000
000000
03FC00
0FFF80
1FFFC0
3FFFC0
3F0FC0
7E07E0
1C07E0
0007E0
000FE0
01FFE0
0FFFE0
3FE7E0
7E07E0
7C07E0
FC07E0
FC0FE0
7E1FE0
7FFFE0
7FFFE0
3FF3E0
0FC3F0
000000
000000
000000
01F000
01F000
01F000
01F000
01F000
01F000
ENDCHAR
STARTCHAR 1EAE
ENCODING 7854
SWIDTH 720 0
DWIDTH 29 0
BBX 29 36 0 0
BITMAP
0003E000
0007C000
000F0000
00000000
00606000
003F8000
00000000
001F8000
001FC000
003FC000
003FE000
007FE000
007FE000
007DF000
00F9F000
00F9F800
01F8F800
01F0F800
01F0FC00
03F07C00
03E07E00
03E07E00
07E03E00
07C03F00
0FFFFF00
0FFFFF80
0FFFFF80
1FFFFF80
1FFFFFC0
3F000FC0
3F000FE0
3F0007E0
7E0007E0
7E0003F0
7E0003F0
FC0003F8
ENDCHAR
STARTCHAR 1EAF
ENCODING 7855
SWIDTH 546 0
DWIDTH 22 0
BBX 20 37 1 0
BITMAP
003F00
007E00
007C00
007800
00F000
00F000
000000
000000
0E0700
0E0700
070F00
07FE00
03FC00
01F800
000000
000000
03FC00
0FFF80
1FFFC0
3FFFC0
3F0FC0
7E07E0
1C07E0
0007E0
000FE0
01FFE0
0FFFE0
3FE7E0
7E07E0
7C07E0
FC07E0
FC0FE0
7E1FE0
7FFFE0
7FFFE0
3FF3E0
0FC3F0
ENDCHAR
STARTCHAR 1EB0
ENCODING 7856
SWIDTH 720 0
DWIDTH 29 0
BBX 29 36 0 0
BITMAP
007C0000
003E0000
000F0000
00000000
00606000
003F8000
00000000
001F8000
001FC000
003FC000
003FE000
007FE000
007FE000
007DF000
00F9F000
00F9F800
01F8F800
01F0F800
01F0FC00
03F07C00
03E07E00
03E07E00
07E03E00
07C03F00
0FFFFF00
0FFFFF80
0FFFFF80
1FFFFF80
1FFFFFC0
3F000FC0
3F000FE0
3F0007E0
7E0007E0
7E0003F0
7E0003F0
FC0003F8
ENDCHAR
STARTCHAR 1EB1
ENCODING 7857
SWIDTH 546 0
DWIDTH 22 0
BBX 20 37 1 0
BITMAP
0FC000
07E000
03E000
01F000
00F000
007800
000000
000000
0E0700
0E0700
070F00
07FE00
03FC00
01F800
000000
000000
03FC00
0FFF80
1FFFC0
3FFFC0
3F0FC0
7E07E0
1C07E0
0007E0
000FE0
01FFE0
0FFFE0
3FE7E0
7E07E0
7C07E0
FC07E0
FC0FE0
7E1FE0
7FFFE0
7FFFE0
3FF3E0
0FC3F0
ENDCHAR
STARTCHAR 1EB2
ENCODING 7858
SWIDTH 720 0
DWIDTH 29 0
BBX 29 36 0 0
BITMAP
001F8000
0001C000
00078000
00000000
00606000
003F8000
00000000
001F8000
001FC000
003FC000
003FE000
007FE000
007FE000
007DF000
00F9F000
00F9F800
01F8F800
01F0F800
01F0FC00
03F07C00
03E07E00
03E07E00
07E03E00
07C03F00
0FFFFF00
0FFFFF80
0FFFFF80
1FFFFF80
1FFFFFC0
3F000FC0
3F000FE0
3F0007E0
7E0007E0
7E0003F0
7E0003F0
FC0003F8
ENDCHAR
STARTCHAR 1EB3
ENCODING 7859
SWIDTH 546 0
DWIDTH 22 0
BBX 20 37 1 0
BITMAP
03F000
03FC00
001E00
001E00
007800
006000
000000
000000
0E0700
0E0700
070F00
07FE00
03FC00
01F800
000000
000000
03FC00
0FFF80
1FFFC0
3FFFC0
3F0FC0
7E07E0
1C07E0
0007E0
000FE0
01FFE0
0FFFE0
3FE7E0
7E07E0
7C07E0
FC07E0
FC0FE0
7E1FE0
7FFFE0
7FFFE0
3FF3E0
0FC3F0
ENDCHAR
STARTCHAR 1EB4
ENCODING 7860
SWIDTH 720 0
DWIDTH 29 0
BBX 29 36 0 0
BITMAP
00783000
00C63000
01C1E000
00000000
00606000
003F8000
00000000
001F8000
001FC000
003FC000
003FE000
007FE000
007FE000
007DF000
00F9F000
00F9F800
01F8F800
01F0F800
01F0FC00
03F07C00
03E07E00
03E07E00
07E03E00
07C03F00
0FFFFF00
0FFFFF80
0FFFFF80
1FFFFF80
1FFFFFC0
3F000FC0
3F000FE0
3F0007E0
7E0007E0
7E0003F0
7E0003F0
FC0003F8
ENDCHAR
STARTCHAR 1EB5
ENCODING 7861
SWIDTH 546 0
DWIDTH 22 0
BBX 20 36 1 0
BITMAP
038380
07E380
0FFF00
0E7F00
0C1E00
000000
000000
0E0700
0E0700
070F00
07FE00
03FC00
01F800
000000
000000
03FC00
0FFF80
1FFFC0
3FFFC0
3F0FC0
7E07E0
1C07E0
0007E0
000FE0
01FFE0
0FFFE0
3FE7E0
7E07E0
7C07E0
FC07E0
FC0FE0
7E1FE0
7FFFE0
7FFFE0
3FF3E0
0FC3F0
ENDCHAR
STARTCHAR 1EB6
ENCODING 7862
SWIDTH 720 0
DWIDTH 29 0
BBX 29 42 0 -9
BITMAP
00606000
003F8000
00000000
00000000
001F8000
001FC000
003FC000
003FE000
007FE000
007FE000
007DF000
00F9F000
00F9F800
01F8F800
01F0F800
01F0FC00
03F07C00
03E07E00
03E07E00
07E03E00
07C03F00
0FFFFF00
0FFFFF80
0FFFFF80
1FFFFF80
1FFFFFC0
3F000FC0
3F000FE0
3F0007E0
7E0007E0
7E0003F0
7E0003F0
FC0003F8
00000000
00000000
00000000
001F8000
001F8000
001F8000
001F8000
001F8000
001F8000
ENDCHAR
STARTCHAR 1EB7
ENCODING 7863
SWIDTH 546 0
DWIDTH 22 0
BBX 20 38 1 -9
BITMAP
0E0700
0E0700
070F00
07FE00
03FC00
01F800
000000
000000
03FC00
0FFF80
1FFFC0
3FFFC0
3F0FC0
7E07E0
1C07E0
0007E0
000FE0
01FFE0
0FFFE0
3FE7E0
7E07E0
7C07E0
FC07E0
FC0FE0
7E1FE0
7FFFE0
7FFFE0
3FF3E0
0FC3F0
000000
000000
000000
01F000
01F000
01F000
01F000
01F000
01F000
ENDCHAR
STARTCHAR 1EB8
ENCODING 7864
SWIDTH 670 0
DWIDTH 27 0
BBX 22 38 3 -9
BITMAP
FFFFF8
FFFFF8
FFFFF8
FFFFF8
FFFFF8
FC0000
FC0000
FC0000
FC0000
FC0000
FC0000
FFFFF0
FFFFF0
FFFFF0
FFFFF0
FFFFF0
FC0000
FC0000
FC0000
FC0000
FC0000
FC0000
FC0000
FC0000
FFFFFC
FFFFFC
FFFFFC
FFFFFC
FFFFFC
000000
000000
000000
00FC00
00FC00
00FC00
00FC00
00FC00
00FC00
ENDCHAR
STARTCHAR 1EB9
ENCODING 7865
SWIDTH 546 0
DWIDTH 22 0
BBX 20 30 1 -9
BITMAP
01F800
07FE00
1FFF80
3FFFC0
3F0FC0
7E07E0
7C03E0
7C03E0
FC03E0
FFFFF0
FFFFF0
FFFFF0
FC0000
7C0000
7C0000
7E0380
3F07E0
3FFFE0
1FFFC0
0FFF00
01FC00
000000
000000
000000
01F800
01F800
01F800
01F800
01F800
01F800
ENDCHAR
STARTCHAR 1EBA
ENCODING 7866
SWIDTH 670 0
DWIDTH 27 0
BBX 22 37 3 0
BITMAP
01F800
01FE00
000E00
000E00
007C00
007000
000000
000000
FFFFF8
FFFFF8
FFFFF8
FFFFF8
FFFFF8
FC0000
FC0000
FC0000
FC0000
FC0000
FC0000
FFFFF0
FFFFF0
FFFFF0
FFFFF0
FFFFF0
FC0000
FC0000
FC0000
FC0000
FC0000
FC0000
FC0000
FC0000
FFFFFC
FFFFFC
FFFFFC
FFFFFC
FFFFFC
ENDCHAR
STARTCHAR 1EBB
ENCODING 7867
SWIDTH 546 0
DWIDTH 22 0
BBX 20 29 1 0
BITMAP
03F000
03FC00
001C00
001C00
007800
006000
000000
000000
01F800
07FE00
1FFF80
3FFFC0
3F0FC0
7E07E0
7C03E0
7C03E0
FC03E0
FFFFF0
FFFFF0
FFFFF0
FC0000
7C0000
7C0000
7E0380
3F07E0
3FFFE0
1FFFC0
0FFF00
01FC00
ENDCHAR
STARTCHAR 1EBC
ENCODING 7868
SWIDTH 670 0
DWIDTH 27 0
BBX 22 36 3 0
BITMAP
038180
0FE380
0FFF80
0E7F80
0C0F00
000000
000000
FFFFF8
FFFFF8
FFFFF8
FFFFF8
FFFFF8
FC0000
FC0000
FC0000
FC0000
FC0000
FC0000
FFFFF0
FFFFF0
FFFFF0
FFFFF0
FFFFF0
FC0000
FC0000
FC0000
FC0000
FC0000
FC0000
FC0000
FC0000
FFFFFC
FFFFFC
FFFFFC
FFFFFC
FFFFFC
ENDCHAR
STARTCHAR 1EBD
ENCODING 7869
SWIDTH 546 0
DWIDTH 22 0
BBX 20 28 1 0
BITMAP
078380
0FE380
0FFF80
0C7F00
0C1E00
000000
000000
01F800
07FE00
1FFF80
3FFFC0
3F0FC0
7E07E0
7C03E0
7C03E0
FC03E0
FFFFF0
FFFFF0
FFFFF0
FC0000
7C0000
7C0000
7E0380
3F07E0
3FFFE0
1FFFC0
0FFF00
01FC00
ENDCHAR
STARTCHAR 1EBE
ENCODING 7870
SWIDTH 670 0
DWIDTH 27 0
BBX 22 36 3 0
BITMAP
001F00
003E00
007800
000000
00FC00
03CF00
000000
FFFFF8
FFFFF8
FFFFF8
FFFFF8
FFFFF8
FC0000
FC0000
FC0000
FC0000
FC0000
FC0000
FFFFF0
FFFFF0
FFFFF0
FFFFF0
FFFFF0
FC0000
FC0000
FC0000
FC0000
FC0000
FC0000
FC0000
FC0000
FFFFFC
FFFFFC
FFFFFC
FFFFFC
FFFFFC
ENDCHAR
STARTCHAR 1EBF
ENCODING 7871
SWIDTH 546 0
DWIDTH 22 0
BBX 20 37 1 0
BITMAP
003F00
007E00
007C00
00F800
00F000
00E000
000000
000000
01F800
03FC00
03FC00
07FE00
0F9F00
0F0F00
000000
000000
01F800
07FE00
1FFF80
3FFFC0
3F0FC0
7E07E0
7C03E0
7C03E0
FC03E0
FFFFF0
FFFFF0
FFFFF0
FC0000
7C0000
7C0000
7E0380
3F07E0
3FFFE0
1FFFC0
0FFF00
01FC00
ENDCHAR
STARTCHAR 1EC0
ENCODING 7872
SWIDTH 670 0
DWIDTH 27 0
BBX 22 36 3 0
BITMAP
03F000
01F000
007800
000000
00FC00
03CF00
000000
FFFFF8
FFFFF8
FFFFF8
FFFFF8
FFFFF8
FC0000
FC0000
FC0000
FC0000
FC0000
FC0000
FFFFF0
FFFFF0
FFFFF0
FFFFF0
FFFFF0
FC0000
FC0000
FC0000
FC0000
FC0000
FC0000
FC0000
FC0000
FFFFFC
FFFFFC
FFFFFC
FFFFFC
FFFFFC
ENDCHAR
ENDFONT
